<?xml version="1.0" standalone="no"?>
<svg width="567.429" height="710.791" viewBox="0 0 567.429 710.791" xmlns="http://www.w3.org/2000/svg" shape-rendering="crispEdges">
<title>
../plots/weighted/eTmiss_WRWR_plot.svg
</title>
<desc>
Creator: ROOT Version 6.22/00
CreationDate: Sun Nov 15 16:01:30 2020</desc>
<defs>
</defs>
<rect x="0.5" y="0" width="566.929" height="710.291" fill="white"/>
<rect x="85.5394" y="71.0291" width="425.197" height="568.232" fill="white"/>
<rect x="85.5394" y="71.0291" width="425.197" height="568.232" fill="none" stroke="black"/>
<rect x="85.5394" y="71.0291" width="425.197" height="568.232" fill="white"/>
<rect x="85.5394" y="71.0291" width="425.197" height="568.232" fill="none" stroke="black"/>
<path d="M85.5394,450.536h 10.6299v 161.423h 10.6299v 22.047h 10.6299v 2.53194h 10.6299v 0.883792h 10.6299v 0.859906h 10.6299v 0.0716588h 10.6299v 0.143318h 10.6299v 0.453839h 10.6299v -0.0238863h 10.6299v 0.119431h 10.6299v -0.0238863h 10.6299v
 0.167204h 10.6299v -0.0238863h 10.6299v 0.0716588h 21.2598v -0.0477725h 10.6299v 0.0477725h 21.2598v 0.0238863h 10.6299v -0.0238863h 21.2598v 0.0238863h 191.339" fill="none" stroke="#ff0000" stroke-width="2"/>
<path d="M85.5394,639.261h 425.197" fill="none" stroke="black"/>
<path d="M85.5394,623.28v 15.9815" fill="none" stroke="black"/>
<path d="M94.0433,631.271v 7.99077" fill="none" stroke="black"/>
<path d="M102.547,631.271v 7.99077" fill="none" stroke="black"/>
<path d="M111.051,631.271v 7.99077" fill="none" stroke="black"/>
<path d="M119.555,631.271v 7.99077" fill="none" stroke="black"/>
<path d="M128.059,623.28v 15.9815" fill="none" stroke="black"/>
<path d="M136.563,631.271v 7.99077" fill="none" stroke="black"/>
<path d="M145.067,631.271v 7.99077" fill="none" stroke="black"/>
<path d="M153.571,631.271v 7.99077" fill="none" stroke="black"/>
<path d="M162.075,631.271v 7.99077" fill="none" stroke="black"/>
<path d="M170.579,623.28v 15.9815" fill="none" stroke="black"/>
<path d="M179.083,631.271v 7.99077" fill="none" stroke="black"/>
<path d="M187.587,631.271v 7.99077" fill="none" stroke="black"/>
<path d="M196.091,631.271v 7.99077" fill="none" stroke="black"/>
<path d="M204.594,631.271v 7.99077" fill="none" stroke="black"/>
<path d="M213.098,623.28v 15.9815" fill="none" stroke="black"/>
<path d="M221.602,631.271v 7.99077" fill="none" stroke="black"/>
<path d="M230.106,631.271v 7.99077" fill="none" stroke="black"/>
<path d="M238.61,631.271v 7.99077" fill="none" stroke="black"/>
<path d="M247.114,631.271v 7.99077" fill="none" stroke="black"/>
<path d="M255.618,623.28v 15.9815" fill="none" stroke="black"/>
<path d="M264.122,631.271v 7.99077" fill="none" stroke="black"/>
<path d="M272.626,631.271v 7.99077" fill="none" stroke="black"/>
<path d="M281.13,631.271v 7.99077" fill="none" stroke="black"/>
<path d="M289.634,631.271v 7.99077" fill="none" stroke="black"/>
<path d="M298.138,623.28v 15.9815" fill="none" stroke="black"/>
<path d="M306.642,631.271v 7.99077" fill="none" stroke="black"/>
<path d="M315.146,631.271v 7.99077" fill="none" stroke="black"/>
<path d="M323.65,631.271v 7.99077" fill="none" stroke="black"/>
<path d="M332.154,631.271v 7.99077" fill="none" stroke="black"/>
<path d="M340.657,623.28v 15.9815" fill="none" stroke="black"/>
<path d="M349.161,631.271v 7.99077" fill="none" stroke="black"/>
<path d="M357.665,631.271v 7.99077" fill="none" stroke="black"/>
<path d="M366.169,631.271v 7.99077" fill="none" stroke="black"/>
<path d="M374.673,631.271v 7.99077" fill="none" stroke="black"/>
<path d="M383.177,623.28v 15.9815" fill="none" stroke="black"/>
<path d="M391.681,631.271v 7.99077" fill="none" stroke="black"/>
<path d="M400.185,631.271v 7.99077" fill="none" stroke="black"/>
<path d="M408.689,631.271v 7.99077" fill="none" stroke="black"/>
<path d="M417.193,631.271v 7.99077" fill="none" stroke="black"/>
<path d="M425.697,623.28v 15.9815" fill="none" stroke="black"/>
<path d="M434.201,631.271v 7.99077" fill="none" stroke="black"/>
<path d="M442.705,631.271v 7.99077" fill="none" stroke="black"/>
<path d="M451.209,631.271v 7.99077" fill="none" stroke="black"/>
<path d="M459.713,631.271v 7.99077" fill="none" stroke="black"/>
<path d="M468.217,623.28v 15.9815" fill="none" stroke="black"/>
<path d="M476.72,631.271v 7.99077" fill="none" stroke="black"/>
<path d="M485.224,631.271v 7.99077" fill="none" stroke="black"/>
<path d="M493.728,631.271v 7.99077" fill="none" stroke="black"/>
<path d="M502.232,631.271v 7.99077" fill="none" stroke="black"/>
<path d="M510.736,623.28v 15.9815" fill="none" stroke="black"/>
<text xml:space="preserve" x="80.3262" y="662.232" fill="black" font-size="18.7041" font-family="Helvetica">0</text>
<text xml:space="preserve" x="116.981" y="662.232" fill="black" font-size="18.7041" font-family="Helvetica">50</text>
<text xml:space="preserve" x="154.451" y="662.232" fill="black" font-size="18.7041" font-family="Helvetica">100</text>
<text xml:space="preserve" x="197.622" y="662.232" fill="black" font-size="18.7041" font-family="Helvetica">150</text>
<text xml:space="preserve" x="239.979" y="662.232" fill="black" font-size="18.7041" font-family="Helvetica">200</text>
<text xml:space="preserve" x="282.335" y="662.232" fill="black" font-size="18.7041" font-family="Helvetica">250</text>
<text xml:space="preserve" x="324.692" y="662.232" fill="black" font-size="18.7041" font-family="Helvetica">300</text>
<text xml:space="preserve" x="367.049" y="662.232" fill="black" font-size="18.7041" font-family="Helvetica">350</text>
<text xml:space="preserve" x="410.22" y="662.232" fill="black" font-size="18.7041" font-family="Helvetica">400</text>
<text xml:space="preserve" x="452.577" y="662.232" fill="black" font-size="18.7041" font-family="Helvetica">450</text>
<text xml:space="preserve" x="494.934" y="662.232" fill="black" font-size="18.7041" font-family="Helvetica">500</text>
<text xml:space="preserve" x="456.65" y="685.039" fill="black" font-size="18.7041" font-family="Helvetica"> (GeV)</text>
<text xml:space="preserve" x="425.697" y="676.079" fill="black" font-size="12.6361" font-family="Helvetica">misss</text>
<text xml:space="preserve" x="425.697" y="690.741" fill="black" font-size="12.6361" font-family="Helvetica">T</text>
<text xml:space="preserve" x="413.479" y="685.039" fill="black" font-size="18.7041" font-family="Helvetica">E</text>
<path d="M85.5394,639.261v -568.232" fill="none" stroke="black"/>
<path d="M99.1457,639.261h -13.6063" fill="none" stroke="black"/>
<path d="M92.3425,627.897h -6.80315" fill="none" stroke="black"/>
<path d="M92.3425,616.532h -6.80315" fill="none" stroke="black"/>
<path d="M92.3425,605.167h -6.80315" fill="none" stroke="black"/>
<path d="M92.3425,593.803h -6.80315" fill="none" stroke="black"/>
<path d="M99.1457,582.438h -13.6063" fill="none" stroke="black"/>
<path d="M92.3425,571.074h -6.80315" fill="none" stroke="black"/>
<path d="M92.3425,559.709h -6.80315" fill="none" stroke="black"/>
<path d="M92.3425,548.344h -6.80315" fill="none" stroke="black"/>
<path d="M92.3425,536.98h -6.80315" fill="none" stroke="black"/>
<path d="M99.1457,525.615h -13.6063" fill="none" stroke="black"/>
<path d="M92.3425,514.25h -6.80315" fill="none" stroke="black"/>
<path d="M92.3425,502.886h -6.80315" fill="none" stroke="black"/>
<path d="M92.3425,491.521h -6.80315" fill="none" stroke="black"/>
<path d="M92.3425,480.156h -6.80315" fill="none" stroke="black"/>
<path d="M99.1457,468.792h -13.6063" fill="none" stroke="black"/>
<path d="M92.3425,457.427h -6.80315" fill="none" stroke="black"/>
<path d="M92.3425,446.062h -6.80315" fill="none" stroke="black"/>
<path d="M92.3425,434.698h -6.80315" fill="none" stroke="black"/>
<path d="M92.3425,423.333h -6.80315" fill="none" stroke="black"/>
<path d="M99.1457,411.968h -13.6063" fill="none" stroke="black"/>
<path d="M92.3425,400.604h -6.80315" fill="none" stroke="black"/>
<path d="M92.3425,389.239h -6.80315" fill="none" stroke="black"/>
<path d="M92.3425,377.875h -6.80315" fill="none" stroke="black"/>
<path d="M92.3425,366.51h -6.80315" fill="none" stroke="black"/>
<path d="M99.1457,355.145h -13.6063" fill="none" stroke="black"/>
<path d="M92.3425,343.781h -6.80315" fill="none" stroke="black"/>
<path d="M92.3425,332.416h -6.80315" fill="none" stroke="black"/>
<path d="M92.3425,321.051h -6.80315" fill="none" stroke="black"/>
<path d="M92.3425,309.687h -6.80315" fill="none" stroke="black"/>
<path d="M99.1457,298.322h -13.6063" fill="none" stroke="black"/>
<path d="M92.3425,286.957h -6.80315" fill="none" stroke="black"/>
<path d="M92.3425,275.593h -6.80315" fill="none" stroke="black"/>
<path d="M92.3425,264.228h -6.80315" fill="none" stroke="black"/>
<path d="M92.3425,252.863h -6.80315" fill="none" stroke="black"/>
<path d="M99.1457,241.499h -13.6063" fill="none" stroke="black"/>
<path d="M92.3425,230.134h -6.80315" fill="none" stroke="black"/>
<path d="M92.3425,218.769h -6.80315" fill="none" stroke="black"/>
<path d="M92.3425,207.405h -6.80315" fill="none" stroke="black"/>
<path d="M92.3425,196.04h -6.80315" fill="none" stroke="black"/>
<path d="M99.1457,184.676h -13.6063" fill="none" stroke="black"/>
<path d="M92.3425,173.311h -6.80315" fill="none" stroke="black"/>
<path d="M92.3425,161.946h -6.80315" fill="none" stroke="black"/>
<path d="M92.3425,150.582h -6.80315" fill="none" stroke="black"/>
<path d="M92.3425,139.217h -6.80315" fill="none" stroke="black"/>
<path d="M99.1457,127.852h -13.6063" fill="none" stroke="black"/>
<path d="M92.3425,116.488h -6.80315" fill="none" stroke="black"/>
<path d="M92.3425,105.123h -6.80315" fill="none" stroke="black"/>
<path d="M92.3425,93.7583h -6.80315" fill="none" stroke="black"/>
<path d="M92.3425,82.3937h -6.80315" fill="none" stroke="black"/>
<path d="M99.1457,71.029h -13.6063" fill="none" stroke="black"/>
<path d="M99.1457,71.029h -13.6063" fill="none" stroke="black"/>
<text xml:space="preserve" x="72.1807" y="645.941" fill="black" font-size="18.7041" font-family="Helvetica">0</text>
<text xml:space="preserve" x="38.784" y="589.737" fill="black" font-size="18.7041" font-family="Helvetica">0.001</text>
<text xml:space="preserve" x="35.5258" y="532.718" fill="black" font-size="18.7041" font-family="Helvetica">0.002</text>
<text xml:space="preserve" x="35.5258" y="475.699" fill="black" font-size="18.7041" font-family="Helvetica">0.003</text>
<text xml:space="preserve" x="35.5258" y="418.68" fill="black" font-size="18.7041" font-family="Helvetica">0.004</text>
<text xml:space="preserve" x="35.5258" y="362.476" fill="black" font-size="18.7041" font-family="Helvetica">0.005</text>
<text xml:space="preserve" x="35.5258" y="305.457" fill="black" font-size="18.7041" font-family="Helvetica">0.006</text>
<text xml:space="preserve" x="35.5258" y="248.439" fill="black" font-size="18.7041" font-family="Helvetica">0.007</text>
<text xml:space="preserve" x="35.5258" y="191.42" fill="black" font-size="18.7041" font-family="Helvetica">0.008</text>
<text xml:space="preserve" x="35.5258" y="134.401" fill="black" font-size="18.7041" font-family="Helvetica">0.009</text>
<text xml:space="preserve" x="49.3732" y="78.1971" fill="black" font-size="18.7041" font-family="Helvetica">0.01</text>
<g transform="rotate(-90,25.7512,159.652)">
<text xml:space="preserve" x="25.7512" y="159.652" fill="black" font-size="18.7041" font-family="Helvetica">Events/Bin</text>
</g>
<text xml:space="preserve" x="283.965" y="35.5145" text-anchor="middle" fill="black" font-size="26.5059" font-family="Helvetica">eTmiss WRWR</text>
<path d="M85.5394,638.397h 10.6299v 0.748961h 10.6299v 0.115834h 403.937" fill="none" stroke="#ffcc00" stroke-width="2"/>
<path d="M96.1693,71.0291v 433.324" fill="none" stroke="#99cc00" stroke-width="2"/>
<path d="M96.1693,504.353h 10.6299v 108.431h 10.6299v 14.3734h 10.6299v 1.26083h 10.6299v 5.42156h 10.6299v 1.38691h 10.6299v 0.504331h 10.6299v 0.88258h 10.6299v -0.504331h 10.6299v 1.63908h 21.2598v 0.504331h 21.2598v 0.378248h 10.6299v 0.504331h
 10.6299v -0.252166h 10.6299v 0.378248h 63.7795v -0.252166h 10.6299v 0.252166h 170.079" fill="none" stroke="#99cc00" stroke-width="2"/>
<path d="M85.5394,633.165h 10.6299v 5.27065h 10.6299v 0.664043h 10.6299v 0.0841635h 10.6299v 0.00617714h 10.6299v 0.0710371h 372.047" fill="none" stroke="#999900" stroke-width="2"/>
<path d="M85.5394,639.2h 10.6299v 0.0617585h 414.567" fill="none" stroke="#009900" stroke-width="2"/>
<path d="M85.5394,583.263h 10.6299v 49.1066h 10.6299v 5.49265h 10.6299v 0.494269h 10.6299v 0.327192h 10.6299v 0.132269h 10.6299v -0.0417692h 10.6299v 0.187961h 10.6299v 0.0487307h 10.6299v 0.0417692h 21.2598v 0.0835383h 10.6299v 0.00696153h 10.6299v
 0.0278461h 10.6299v 0.00696153h 10.6299v -0.0208846h 10.6299v 0.104423h 255.118" fill="none" stroke="#00ffff" stroke-width="2"/>
<path d="M85.5394,638.828h 10.6299v 0.433048h 414.567" fill="none" stroke="#00ccff" stroke-width="2"/>
<rect x="227.272" y="71.0291" width="283.465" height="142.058" fill="white"/>
<path d="M227.272,213.087h 283.465" fill="none" stroke="black"/>
<path d="M510.736,213.087v -142.058" fill="none" stroke="black"/>
<path d="M510.736,71.0291h -283.465" fill="none" stroke="black"/>
<path d="M227.272,71.0291v 142.058" fill="none" stroke="black"/>
<text xml:space="preserve" x="457.464" y="85.5281" fill="black" font-size="13.8745" font-family="Helvetica"> = 1</text>
<text xml:space="preserve" x="449.319" y="92.0445" fill="black" font-size="6.44421" font-family="Helvetica">4,6</text>
<text xml:space="preserve" x="442.802" y="89.6009" fill="black" font-size="9.41632" font-family="Helvetica">N</text>
<text xml:space="preserve" x="389.042" y="85.5281" fill="black" font-size="13.8745" font-family="Helvetica"> = 1     M</text>
<text xml:space="preserve" x="385.784" y="92.0445" fill="black" font-size="6.44421" font-family="Helvetica">5</text>
<text xml:space="preserve" x="379.267" y="89.6009" fill="black" font-size="9.41632" font-family="Helvetica">N</text>
<text xml:space="preserve" x="321.434" y="85.5281" fill="black" font-size="13.8745" font-family="Helvetica"> = 1      M</text>
<text xml:space="preserve" x="317.361" y="92.8591" fill="black" font-size="6.44421" font-family="Helvetica">R</text>
<text xml:space="preserve" x="308.401" y="89.6009" fill="black" font-size="9.41632" font-family="Helvetica">W</text>
<text xml:space="preserve" x="297.812" y="85.5281" fill="black" font-size="13.8745" font-family="Helvetica">M</text>
<path d="M237.902,81.1761h 49.6063" fill="none" stroke="#ff0000" stroke-width="2"/>
<text xml:space="preserve" x="457.464" y="105.892" fill="black" font-size="13.8745" font-family="Helvetica"> = 2</text>
<text xml:space="preserve" x="449.319" y="112.408" fill="black" font-size="6.44421" font-family="Helvetica">4,6</text>
<text xml:space="preserve" x="442.802" y="109.965" fill="black" font-size="9.41632" font-family="Helvetica">N</text>
<text xml:space="preserve" x="389.042" y="105.892" fill="black" font-size="13.8745" font-family="Helvetica"> = 2     M</text>
<text xml:space="preserve" x="385.784" y="112.408" fill="black" font-size="6.44421" font-family="Helvetica">5</text>
<text xml:space="preserve" x="379.267" y="109.965" fill="black" font-size="9.41632" font-family="Helvetica">N</text>
<text xml:space="preserve" x="321.434" y="105.892" fill="black" font-size="13.8745" font-family="Helvetica"> = 1      M</text>
<text xml:space="preserve" x="317.361" y="113.223" fill="black" font-size="6.44421" font-family="Helvetica">R</text>
<text xml:space="preserve" x="308.401" y="109.965" fill="black" font-size="9.41632" font-family="Helvetica">W</text>
<text xml:space="preserve" x="297.812" y="105.892" fill="black" font-size="13.8745" font-family="Helvetica">M</text>
<path d="M237.902,101.47h 49.6063" fill="none" stroke="#ffcc00" stroke-width="2"/>
<text xml:space="preserve" x="457.464" y="126.256" fill="black" font-size="13.8745" font-family="Helvetica"> = 1</text>
<text xml:space="preserve" x="449.319" y="132.772" fill="black" font-size="6.44421" font-family="Helvetica">4,6</text>
<text xml:space="preserve" x="442.802" y="130.329" fill="black" font-size="9.41632" font-family="Helvetica">N</text>
<text xml:space="preserve" x="389.042" y="126.256" fill="black" font-size="13.8745" font-family="Helvetica"> = 1     M</text>
<text xml:space="preserve" x="385.784" y="132.772" fill="black" font-size="6.44421" font-family="Helvetica">5</text>
<text xml:space="preserve" x="379.267" y="130.329" fill="black" font-size="9.41632" font-family="Helvetica">N</text>
<text xml:space="preserve" x="321.434" y="126.256" fill="black" font-size="13.8745" font-family="Helvetica"> = 2      M</text>
<text xml:space="preserve" x="317.361" y="133.587" fill="black" font-size="6.44421" font-family="Helvetica">R</text>
<text xml:space="preserve" x="308.401" y="130.329" fill="black" font-size="9.41632" font-family="Helvetica">W</text>
<text xml:space="preserve" x="297.812" y="126.256" fill="black" font-size="13.8745" font-family="Helvetica">M</text>
<path d="M237.902,121.764h 49.6063" fill="none" stroke="#99cc00" stroke-width="2"/>
<text xml:space="preserve" x="457.464" y="146.62" fill="black" font-size="13.8745" font-family="Helvetica"> = 2</text>
<text xml:space="preserve" x="449.319" y="153.136" fill="black" font-size="6.44421" font-family="Helvetica">4,6</text>
<text xml:space="preserve" x="442.802" y="150.692" fill="black" font-size="9.41632" font-family="Helvetica">N</text>
<text xml:space="preserve" x="389.042" y="146.62" fill="black" font-size="13.8745" font-family="Helvetica"> = 2     M</text>
<text xml:space="preserve" x="385.784" y="153.136" fill="black" font-size="6.44421" font-family="Helvetica">5</text>
<text xml:space="preserve" x="379.267" y="150.692" fill="black" font-size="9.41632" font-family="Helvetica">N</text>
<text xml:space="preserve" x="321.434" y="146.62" fill="black" font-size="13.8745" font-family="Helvetica"> = 2      M</text>
<text xml:space="preserve" x="317.361" y="153.951" fill="black" font-size="6.44421" font-family="Helvetica">R</text>
<text xml:space="preserve" x="308.401" y="150.692" fill="black" font-size="9.41632" font-family="Helvetica">W</text>
<text xml:space="preserve" x="297.812" y="146.62" fill="black" font-size="13.8745" font-family="Helvetica">M</text>
<path d="M237.902,142.058h 49.6063" fill="none" stroke="#999900" stroke-width="2"/>
<text xml:space="preserve" x="457.464" y="166.169" fill="black" font-size="13.8745" font-family="Helvetica"> = 3</text>
<text xml:space="preserve" x="449.319" y="173.5" fill="black" font-size="6.44421" font-family="Helvetica">4,6</text>
<text xml:space="preserve" x="442.802" y="171.056" fill="black" font-size="9.41632" font-family="Helvetica">N</text>
<text xml:space="preserve" x="389.042" y="166.169" fill="black" font-size="13.8745" font-family="Helvetica"> = 3     M</text>
<text xml:space="preserve" x="385.784" y="172.685" fill="black" font-size="6.44421" font-family="Helvetica">5</text>
<text xml:space="preserve" x="379.267" y="170.242" fill="black" font-size="9.41632" font-family="Helvetica">N</text>
<text xml:space="preserve" x="321.434" y="166.169" fill="black" font-size="13.8745" font-family="Helvetica"> = 2      M</text>
<text xml:space="preserve" x="317.361" y="173.5" fill="black" font-size="6.44421" font-family="Helvetica">R</text>
<text xml:space="preserve" x="308.401" y="170.242" fill="black" font-size="9.41632" font-family="Helvetica">W</text>
<text xml:space="preserve" x="297.812" y="166.169" fill="black" font-size="13.8745" font-family="Helvetica">M</text>
<path d="M237.902,162.352h 49.6063" fill="none" stroke="#009900" stroke-width="2"/>
<text xml:space="preserve" x="457.464" y="186.533" fill="black" font-size="13.8745" font-family="Helvetica"> = 2</text>
<text xml:space="preserve" x="449.319" y="193.049" fill="black" font-size="6.44421" font-family="Helvetica">4,6</text>
<text xml:space="preserve" x="442.802" y="190.605" fill="black" font-size="9.41632" font-family="Helvetica">N</text>
<text xml:space="preserve" x="389.042" y="186.533" fill="black" font-size="13.8745" font-family="Helvetica"> = 2     M</text>
<text xml:space="preserve" x="385.784" y="193.864" fill="black" font-size="6.44421" font-family="Helvetica">5</text>
<text xml:space="preserve" x="379.267" y="191.42" fill="black" font-size="9.41632" font-family="Helvetica">N</text>
<text xml:space="preserve" x="321.434" y="186.533" fill="black" font-size="13.8745" font-family="Helvetica"> = 3      M</text>
<text xml:space="preserve" x="317.361" y="193.864" fill="black" font-size="6.44421" font-family="Helvetica">R</text>
<text xml:space="preserve" x="308.401" y="190.605" fill="black" font-size="9.41632" font-family="Helvetica">W</text>
<text xml:space="preserve" x="297.812" y="186.533" fill="black" font-size="13.8745" font-family="Helvetica">M</text>
<path d="M237.902,182.646h 49.6063" fill="none" stroke="#00ffff" stroke-width="2"/>
<text xml:space="preserve" x="457.464" y="206.897" fill="black" font-size="13.8745" font-family="Helvetica"> = 3</text>
<text xml:space="preserve" x="449.319" y="214.228" fill="black" font-size="6.44421" font-family="Helvetica">4,6</text>
<text xml:space="preserve" x="442.802" y="211.784" fill="black" font-size="9.41632" font-family="Helvetica">N</text>
<text xml:space="preserve" x="389.042" y="206.897" fill="black" font-size="13.8745" font-family="Helvetica"> = 3     M</text>
<text xml:space="preserve" x="385.784" y="214.228" fill="black" font-size="6.44421" font-family="Helvetica">5</text>
<text xml:space="preserve" x="379.267" y="211.784" fill="black" font-size="9.41632" font-family="Helvetica">N</text>
<text xml:space="preserve" x="321.434" y="206.897" fill="black" font-size="13.8745" font-family="Helvetica"> = 3      M</text>
<text xml:space="preserve" x="317.361" y="214.228" fill="black" font-size="6.44421" font-family="Helvetica">R</text>
<text xml:space="preserve" x="308.401" y="210.969" fill="black" font-size="9.41632" font-family="Helvetica">W</text>
<text xml:space="preserve" x="297.812" y="206.897" fill="black" font-size="13.8745" font-family="Helvetica">M</text>
<path d="M237.902,202.94h 49.6063" fill="none" stroke="#00ccff" stroke-width="2"/></svg>
