<?xml version="1.0" standalone="no"?>
<svg width="567.429" height="710.791" viewBox="0 0 567.429 710.791" xmlns="http://www.w3.org/2000/svg" shape-rendering="crispEdges">
<title>
../plots/weighted/jet1_PT_WRWR_plot.svg
</title>
<desc>
Creator: ROOT Version 6.22/00
CreationDate: Sun Nov 15 16:01:34 2020</desc>
<defs>
</defs>
<rect x="0.5" y="0" width="566.929" height="710.291" fill="white"/>
<rect x="85.5394" y="71.0291" width="425.197" height="568.232" fill="white"/>
<rect x="85.5394" y="71.0291" width="425.197" height="568.232" fill="none" stroke="black"/>
<rect x="85.5394" y="71.0291" width="425.197" height="568.232" fill="white"/>
<rect x="85.5394" y="71.0291" width="425.197" height="568.232" fill="none" stroke="black"/>
<path d="M85.5394,639.07h 10.6299v -6.49707h 10.6299v -19.8256h 10.6299v -25.2717h 10.6299v -31.9121h 10.6299v -9.36342h 10.6299v 7.69138h 10.6299v 24.1729h 10.6299v 34.3007h 10.6299v 16.0993h 10.6299v 5.68493h 10.6299v 2.14976h 10.6299v 0.573271h
 10.6299v 1.09877h 10.6299v 0.668816h 10.6299v 0.19109h 10.6299v 0.19109h 10.6299v -0.0955451h 10.6299v 0.238863h 21.2598v 0.0955451h 42.5197v -0.0955451h 10.6299v 0.0955451h 21.2598v -0.0477725h 21.2598v 0.0477725h 116.929" fill="none"
 stroke="#ff0000" stroke-width="2"/>
<path d="M85.5394,639.261h 425.197" fill="none" stroke="black"/>
<path d="M85.5394,623.28v 15.9815" fill="none" stroke="black"/>
<path d="M102.547,631.271v 7.99077" fill="none" stroke="black"/>
<path d="M119.555,631.271v 7.99077" fill="none" stroke="black"/>
<path d="M136.563,631.271v 7.99077" fill="none" stroke="black"/>
<path d="M153.571,631.271v 7.99077" fill="none" stroke="black"/>
<path d="M170.579,623.28v 15.9815" fill="none" stroke="black"/>
<path d="M187.587,631.271v 7.99077" fill="none" stroke="black"/>
<path d="M204.594,631.271v 7.99077" fill="none" stroke="black"/>
<path d="M221.602,631.271v 7.99077" fill="none" stroke="black"/>
<path d="M238.61,631.271v 7.99077" fill="none" stroke="black"/>
<path d="M255.618,623.28v 15.9815" fill="none" stroke="black"/>
<path d="M272.626,631.271v 7.99077" fill="none" stroke="black"/>
<path d="M289.634,631.271v 7.99077" fill="none" stroke="black"/>
<path d="M306.642,631.271v 7.99077" fill="none" stroke="black"/>
<path d="M323.65,631.271v 7.99077" fill="none" stroke="black"/>
<path d="M340.657,623.28v 15.9815" fill="none" stroke="black"/>
<path d="M357.665,631.271v 7.99077" fill="none" stroke="black"/>
<path d="M374.673,631.271v 7.99077" fill="none" stroke="black"/>
<path d="M391.681,631.271v 7.99077" fill="none" stroke="black"/>
<path d="M408.689,631.271v 7.99077" fill="none" stroke="black"/>
<path d="M425.697,623.28v 15.9815" fill="none" stroke="black"/>
<path d="M442.705,631.271v 7.99077" fill="none" stroke="black"/>
<path d="M459.713,631.271v 7.99077" fill="none" stroke="black"/>
<path d="M476.72,631.271v 7.99077" fill="none" stroke="black"/>
<path d="M493.728,631.271v 7.99077" fill="none" stroke="black"/>
<path d="M510.736,623.28v 15.9815" fill="none" stroke="black"/>
<text xml:space="preserve" x="80.3262" y="662.232" fill="black" font-size="18.7041" font-family="Helvetica">0</text>
<text xml:space="preserve" x="156.894" y="662.232" fill="black" font-size="18.7041" font-family="Helvetica">0.5</text>
<text xml:space="preserve" x="252.197" y="662.232" fill="black" font-size="18.7041" font-family="Helvetica">1</text>
<text xml:space="preserve" x="327.136" y="662.232" fill="black" font-size="18.7041" font-family="Helvetica">1.5</text>
<text xml:space="preserve" x="420.81" y="662.232" fill="black" font-size="18.7041" font-family="Helvetica">2</text>
<text xml:space="preserve" x="497.378" y="662.232" fill="black" font-size="18.7041" font-family="Helvetica">2.5</text>
<text xml:space="preserve" x="459.094" y="685.039" fill="black" font-size="18.7041" font-family="Helvetica"> (TeV)</text>
<text xml:space="preserve" x="455.021" y="678.523" fill="black" font-size="8.59073" font-family="Helvetica">1</text>
<text xml:space="preserve" x="451.763" y="671.192" fill="black" font-size="12.6361" font-family="Helvetica">j</text>
<text xml:space="preserve" x="451.763" y="695.629" fill="black" font-size="12.6361" font-family="Helvetica">T</text>
<text xml:space="preserve" x="441.173" y="685.039" fill="black" font-size="18.7041" font-family="Helvetica">p</text>
<path d="M85.5394,639.261v -568.232" fill="none" stroke="black"/>
<path d="M99.1457,639.261h -13.6063" fill="none" stroke="black"/>
<path d="M92.3425,627.897h -6.80315" fill="none" stroke="black"/>
<path d="M92.3425,616.532h -6.80315" fill="none" stroke="black"/>
<path d="M92.3425,605.167h -6.80315" fill="none" stroke="black"/>
<path d="M92.3425,593.803h -6.80315" fill="none" stroke="black"/>
<path d="M99.1457,582.438h -13.6063" fill="none" stroke="black"/>
<path d="M92.3425,571.074h -6.80315" fill="none" stroke="black"/>
<path d="M92.3425,559.709h -6.80315" fill="none" stroke="black"/>
<path d="M92.3425,548.344h -6.80315" fill="none" stroke="black"/>
<path d="M92.3425,536.98h -6.80315" fill="none" stroke="black"/>
<path d="M99.1457,525.615h -13.6063" fill="none" stroke="black"/>
<path d="M92.3425,514.25h -6.80315" fill="none" stroke="black"/>
<path d="M92.3425,502.886h -6.80315" fill="none" stroke="black"/>
<path d="M92.3425,491.521h -6.80315" fill="none" stroke="black"/>
<path d="M92.3425,480.156h -6.80315" fill="none" stroke="black"/>
<path d="M99.1457,468.792h -13.6063" fill="none" stroke="black"/>
<path d="M92.3425,457.427h -6.80315" fill="none" stroke="black"/>
<path d="M92.3425,446.062h -6.80315" fill="none" stroke="black"/>
<path d="M92.3425,434.698h -6.80315" fill="none" stroke="black"/>
<path d="M92.3425,423.333h -6.80315" fill="none" stroke="black"/>
<path d="M99.1457,411.968h -13.6063" fill="none" stroke="black"/>
<path d="M92.3425,400.604h -6.80315" fill="none" stroke="black"/>
<path d="M92.3425,389.239h -6.80315" fill="none" stroke="black"/>
<path d="M92.3425,377.875h -6.80315" fill="none" stroke="black"/>
<path d="M92.3425,366.51h -6.80315" fill="none" stroke="black"/>
<path d="M99.1457,355.145h -13.6063" fill="none" stroke="black"/>
<path d="M92.3425,343.781h -6.80315" fill="none" stroke="black"/>
<path d="M92.3425,332.416h -6.80315" fill="none" stroke="black"/>
<path d="M92.3425,321.051h -6.80315" fill="none" stroke="black"/>
<path d="M92.3425,309.687h -6.80315" fill="none" stroke="black"/>
<path d="M99.1457,298.322h -13.6063" fill="none" stroke="black"/>
<path d="M92.3425,286.957h -6.80315" fill="none" stroke="black"/>
<path d="M92.3425,275.593h -6.80315" fill="none" stroke="black"/>
<path d="M92.3425,264.228h -6.80315" fill="none" stroke="black"/>
<path d="M92.3425,252.863h -6.80315" fill="none" stroke="black"/>
<path d="M99.1457,241.499h -13.6063" fill="none" stroke="black"/>
<path d="M92.3425,230.134h -6.80315" fill="none" stroke="black"/>
<path d="M92.3425,218.769h -6.80315" fill="none" stroke="black"/>
<path d="M92.3425,207.405h -6.80315" fill="none" stroke="black"/>
<path d="M92.3425,196.04h -6.80315" fill="none" stroke="black"/>
<path d="M99.1457,184.676h -13.6063" fill="none" stroke="black"/>
<path d="M92.3425,173.311h -6.80315" fill="none" stroke="black"/>
<path d="M92.3425,161.946h -6.80315" fill="none" stroke="black"/>
<path d="M92.3425,150.582h -6.80315" fill="none" stroke="black"/>
<path d="M92.3425,139.217h -6.80315" fill="none" stroke="black"/>
<path d="M99.1457,127.852h -13.6063" fill="none" stroke="black"/>
<path d="M92.3425,116.488h -6.80315" fill="none" stroke="black"/>
<path d="M92.3425,105.123h -6.80315" fill="none" stroke="black"/>
<path d="M92.3425,93.7583h -6.80315" fill="none" stroke="black"/>
<path d="M92.3425,82.3937h -6.80315" fill="none" stroke="black"/>
<path d="M99.1457,71.029h -13.6063" fill="none" stroke="black"/>
<path d="M99.1457,71.029h -13.6063" fill="none" stroke="black"/>
<text xml:space="preserve" x="72.1807" y="645.941" fill="black" font-size="18.7041" font-family="Helvetica">0</text>
<text xml:space="preserve" x="24.9366" y="589.737" fill="black" font-size="18.7041" font-family="Helvetica">0.0005</text>
<text xml:space="preserve" x="38.784" y="532.718" fill="black" font-size="18.7041" font-family="Helvetica">0.001</text>
<text xml:space="preserve" x="24.9366" y="475.699" fill="black" font-size="18.7041" font-family="Helvetica">0.0015</text>
<text xml:space="preserve" x="35.5258" y="418.68" fill="black" font-size="18.7041" font-family="Helvetica">0.002</text>
<text xml:space="preserve" x="24.9366" y="362.476" fill="black" font-size="18.7041" font-family="Helvetica">0.0025</text>
<text xml:space="preserve" x="35.5258" y="305.457" fill="black" font-size="18.7041" font-family="Helvetica">0.003</text>
<text xml:space="preserve" x="24.9366" y="248.439" fill="black" font-size="18.7041" font-family="Helvetica">0.0035</text>
<text xml:space="preserve" x="35.5258" y="191.42" fill="black" font-size="18.7041" font-family="Helvetica">0.004</text>
<text xml:space="preserve" x="24.9366" y="134.401" fill="black" font-size="18.7041" font-family="Helvetica">0.0045</text>
<text xml:space="preserve" x="35.5258" y="78.1971" fill="black" font-size="18.7041" font-family="Helvetica">0.005</text>
<g transform="rotate(-90,15.162,159.652)">
<text xml:space="preserve" x="15.162" y="159.652" fill="black" font-size="18.7041" font-family="Helvetica">Events/Bin</text>
</g>
<text xml:space="preserve" x="283.965" y="35.5145" text-anchor="middle" fill="black" font-size="26.5059" font-family="Helvetica">jet1_pT WRWR</text>
<path d="M85.5394,639.261h 53.1496v -0.0953164h 10.6299v -0.0468983h 10.6299v -0.0694789h 10.6299v -0.0453784h 10.6299v -0.0204094h 10.6299v 0.0362593h 10.6299v 0.0334367h 10.6299v 0.0366936h 10.6299v 0.0251861h 10.6299v 0.0434243h 10.6299v
 0.0364764h 10.6299v 0.066005h 255.118" fill="none" stroke="#ffcc00" stroke-width="2"/>
<path d="M85.5394,637.496h 10.6299v -28.999h 10.6299v -74.8932h 10.6299v -122.048h 10.6299v -76.9105h 10.6299v -48.9201h 10.6299v -8.32147h 10.6299v 41.8595h 10.6299v 66.3196h 10.6299v 66.8239h 10.6299v 53.9634h 10.6299v 51.1896h 10.6299v 28.7469h
 10.6299v 24.9644h 10.6299v 18.6603h 10.6299v 6.55631h 10.6299v 0.756497h 10.6299v 0.756497h 10.6299v 0.252166h 10.6299v 0.504331h 10.6299v -0.504331h 10.6299v 0.756497h 21.2598v -0.252166h 10.6299v 0.252166h 42.5197v 0.252166h 127.559" fill="none"
 stroke="#99cc00" stroke-width="2"/>
<path d="M85.5394,639.261h 21.2598v -0.0741257h 10.6299v -0.146707h 10.6299v -0.0895685h 10.6299v -0.24863h 10.6299v -0.220833h 10.6299v -0.277971h 10.6299v -0.174504h 10.6299v -0.2162h 10.6299v -0.182226h 10.6299v -0.0725814h 10.6299v 0.17296h
 10.6299v 0.02162h 10.6299v 0.36754h 10.6299v 0.301136h 10.6299v 0.477184h 10.6299v 0.128176h 10.6299v 0.0710371h 10.6299v 0.106556h 10.6299v -0.00154429h 10.6299v 0.0586828h 201.969" fill="none" stroke="#999900" stroke-width="2"/>
<path d="M85.5394,639.261h 425.197" fill="none" stroke="#009900" stroke-width="2"/>
<path d="M85.5394,639.261h 10.6299v -0.139231h 10.6299v -0.445538h 10.6299v -1.16954h 10.6299v -1.25308h 10.6299v -2.06061h 10.6299v -2.50615h 10.6299v -3.13269h 10.6299v -1.78215h 10.6299v -0.849307h 10.6299v -1.04423h 10.6299v 0.153154h 10.6299v
 1.76823h 10.6299v 1.65684h 10.6299v 1.90746h 10.6299v 1.82392h 10.6299v 2.22769h 10.6299v 1.16954h 10.6299v 1.22523h 10.6299v 0.640461h 10.6299v 0.849307h 10.6299v 0.459461h 10.6299v 0.292384h 10.6299v 0.111384h 10.6299v 0.0974614h 170.079"
 fill="none" stroke="#00ffff" stroke-width="2"/>
<path d="M85.5394,639.261h 127.559v -0.0589421h 10.6299v -0.00417873h 10.6299v -0.003299h 10.6299v -0.0114365h 10.6299v -0.00318903h 10.6299v 0.00120963h 10.6299v 0.00252923h 10.6299v -0.00406876h 10.6299v 0.0127561h 10.6299v 0.00813753h 10.6299v
 0.0604816h 191.339" fill="none" stroke="#00ccff" stroke-width="2"/>
<rect x="227.272" y="71.0291" width="283.465" height="142.058" fill="white"/>
<path d="M227.272,213.087h 283.465" fill="none" stroke="black"/>
<path d="M510.736,213.087v -142.058" fill="none" stroke="black"/>
<path d="M510.736,71.0291h -283.465" fill="none" stroke="black"/>
<path d="M227.272,71.0291v 142.058" fill="none" stroke="black"/>
<text xml:space="preserve" x="457.464" y="85.5281" fill="black" font-size="13.8745" font-family="Helvetica"> = 1</text>
<text xml:space="preserve" x="449.319" y="92.0445" fill="black" font-size="6.44421" font-family="Helvetica">4,6</text>
<text xml:space="preserve" x="442.802" y="89.6009" fill="black" font-size="9.41632" font-family="Helvetica">N</text>
<text xml:space="preserve" x="389.042" y="85.5281" fill="black" font-size="13.8745" font-family="Helvetica"> = 1     M</text>
<text xml:space="preserve" x="385.784" y="92.0445" fill="black" font-size="6.44421" font-family="Helvetica">5</text>
<text xml:space="preserve" x="379.267" y="89.6009" fill="black" font-size="9.41632" font-family="Helvetica">N</text>
<text xml:space="preserve" x="321.434" y="85.5281" fill="black" font-size="13.8745" font-family="Helvetica"> = 1      M</text>
<text xml:space="preserve" x="317.361" y="92.8591" fill="black" font-size="6.44421" font-family="Helvetica">R</text>
<text xml:space="preserve" x="308.401" y="89.6009" fill="black" font-size="9.41632" font-family="Helvetica">W</text>
<text xml:space="preserve" x="297.812" y="85.5281" fill="black" font-size="13.8745" font-family="Helvetica">M</text>
<path d="M237.902,81.1761h 49.6063" fill="none" stroke="#ff0000" stroke-width="2"/>
<text xml:space="preserve" x="457.464" y="105.892" fill="black" font-size="13.8745" font-family="Helvetica"> = 2</text>
<text xml:space="preserve" x="449.319" y="112.408" fill="black" font-size="6.44421" font-family="Helvetica">4,6</text>
<text xml:space="preserve" x="442.802" y="109.965" fill="black" font-size="9.41632" font-family="Helvetica">N</text>
<text xml:space="preserve" x="389.042" y="105.892" fill="black" font-size="13.8745" font-family="Helvetica"> = 2     M</text>
<text xml:space="preserve" x="385.784" y="112.408" fill="black" font-size="6.44421" font-family="Helvetica">5</text>
<text xml:space="preserve" x="379.267" y="109.965" fill="black" font-size="9.41632" font-family="Helvetica">N</text>
<text xml:space="preserve" x="321.434" y="105.892" fill="black" font-size="13.8745" font-family="Helvetica"> = 1      M</text>
<text xml:space="preserve" x="317.361" y="113.223" fill="black" font-size="6.44421" font-family="Helvetica">R</text>
<text xml:space="preserve" x="308.401" y="109.965" fill="black" font-size="9.41632" font-family="Helvetica">W</text>
<text xml:space="preserve" x="297.812" y="105.892" fill="black" font-size="13.8745" font-family="Helvetica">M</text>
<path d="M237.902,101.47h 49.6063" fill="none" stroke="#ffcc00" stroke-width="2"/>
<text xml:space="preserve" x="457.464" y="126.256" fill="black" font-size="13.8745" font-family="Helvetica"> = 1</text>
<text xml:space="preserve" x="449.319" y="132.772" fill="black" font-size="6.44421" font-family="Helvetica">4,6</text>
<text xml:space="preserve" x="442.802" y="130.329" fill="black" font-size="9.41632" font-family="Helvetica">N</text>
<text xml:space="preserve" x="389.042" y="126.256" fill="black" font-size="13.8745" font-family="Helvetica"> = 1     M</text>
<text xml:space="preserve" x="385.784" y="132.772" fill="black" font-size="6.44421" font-family="Helvetica">5</text>
<text xml:space="preserve" x="379.267" y="130.329" fill="black" font-size="9.41632" font-family="Helvetica">N</text>
<text xml:space="preserve" x="321.434" y="126.256" fill="black" font-size="13.8745" font-family="Helvetica"> = 2      M</text>
<text xml:space="preserve" x="317.361" y="133.587" fill="black" font-size="6.44421" font-family="Helvetica">R</text>
<text xml:space="preserve" x="308.401" y="130.329" fill="black" font-size="9.41632" font-family="Helvetica">W</text>
<text xml:space="preserve" x="297.812" y="126.256" fill="black" font-size="13.8745" font-family="Helvetica">M</text>
<path d="M237.902,121.764h 49.6063" fill="none" stroke="#99cc00" stroke-width="2"/>
<text xml:space="preserve" x="457.464" y="146.62" fill="black" font-size="13.8745" font-family="Helvetica"> = 2</text>
<text xml:space="preserve" x="449.319" y="153.136" fill="black" font-size="6.44421" font-family="Helvetica">4,6</text>
<text xml:space="preserve" x="442.802" y="150.692" fill="black" font-size="9.41632" font-family="Helvetica">N</text>
<text xml:space="preserve" x="389.042" y="146.62" fill="black" font-size="13.8745" font-family="Helvetica"> = 2     M</text>
<text xml:space="preserve" x="385.784" y="153.136" fill="black" font-size="6.44421" font-family="Helvetica">5</text>
<text xml:space="preserve" x="379.267" y="150.692" fill="black" font-size="9.41632" font-family="Helvetica">N</text>
<text xml:space="preserve" x="321.434" y="146.62" fill="black" font-size="13.8745" font-family="Helvetica"> = 2      M</text>
<text xml:space="preserve" x="317.361" y="153.951" fill="black" font-size="6.44421" font-family="Helvetica">R</text>
<text xml:space="preserve" x="308.401" y="150.692" fill="black" font-size="9.41632" font-family="Helvetica">W</text>
<text xml:space="preserve" x="297.812" y="146.62" fill="black" font-size="13.8745" font-family="Helvetica">M</text>
<path d="M237.902,142.058h 49.6063" fill="none" stroke="#999900" stroke-width="2"/>
<text xml:space="preserve" x="457.464" y="166.169" fill="black" font-size="13.8745" font-family="Helvetica"> = 3</text>
<text xml:space="preserve" x="449.319" y="173.5" fill="black" font-size="6.44421" font-family="Helvetica">4,6</text>
<text xml:space="preserve" x="442.802" y="171.056" fill="black" font-size="9.41632" font-family="Helvetica">N</text>
<text xml:space="preserve" x="389.042" y="166.169" fill="black" font-size="13.8745" font-family="Helvetica"> = 3     M</text>
<text xml:space="preserve" x="385.784" y="172.685" fill="black" font-size="6.44421" font-family="Helvetica">5</text>
<text xml:space="preserve" x="379.267" y="170.242" fill="black" font-size="9.41632" font-family="Helvetica">N</text>
<text xml:space="preserve" x="321.434" y="166.169" fill="black" font-size="13.8745" font-family="Helvetica"> = 2      M</text>
<text xml:space="preserve" x="317.361" y="173.5" fill="black" font-size="6.44421" font-family="Helvetica">R</text>
<text xml:space="preserve" x="308.401" y="170.242" fill="black" font-size="9.41632" font-family="Helvetica">W</text>
<text xml:space="preserve" x="297.812" y="166.169" fill="black" font-size="13.8745" font-family="Helvetica">M</text>
<path d="M237.902,162.352h 49.6063" fill="none" stroke="#009900" stroke-width="2"/>
<text xml:space="preserve" x="457.464" y="186.533" fill="black" font-size="13.8745" font-family="Helvetica"> = 2</text>
<text xml:space="preserve" x="449.319" y="193.049" fill="black" font-size="6.44421" font-family="Helvetica">4,6</text>
<text xml:space="preserve" x="442.802" y="190.605" fill="black" font-size="9.41632" font-family="Helvetica">N</text>
<text xml:space="preserve" x="389.042" y="186.533" fill="black" font-size="13.8745" font-family="Helvetica"> = 2     M</text>
<text xml:space="preserve" x="385.784" y="193.864" fill="black" font-size="6.44421" font-family="Helvetica">5</text>
<text xml:space="preserve" x="379.267" y="191.42" fill="black" font-size="9.41632" font-family="Helvetica">N</text>
<text xml:space="preserve" x="321.434" y="186.533" fill="black" font-size="13.8745" font-family="Helvetica"> = 3      M</text>
<text xml:space="preserve" x="317.361" y="193.864" fill="black" font-size="6.44421" font-family="Helvetica">R</text>
<text xml:space="preserve" x="308.401" y="190.605" fill="black" font-size="9.41632" font-family="Helvetica">W</text>
<text xml:space="preserve" x="297.812" y="186.533" fill="black" font-size="13.8745" font-family="Helvetica">M</text>
<path d="M237.902,182.646h 49.6063" fill="none" stroke="#00ffff" stroke-width="2"/>
<text xml:space="preserve" x="457.464" y="206.897" fill="black" font-size="13.8745" font-family="Helvetica"> = 3</text>
<text xml:space="preserve" x="449.319" y="214.228" fill="black" font-size="6.44421" font-family="Helvetica">4,6</text>
<text xml:space="preserve" x="442.802" y="211.784" fill="black" font-size="9.41632" font-family="Helvetica">N</text>
<text xml:space="preserve" x="389.042" y="206.897" fill="black" font-size="13.8745" font-family="Helvetica"> = 3     M</text>
<text xml:space="preserve" x="385.784" y="214.228" fill="black" font-size="6.44421" font-family="Helvetica">5</text>
<text xml:space="preserve" x="379.267" y="211.784" fill="black" font-size="9.41632" font-family="Helvetica">N</text>
<text xml:space="preserve" x="321.434" y="206.897" fill="black" font-size="13.8745" font-family="Helvetica"> = 3      M</text>
<text xml:space="preserve" x="317.361" y="214.228" fill="black" font-size="6.44421" font-family="Helvetica">R</text>
<text xml:space="preserve" x="308.401" y="210.969" fill="black" font-size="9.41632" font-family="Helvetica">W</text>
<text xml:space="preserve" x="297.812" y="206.897" fill="black" font-size="13.8745" font-family="Helvetica">M</text>
<path d="M237.902,202.94h 49.6063" fill="none" stroke="#00ccff" stroke-width="2"/></svg>
