<?xml version="1.0" standalone="no"?>
<svg width="567.429" height="712.004" viewBox="0 0 567.429 712.004" xmlns="http://www.w3.org/2000/svg" shape-rendering="crispEdges">
<title>
../plots/weighted/jet2_PT_WRWR_plot.svg
</title>
<desc>
Creator: ROOT Version 6.22/00
CreationDate: Fri Oct 30 11:54:42 2020</desc>
<defs>
</defs>
<rect x="0.5" y="0" width="566.929" height="711.504" fill="white"/>
<rect x="85.5394" y="71.1504" width="425.197" height="569.203" fill="white"/>
<rect x="85.5394" y="71.1504" width="425.197" height="569.203" fill="none" stroke="black"/>
<rect x="85.5394" y="71.1504" width="425.197" height="569.203" fill="white"/>
<rect x="85.5394" y="71.1504" width="425.197" height="569.203" fill="none" stroke="black"/>
<path d="M85.5394,637.508h 10.6299v -17.4131h 10.6299v -21.9685h 10.6299v -22.7489h 10.6299v -20.1617h 10.6299v -28.5773h 10.6299v -16.8714h 10.6299v -3.72048h 10.6299v -6.34922h 10.6299v -1.2907h 10.6299v 5.39189h 10.6299v 15.0247h 10.6299v 26.2123h
 10.6299v 21.6997h 10.6299v 17.5935h 10.6299v 17.3074h 10.6299v 15.1597h 10.6299v 5.92445h 10.6299v 6.03293h 10.6299v 1.42973h 10.6299v 5.3677h 10.6299v 1.33086h 10.6299v 2.13739h 10.6299v 0.0023252h 10.6299v 0.724289h 10.6299v -0.310225h 10.6299v
 0.471589h 10.6299v 0.297317h 10.6299v -0.150968h 10.6299v 0.300301h 10.6299v -0.305691h 10.6299v 0.142283h 10.6299v 0.163408h 21.2598v -0.152737h 10.6299v 0.152737h 31.8898v -0.150938h 10.6299v 0.150938h 10.6299" fill="none" stroke="#0000ff"
 stroke-width="2"/>
<path d="M85.5394,640.354h 425.197" fill="none" stroke="black"/>
<path d="M85.5394,624.345v 16.0088" fill="none" stroke="black"/>
<path d="M100.725,632.349v 8.00442" fill="none" stroke="black"/>
<path d="M115.911,632.349v 8.00442" fill="none" stroke="black"/>
<path d="M131.096,632.349v 8.00442" fill="none" stroke="black"/>
<path d="M146.282,624.345v 16.0088" fill="none" stroke="black"/>
<path d="M161.467,632.349v 8.00442" fill="none" stroke="black"/>
<path d="M176.653,632.349v 8.00442" fill="none" stroke="black"/>
<path d="M191.839,632.349v 8.00442" fill="none" stroke="black"/>
<path d="M207.024,624.345v 16.0088" fill="none" stroke="black"/>
<path d="M222.21,632.349v 8.00442" fill="none" stroke="black"/>
<path d="M237.395,632.349v 8.00442" fill="none" stroke="black"/>
<path d="M252.581,632.349v 8.00442" fill="none" stroke="black"/>
<path d="M267.767,624.345v 16.0088" fill="none" stroke="black"/>
<path d="M282.952,632.349v 8.00442" fill="none" stroke="black"/>
<path d="M298.138,632.349v 8.00442" fill="none" stroke="black"/>
<path d="M313.323,632.349v 8.00442" fill="none" stroke="black"/>
<path d="M328.509,624.345v 16.0088" fill="none" stroke="black"/>
<path d="M343.695,632.349v 8.00442" fill="none" stroke="black"/>
<path d="M358.88,632.349v 8.00442" fill="none" stroke="black"/>
<path d="M374.066,632.349v 8.00442" fill="none" stroke="black"/>
<path d="M389.251,624.345v 16.0088" fill="none" stroke="black"/>
<path d="M404.437,632.349v 8.00442" fill="none" stroke="black"/>
<path d="M419.623,632.349v 8.00442" fill="none" stroke="black"/>
<path d="M434.808,632.349v 8.00442" fill="none" stroke="black"/>
<path d="M449.994,624.345v 16.0088" fill="none" stroke="black"/>
<path d="M465.179,632.349v 8.00442" fill="none" stroke="black"/>
<path d="M480.365,632.349v 8.00442" fill="none" stroke="black"/>
<path d="M495.551,632.349v 8.00442" fill="none" stroke="black"/>
<path d="M510.736,624.345v 16.0088" fill="none" stroke="black"/>
<path d="M510.736,624.345v 16.0088" fill="none" stroke="black"/>
<text xml:space="preserve" x="80.0975" y="663.583" fill="black" font-size="18.7041" font-family="Helvetica">0</text>
<text xml:space="preserve" x="132.892" y="663.583" fill="black" font-size="18.7041" font-family="Helvetica">0.2</text>
<text xml:space="preserve" x="193.808" y="663.583" fill="black" font-size="18.7041" font-family="Helvetica">0.4</text>
<text xml:space="preserve" x="254.725" y="663.583" fill="black" font-size="18.7041" font-family="Helvetica">0.6</text>
<text xml:space="preserve" x="314.829" y="663.583" fill="black" font-size="18.7041" font-family="Helvetica">0.8</text>
<text xml:space="preserve" x="385.492" y="663.583" fill="black" font-size="18.7041" font-family="Helvetica">1</text>
<text xml:space="preserve" x="436.662" y="663.583" fill="black" font-size="18.7041" font-family="Helvetica">1.2</text>
<text xml:space="preserve" x="497.578" y="663.583" fill="black" font-size="18.7041" font-family="Helvetica">1.4</text>
<text xml:space="preserve" x="459.404" y="686.325" fill="black" font-size="18.7041" font-family="Helvetica"> (TeV)</text>
<text xml:space="preserve" x="454.531" y="679.828" fill="black" font-size="8.59073" font-family="Helvetica">2</text>
<text xml:space="preserve" x="451.282" y="672.518" fill="black" font-size="12.6361" font-family="Helvetica">j</text>
<text xml:space="preserve" x="451.282" y="696.884" fill="black" font-size="12.6361" font-family="Helvetica">T</text>
<text xml:space="preserve" x="440.723" y="686.325" fill="black" font-size="18.7041" font-family="Helvetica">p</text>
<path d="M85.5394,640.354v -569.203" fill="none" stroke="black"/>
<path d="M99.1457,640.354h -13.6063" fill="none" stroke="black"/>
<path d="M92.3425,628.97h -6.80315" fill="none" stroke="black"/>
<path d="M92.3425,617.586h -6.80315" fill="none" stroke="black"/>
<path d="M92.3425,606.202h -6.80315" fill="none" stroke="black"/>
<path d="M92.3425,594.818h -6.80315" fill="none" stroke="black"/>
<path d="M99.1457,583.433h -13.6063" fill="none" stroke="black"/>
<path d="M92.3425,572.049h -6.80315" fill="none" stroke="black"/>
<path d="M92.3425,560.665h -6.80315" fill="none" stroke="black"/>
<path d="M92.3425,549.281h -6.80315" fill="none" stroke="black"/>
<path d="M92.3425,537.897h -6.80315" fill="none" stroke="black"/>
<path d="M99.1457,526.513h -13.6063" fill="none" stroke="black"/>
<path d="M92.3425,515.129h -6.80315" fill="none" stroke="black"/>
<path d="M92.3425,503.745h -6.80315" fill="none" stroke="black"/>
<path d="M92.3425,492.361h -6.80315" fill="none" stroke="black"/>
<path d="M92.3425,480.977h -6.80315" fill="none" stroke="black"/>
<path d="M99.1457,469.593h -13.6063" fill="none" stroke="black"/>
<path d="M92.3425,458.209h -6.80315" fill="none" stroke="black"/>
<path d="M92.3425,446.825h -6.80315" fill="none" stroke="black"/>
<path d="M92.3425,435.441h -6.80315" fill="none" stroke="black"/>
<path d="M92.3425,424.056h -6.80315" fill="none" stroke="black"/>
<path d="M99.1457,412.672h -13.6063" fill="none" stroke="black"/>
<path d="M92.3425,401.288h -6.80315" fill="none" stroke="black"/>
<path d="M92.3425,389.904h -6.80315" fill="none" stroke="black"/>
<path d="M92.3425,378.52h -6.80315" fill="none" stroke="black"/>
<path d="M92.3425,367.136h -6.80315" fill="none" stroke="black"/>
<path d="M99.1457,355.752h -13.6063" fill="none" stroke="black"/>
<path d="M92.3425,344.368h -6.80315" fill="none" stroke="black"/>
<path d="M92.3425,332.984h -6.80315" fill="none" stroke="black"/>
<path d="M92.3425,321.6h -6.80315" fill="none" stroke="black"/>
<path d="M92.3425,310.216h -6.80315" fill="none" stroke="black"/>
<path d="M99.1457,298.832h -13.6063" fill="none" stroke="black"/>
<path d="M92.3425,287.448h -6.80315" fill="none" stroke="black"/>
<path d="M92.3425,276.064h -6.80315" fill="none" stroke="black"/>
<path d="M92.3425,264.68h -6.80315" fill="none" stroke="black"/>
<path d="M92.3425,253.295h -6.80315" fill="none" stroke="black"/>
<path d="M99.1457,241.911h -13.6063" fill="none" stroke="black"/>
<path d="M92.3425,230.527h -6.80315" fill="none" stroke="black"/>
<path d="M92.3425,219.143h -6.80315" fill="none" stroke="black"/>
<path d="M92.3425,207.759h -6.80315" fill="none" stroke="black"/>
<path d="M92.3425,196.375h -6.80315" fill="none" stroke="black"/>
<path d="M99.1457,184.991h -13.6063" fill="none" stroke="black"/>
<path d="M92.3425,173.607h -6.80315" fill="none" stroke="black"/>
<path d="M92.3425,162.223h -6.80315" fill="none" stroke="black"/>
<path d="M92.3425,150.839h -6.80315" fill="none" stroke="black"/>
<path d="M92.3425,139.455h -6.80315" fill="none" stroke="black"/>
<path d="M99.1457,128.071h -13.6063" fill="none" stroke="black"/>
<path d="M92.3425,116.687h -6.80315" fill="none" stroke="black"/>
<path d="M92.3425,105.303h -6.80315" fill="none" stroke="black"/>
<path d="M92.3425,93.9185h -6.80315" fill="none" stroke="black"/>
<path d="M92.3425,82.5345h -6.80315" fill="none" stroke="black"/>
<path d="M99.1457,71.1504h -13.6063" fill="none" stroke="black"/>
<path d="M99.1457,71.1504h -13.6063" fill="none" stroke="black"/>
<text xml:space="preserve" x="72.7875" y="647.339" fill="black" font-size="18.7041" font-family="Helvetica">0</text>
<text xml:space="preserve" x="50.0454" y="590.484" fill="black" font-size="18.7041" font-family="Helvetica">0.01</text>
<text xml:space="preserve" x="46.7965" y="533.628" fill="black" font-size="18.7041" font-family="Helvetica">0.02</text>
<text xml:space="preserve" x="46.7965" y="476.773" fill="black" font-size="18.7041" font-family="Helvetica">0.03</text>
<text xml:space="preserve" x="46.7965" y="419.917" fill="black" font-size="18.7041" font-family="Helvetica">0.04</text>
<text xml:space="preserve" x="46.7965" y="363.062" fill="black" font-size="18.7041" font-family="Helvetica">0.05</text>
<text xml:space="preserve" x="46.7965" y="305.395" fill="black" font-size="18.7041" font-family="Helvetica">0.06</text>
<text xml:space="preserve" x="46.7965" y="248.539" fill="black" font-size="18.7041" font-family="Helvetica">0.07</text>
<text xml:space="preserve" x="46.7965" y="191.684" fill="black" font-size="18.7041" font-family="Helvetica">0.08</text>
<text xml:space="preserve" x="46.7965" y="134.828" fill="black" font-size="18.7041" font-family="Helvetica">0.09</text>
<text xml:space="preserve" x="59.792" y="77.9731" fill="black" font-size="18.7041" font-family="Helvetica">0.1</text>
<text xml:space="preserve" x="122.333" y="58.4798" fill="black" font-size="12.6361" font-family="Helvetica">3</text>
<text xml:space="preserve" x="115.835" y="58.4798" fill="black" font-size="12.6361" font-family="Times">&#8722;</text>
<text xml:space="preserve" x="95.5297" y="68.2264" fill="black" font-size="18.7041" font-family="Helvetica">10</text>
<text xml:space="preserve" x="84.9708" y="68.2264" fill="black" font-size="18.7041" font-family="Times">&#0215;</text>
<g transform="rotate(-90,36.2377,159.195)">
<text xml:space="preserve" x="36.2377" y="159.195" fill="black" font-size="18.7041" font-family="Helvetica">Events/Bin</text>
</g>
<text xml:space="preserve" x="283.965" y="35.5752" text-anchor="middle" fill="black" font-size="26.5059" font-family="Helvetica">jet2_pT WRWR</text>
<path d="M85.5394,637.508h 10.6299v -17.4131h 10.6299v -21.9685h 10.6299v -22.7489h 10.6299v -20.1617h 10.6299v -28.5773h 10.6299v -16.8714h 10.6299v -3.72048h 10.6299v -6.34922h 10.6299v -1.2907h 10.6299v 5.39189h 10.6299v 15.0247h 10.6299v 26.2123h
 10.6299v 21.6997h 10.6299v 17.5935h 10.6299v 17.3074h 10.6299v 15.1597h 10.6299v 5.92445h 10.6299v 6.03293h 10.6299v 1.42973h 10.6299v 5.3677h 10.6299v 1.33086h 10.6299v 2.13739h 10.6299v 0.0023252h 10.6299v 0.724289h 10.6299v -0.310225h 10.6299v
 0.471589h 10.6299v 0.297317h 10.6299v -0.150968h 10.6299v 0.300301h 10.6299v -0.305691h 10.6299v 0.142283h 10.6299v 0.163408h 21.2598v -0.152737h 10.6299v 0.152737h 31.8898v -0.150938h 10.6299v 0.150938h 10.6299" fill="none" stroke="#33cc66"
 stroke-width="2"/>
<rect x="283.965" y="71.1504" width="226.772" height="142.301" fill="white"/>
<path d="M283.965,213.451h 226.772" fill="none" stroke="black"/>
<path d="M510.736,213.451v -142.301" fill="none" stroke="black"/>
<path d="M510.736,71.1504h -226.772" fill="none" stroke="black"/>
<path d="M283.965,71.1504v 142.301" fill="none" stroke="black"/>
<text xml:space="preserve" x="444.784" y="107.213" fill="black" font-size="7.87132" font-family="Helvetica"> = 2 TeV</text>
<text xml:space="preserve" x="441.535" y="111.274" fill="black" font-size="3.77614" font-family="Helvetica"> 6</text>
<text xml:space="preserve" x="436.662" y="109.65" fill="black" font-size="5.41422" font-family="Helvetica"> N</text>
<text xml:space="preserve" x="422.042" y="107.213" fill="black" font-size="7.87132" font-family="Helvetica"> = M</text>
<text xml:space="preserve" x="418.793" y="111.274" fill="black" font-size="3.77614" font-family="Helvetica"> 5</text>
<text xml:space="preserve" x="413.92" y="109.65" fill="black" font-size="5.41422" font-family="Helvetica"> N</text>
<text xml:space="preserve" x="399.3" y="107.213" fill="black" font-size="7.87132" font-family="Helvetica"> = M</text>
<text xml:space="preserve" x="396.051" y="112.086" fill="black" font-size="3.77614" font-family="Helvetica"> 4</text>
<text xml:space="preserve" x="391.178" y="110.462" fill="black" font-size="5.41422" font-family="Helvetica"> N</text>
<text xml:space="preserve" x="353.003" y="107.213" fill="black" font-size="7.87132" font-family="Helvetica"> = 1 TeV  M</text>
<text xml:space="preserve" x="350.567" y="111.274" fill="black" font-size="3.77614" font-family="Helvetica">R</text>
<text xml:space="preserve" x="345.693" y="109.65" fill="black" font-size="5.41422" font-family="Helvetica">W</text>
<text xml:space="preserve" x="340.008" y="107.213" fill="black" font-size="7.87132" font-family="Helvetica">M</text>
<path d="M292.469,106.726h 39.685" fill="none" stroke="#0000ff" stroke-width="2"/>
<text xml:space="preserve" x="469.963" y="178.688" fill="black" font-size="7.87132" font-family="Helvetica"> = 10 TeV</text>
<text xml:space="preserve" x="466.714" y="181.937" fill="black" font-size="3.77614" font-family="Helvetica"> 6</text>
<text xml:space="preserve" x="461.841" y="181.125" fill="black" font-size="5.41422" font-family="Helvetica"> N</text>
<text xml:space="preserve" x="447.221" y="178.688" fill="black" font-size="7.87132" font-family="Helvetica"> = M</text>
<text xml:space="preserve" x="443.972" y="182.749" fill="black" font-size="3.77614" font-family="Helvetica"> 5</text>
<text xml:space="preserve" x="439.098" y="181.937" fill="black" font-size="5.41422" font-family="Helvetica"> N</text>
<text xml:space="preserve" x="403.361" y="178.688" fill="black" font-size="7.87132" font-family="Helvetica"> = 2 TeV M</text>
<text xml:space="preserve" x="400.112" y="182.749" fill="black" font-size="3.77614" font-family="Helvetica"> 4</text>
<text xml:space="preserve" x="395.239" y="181.937" fill="black" font-size="5.41422" font-family="Helvetica"> N</text>
<text xml:space="preserve" x="353.003" y="178.688" fill="black" font-size="7.87132" font-family="Helvetica"> = 1 TeV    M</text>
<text xml:space="preserve" x="350.567" y="181.937" fill="black" font-size="3.77614" font-family="Helvetica">R</text>
<text xml:space="preserve" x="345.693" y="181.125" fill="black" font-size="5.41422" font-family="Helvetica">W</text>
<text xml:space="preserve" x="340.008" y="178.688" fill="black" font-size="7.87132" font-family="Helvetica">M</text>
<path d="M292.469,177.876h 39.685" fill="none" stroke="#33cc66" stroke-width="2"/></svg>
