<?xml version="1.0" standalone="no"?>
<svg width="567.429" height="710.791" viewBox="0 0 567.429 710.791" xmlns="http://www.w3.org/2000/svg" shape-rendering="crispEdges">
<title>
../plots/weighted/jet2_PT_WRWR_plot.svg
</title>
<desc>
Creator: ROOT Version 6.22/00
CreationDate: Sun Nov 15 16:01:36 2020</desc>
<defs>
</defs>
<rect x="0.5" y="0" width="566.929" height="710.291" fill="white"/>
<rect x="85.5394" y="71.0291" width="425.197" height="568.232" fill="white"/>
<rect x="85.5394" y="71.0291" width="425.197" height="568.232" fill="none" stroke="black"/>
<rect x="85.5394" y="71.0291" width="425.197" height="568.232" fill="white"/>
<rect x="85.5394" y="71.0291" width="425.197" height="568.232" fill="none" stroke="black"/>
<path d="M85.5394,637.661h 10.6299v -7.07034h 10.6299v -9.98446h 10.6299v -6.52095h 10.6299v -2.89024h 10.6299v -0.525498h 10.6299v 2.17365h 10.6299v 1.93479h 10.6299v 2.9619h 10.6299v 3.94124h 10.6299v 5.42218h 10.6299v 3.32019h 10.6299v 4.25176h
 10.6299v 3.03356h 10.6299v 0.716588h 10.6299v 0.501612h 21.2598v 0.214976h 10.6299v 0.0477725h 31.8898v 0.0716588h 10.6299v -0.0477725h 10.6299v -0.0238863h 10.6299v 0.0716588h 10.6299v -0.0238863h 10.6299v 0.0238863h 10.6299v -0.0477725h 10.6299v
 0.0477725h 21.2598v -0.0477725h 10.6299v 0.0477725h 95.6693" fill="none" stroke="#ff0000" stroke-width="2"/>
<path d="M85.5394,639.261h 425.197" fill="none" stroke="black"/>
<path d="M85.5394,623.28v 15.9815" fill="none" stroke="black"/>
<path d="M100.725,631.271v 7.99077" fill="none" stroke="black"/>
<path d="M115.911,631.271v 7.99077" fill="none" stroke="black"/>
<path d="M131.096,631.271v 7.99077" fill="none" stroke="black"/>
<path d="M146.282,623.28v 15.9815" fill="none" stroke="black"/>
<path d="M161.467,631.271v 7.99077" fill="none" stroke="black"/>
<path d="M176.653,631.271v 7.99077" fill="none" stroke="black"/>
<path d="M191.839,631.271v 7.99077" fill="none" stroke="black"/>
<path d="M207.024,623.28v 15.9815" fill="none" stroke="black"/>
<path d="M222.21,631.271v 7.99077" fill="none" stroke="black"/>
<path d="M237.395,631.271v 7.99077" fill="none" stroke="black"/>
<path d="M252.581,631.271v 7.99077" fill="none" stroke="black"/>
<path d="M267.767,623.28v 15.9815" fill="none" stroke="black"/>
<path d="M282.952,631.271v 7.99077" fill="none" stroke="black"/>
<path d="M298.138,631.271v 7.99077" fill="none" stroke="black"/>
<path d="M313.323,631.271v 7.99077" fill="none" stroke="black"/>
<path d="M328.509,623.28v 15.9815" fill="none" stroke="black"/>
<path d="M343.695,631.271v 7.99077" fill="none" stroke="black"/>
<path d="M358.88,631.271v 7.99077" fill="none" stroke="black"/>
<path d="M374.066,631.271v 7.99077" fill="none" stroke="black"/>
<path d="M389.251,623.28v 15.9815" fill="none" stroke="black"/>
<path d="M404.437,631.271v 7.99077" fill="none" stroke="black"/>
<path d="M419.623,631.271v 7.99077" fill="none" stroke="black"/>
<path d="M434.808,631.271v 7.99077" fill="none" stroke="black"/>
<path d="M449.994,623.28v 15.9815" fill="none" stroke="black"/>
<path d="M465.179,631.271v 7.99077" fill="none" stroke="black"/>
<path d="M480.365,631.271v 7.99077" fill="none" stroke="black"/>
<path d="M495.551,631.271v 7.99077" fill="none" stroke="black"/>
<path d="M510.736,623.28v 15.9815" fill="none" stroke="black"/>
<path d="M510.736,623.28v 15.9815" fill="none" stroke="black"/>
<text xml:space="preserve" x="80.3262" y="662.232" fill="black" font-size="18.7041" font-family="Helvetica">0</text>
<text xml:space="preserve" x="132.458" y="662.232" fill="black" font-size="18.7041" font-family="Helvetica">0.2</text>
<text xml:space="preserve" x="193.549" y="662.232" fill="black" font-size="18.7041" font-family="Helvetica">0.4</text>
<text xml:space="preserve" x="254.641" y="662.232" fill="black" font-size="18.7041" font-family="Helvetica">0.6</text>
<text xml:space="preserve" x="314.918" y="662.232" fill="black" font-size="18.7041" font-family="Helvetica">0.8</text>
<text xml:space="preserve" x="385.784" y="662.232" fill="black" font-size="18.7041" font-family="Helvetica">1</text>
<text xml:space="preserve" x="436.286" y="662.232" fill="black" font-size="18.7041" font-family="Helvetica">1.2</text>
<text xml:space="preserve" x="497.378" y="662.232" fill="black" font-size="18.7041" font-family="Helvetica">1.4</text>
<text xml:space="preserve" x="459.094" y="685.039" fill="black" font-size="18.7041" font-family="Helvetica"> (TeV)</text>
<text xml:space="preserve" x="454.206" y="678.523" fill="black" font-size="8.59073" font-family="Helvetica">2</text>
<text xml:space="preserve" x="450.948" y="671.192" fill="black" font-size="12.6361" font-family="Helvetica">j</text>
<text xml:space="preserve" x="450.948" y="695.629" fill="black" font-size="12.6361" font-family="Helvetica">T</text>
<text xml:space="preserve" x="440.359" y="685.039" fill="black" font-size="18.7041" font-family="Helvetica">p</text>
<path d="M85.5394,639.261v -568.232" fill="none" stroke="black"/>
<path d="M99.1457,639.261h -13.6063" fill="none" stroke="black"/>
<path d="M92.3425,627.897h -6.80315" fill="none" stroke="black"/>
<path d="M92.3425,616.532h -6.80315" fill="none" stroke="black"/>
<path d="M92.3425,605.167h -6.80315" fill="none" stroke="black"/>
<path d="M92.3425,593.803h -6.80315" fill="none" stroke="black"/>
<path d="M99.1457,582.438h -13.6063" fill="none" stroke="black"/>
<path d="M92.3425,571.074h -6.80315" fill="none" stroke="black"/>
<path d="M92.3425,559.709h -6.80315" fill="none" stroke="black"/>
<path d="M92.3425,548.344h -6.80315" fill="none" stroke="black"/>
<path d="M92.3425,536.98h -6.80315" fill="none" stroke="black"/>
<path d="M99.1457,525.615h -13.6063" fill="none" stroke="black"/>
<path d="M92.3425,514.25h -6.80315" fill="none" stroke="black"/>
<path d="M92.3425,502.886h -6.80315" fill="none" stroke="black"/>
<path d="M92.3425,491.521h -6.80315" fill="none" stroke="black"/>
<path d="M92.3425,480.156h -6.80315" fill="none" stroke="black"/>
<path d="M99.1457,468.792h -13.6063" fill="none" stroke="black"/>
<path d="M92.3425,457.427h -6.80315" fill="none" stroke="black"/>
<path d="M92.3425,446.062h -6.80315" fill="none" stroke="black"/>
<path d="M92.3425,434.698h -6.80315" fill="none" stroke="black"/>
<path d="M92.3425,423.333h -6.80315" fill="none" stroke="black"/>
<path d="M99.1457,411.968h -13.6063" fill="none" stroke="black"/>
<path d="M92.3425,400.604h -6.80315" fill="none" stroke="black"/>
<path d="M92.3425,389.239h -6.80315" fill="none" stroke="black"/>
<path d="M92.3425,377.875h -6.80315" fill="none" stroke="black"/>
<path d="M92.3425,366.51h -6.80315" fill="none" stroke="black"/>
<path d="M99.1457,355.145h -13.6063" fill="none" stroke="black"/>
<path d="M92.3425,343.781h -6.80315" fill="none" stroke="black"/>
<path d="M92.3425,332.416h -6.80315" fill="none" stroke="black"/>
<path d="M92.3425,321.051h -6.80315" fill="none" stroke="black"/>
<path d="M92.3425,309.687h -6.80315" fill="none" stroke="black"/>
<path d="M99.1457,298.322h -13.6063" fill="none" stroke="black"/>
<path d="M92.3425,286.957h -6.80315" fill="none" stroke="black"/>
<path d="M92.3425,275.593h -6.80315" fill="none" stroke="black"/>
<path d="M92.3425,264.228h -6.80315" fill="none" stroke="black"/>
<path d="M92.3425,252.863h -6.80315" fill="none" stroke="black"/>
<path d="M99.1457,241.499h -13.6063" fill="none" stroke="black"/>
<path d="M92.3425,230.134h -6.80315" fill="none" stroke="black"/>
<path d="M92.3425,218.769h -6.80315" fill="none" stroke="black"/>
<path d="M92.3425,207.405h -6.80315" fill="none" stroke="black"/>
<path d="M92.3425,196.04h -6.80315" fill="none" stroke="black"/>
<path d="M99.1457,184.676h -13.6063" fill="none" stroke="black"/>
<path d="M92.3425,173.311h -6.80315" fill="none" stroke="black"/>
<path d="M92.3425,161.946h -6.80315" fill="none" stroke="black"/>
<path d="M92.3425,150.582h -6.80315" fill="none" stroke="black"/>
<path d="M92.3425,139.217h -6.80315" fill="none" stroke="black"/>
<path d="M99.1457,127.852h -13.6063" fill="none" stroke="black"/>
<path d="M92.3425,116.488h -6.80315" fill="none" stroke="black"/>
<path d="M92.3425,105.123h -6.80315" fill="none" stroke="black"/>
<path d="M92.3425,93.7583h -6.80315" fill="none" stroke="black"/>
<path d="M92.3425,82.3937h -6.80315" fill="none" stroke="black"/>
<path d="M99.1457,71.029h -13.6063" fill="none" stroke="black"/>
<path d="M99.1457,71.029h -13.6063" fill="none" stroke="black"/>
<text xml:space="preserve" x="72.1807" y="645.941" fill="black" font-size="18.7041" font-family="Helvetica">0</text>
<text xml:space="preserve" x="38.784" y="589.737" fill="black" font-size="18.7041" font-family="Helvetica">0.001</text>
<text xml:space="preserve" x="35.5258" y="532.718" fill="black" font-size="18.7041" font-family="Helvetica">0.002</text>
<text xml:space="preserve" x="35.5258" y="475.699" fill="black" font-size="18.7041" font-family="Helvetica">0.003</text>
<text xml:space="preserve" x="35.5258" y="418.68" fill="black" font-size="18.7041" font-family="Helvetica">0.004</text>
<text xml:space="preserve" x="35.5258" y="362.476" fill="black" font-size="18.7041" font-family="Helvetica">0.005</text>
<text xml:space="preserve" x="35.5258" y="305.457" fill="black" font-size="18.7041" font-family="Helvetica">0.006</text>
<text xml:space="preserve" x="35.5258" y="248.439" fill="black" font-size="18.7041" font-family="Helvetica">0.007</text>
<text xml:space="preserve" x="35.5258" y="191.42" fill="black" font-size="18.7041" font-family="Helvetica">0.008</text>
<text xml:space="preserve" x="35.5258" y="134.401" fill="black" font-size="18.7041" font-family="Helvetica">0.009</text>
<text xml:space="preserve" x="49.3732" y="78.1971" fill="black" font-size="18.7041" font-family="Helvetica">0.01</text>
<g transform="rotate(-90,25.7512,159.652)">
<text xml:space="preserve" x="25.7512" y="159.652" fill="black" font-size="18.7041" font-family="Helvetica">Events/Bin</text>
</g>
<text xml:space="preserve" x="283.965" y="35.5145" text-anchor="middle" fill="black" font-size="26.5059" font-family="Helvetica">jet2_pT WRWR</text>
<path d="M85.5394,639.261h 42.5197v -0.0649194h 10.6299v -0.0105304h 10.6299v -0.0195409h 10.6299v -0.0142215h 10.6299v 0.00227978h 10.6299v 0.0111818h 10.6299v 0.00694789h 10.6299v 0.00694789h 10.6299v 0.00835918h 10.6299v 0.0131359h 10.6299v
 0.0603598h 276.378" fill="none" stroke="#ffcc00" stroke-width="2"/>
<path d="M85.5394,627.788h 10.6299v -56.6112h 10.6299v -57.2416h 10.6299v -32.9076h 10.6299v -4.66506h 10.6299v -9.70838h 10.6299v 31.7729h 10.6299v 18.5342h 10.6299v 29.6295h 10.6299v 30.1338h 10.6299v 17.9038h 10.6299v 13.6169h 10.6299v 15.0039h
 10.6299v 8.19538h 10.6299v 1.38691h 10.6299v 3.90857h 10.6299v 1.26083h 10.6299v 0.126083h 10.6299v 0.378248h 10.6299v 0.252166h 10.6299v 0.252166h 21.2598v -0.126083h 21.2598v 0.126083h 10.6299v 0.252166h 10.6299v -0.126083h 10.6299v 0.126083h
 53.1496v -0.126083h 10.6299v 0.126083h 74.4094" fill="none" stroke="#99cc00" stroke-width="2"/>
<path d="M85.5394,639.261h 10.6299v -0.0718093h 10.6299v -0.0579107h 10.6299v -0.081075h 10.6299v -0.0656321h 10.6299v -0.048645h 10.6299v -0.0710371h 10.6299v 0.00849357h 10.6299v -0.037835h 10.6299v -0.0123543h 10.6299v -0.0579107h 10.6299v
 0.0424678h 10.6299v 0.02162h 10.6299v -0.0185314h 10.6299v 0.0679485h 21.2598v 0.0154429h 10.6299v 0.0517336h 10.6299v 0.0193036h 10.6299v 0.0169871h 10.6299v 0.0293414h 10.6299v 0.03243h 10.6299v 0.0355186h 10.6299v 0.0532778h 10.6299v 0.0247086h
 10.6299v 0.0409236h 10.6299v 0.0625435h 148.819" fill="none" stroke="#999900" stroke-width="2"/>
<path d="M85.5394,639.261h 425.197" fill="none" stroke="#009900" stroke-width="2"/>
<path d="M85.5394,639.101h 10.6299v -0.758807h 10.6299v -0.995499h 10.6299v -0.828422h 10.6299v -0.744884h 10.6299v -0.925883h 10.6299v -0.459461h 10.6299v -0.487307h 10.6299v 0.257577h 10.6299v 0.22973h 10.6299v -0.313269h 10.6299v 0.327192h
 10.6299v 0.696153h 10.6299v 0.0974614h 10.6299v 0.542999h 10.6299v 0.59173h 10.6299v 0.459461h 10.6299v 0.431615h 10.6299v 0.306307h 10.6299v 0.529076h 10.6299v 0.362h 10.6299v 0.222769h 10.6299v 0.201884h 10.6299v 0.0974614h 10.6299v 0.187961h
 10.6299v 0.0417692h 10.6299v 0.0904999h 148.819" fill="none" stroke="#00ffff" stroke-width="2"/>
<path d="M85.5394,639.261h 425.197" fill="none" stroke="#00ccff" stroke-width="2"/>
<rect x="227.272" y="71.0291" width="283.465" height="142.058" fill="white"/>
<path d="M227.272,213.087h 283.465" fill="none" stroke="black"/>
<path d="M510.736,213.087v -142.058" fill="none" stroke="black"/>
<path d="M510.736,71.0291h -283.465" fill="none" stroke="black"/>
<path d="M227.272,71.0291v 142.058" fill="none" stroke="black"/>
<text xml:space="preserve" x="457.464" y="85.5281" fill="black" font-size="13.8745" font-family="Helvetica"> = 1</text>
<text xml:space="preserve" x="449.319" y="92.0445" fill="black" font-size="6.44421" font-family="Helvetica">4,6</text>
<text xml:space="preserve" x="442.802" y="89.6009" fill="black" font-size="9.41632" font-family="Helvetica">N</text>
<text xml:space="preserve" x="389.042" y="85.5281" fill="black" font-size="13.8745" font-family="Helvetica"> = 1     M</text>
<text xml:space="preserve" x="385.784" y="92.0445" fill="black" font-size="6.44421" font-family="Helvetica">5</text>
<text xml:space="preserve" x="379.267" y="89.6009" fill="black" font-size="9.41632" font-family="Helvetica">N</text>
<text xml:space="preserve" x="321.434" y="85.5281" fill="black" font-size="13.8745" font-family="Helvetica"> = 1      M</text>
<text xml:space="preserve" x="317.361" y="92.8591" fill="black" font-size="6.44421" font-family="Helvetica">R</text>
<text xml:space="preserve" x="308.401" y="89.6009" fill="black" font-size="9.41632" font-family="Helvetica">W</text>
<text xml:space="preserve" x="297.812" y="85.5281" fill="black" font-size="13.8745" font-family="Helvetica">M</text>
<path d="M237.902,81.1761h 49.6063" fill="none" stroke="#ff0000" stroke-width="2"/>
<text xml:space="preserve" x="457.464" y="105.892" fill="black" font-size="13.8745" font-family="Helvetica"> = 2</text>
<text xml:space="preserve" x="449.319" y="112.408" fill="black" font-size="6.44421" font-family="Helvetica">4,6</text>
<text xml:space="preserve" x="442.802" y="109.965" fill="black" font-size="9.41632" font-family="Helvetica">N</text>
<text xml:space="preserve" x="389.042" y="105.892" fill="black" font-size="13.8745" font-family="Helvetica"> = 2     M</text>
<text xml:space="preserve" x="385.784" y="112.408" fill="black" font-size="6.44421" font-family="Helvetica">5</text>
<text xml:space="preserve" x="379.267" y="109.965" fill="black" font-size="9.41632" font-family="Helvetica">N</text>
<text xml:space="preserve" x="321.434" y="105.892" fill="black" font-size="13.8745" font-family="Helvetica"> = 1      M</text>
<text xml:space="preserve" x="317.361" y="113.223" fill="black" font-size="6.44421" font-family="Helvetica">R</text>
<text xml:space="preserve" x="308.401" y="109.965" fill="black" font-size="9.41632" font-family="Helvetica">W</text>
<text xml:space="preserve" x="297.812" y="105.892" fill="black" font-size="13.8745" font-family="Helvetica">M</text>
<path d="M237.902,101.47h 49.6063" fill="none" stroke="#ffcc00" stroke-width="2"/>
<text xml:space="preserve" x="457.464" y="126.256" fill="black" font-size="13.8745" font-family="Helvetica"> = 1</text>
<text xml:space="preserve" x="449.319" y="132.772" fill="black" font-size="6.44421" font-family="Helvetica">4,6</text>
<text xml:space="preserve" x="442.802" y="130.329" fill="black" font-size="9.41632" font-family="Helvetica">N</text>
<text xml:space="preserve" x="389.042" y="126.256" fill="black" font-size="13.8745" font-family="Helvetica"> = 1     M</text>
<text xml:space="preserve" x="385.784" y="132.772" fill="black" font-size="6.44421" font-family="Helvetica">5</text>
<text xml:space="preserve" x="379.267" y="130.329" fill="black" font-size="9.41632" font-family="Helvetica">N</text>
<text xml:space="preserve" x="321.434" y="126.256" fill="black" font-size="13.8745" font-family="Helvetica"> = 2      M</text>
<text xml:space="preserve" x="317.361" y="133.587" fill="black" font-size="6.44421" font-family="Helvetica">R</text>
<text xml:space="preserve" x="308.401" y="130.329" fill="black" font-size="9.41632" font-family="Helvetica">W</text>
<text xml:space="preserve" x="297.812" y="126.256" fill="black" font-size="13.8745" font-family="Helvetica">M</text>
<path d="M237.902,121.764h 49.6063" fill="none" stroke="#99cc00" stroke-width="2"/>
<text xml:space="preserve" x="457.464" y="146.62" fill="black" font-size="13.8745" font-family="Helvetica"> = 2</text>
<text xml:space="preserve" x="449.319" y="153.136" fill="black" font-size="6.44421" font-family="Helvetica">4,6</text>
<text xml:space="preserve" x="442.802" y="150.692" fill="black" font-size="9.41632" font-family="Helvetica">N</text>
<text xml:space="preserve" x="389.042" y="146.62" fill="black" font-size="13.8745" font-family="Helvetica"> = 2     M</text>
<text xml:space="preserve" x="385.784" y="153.136" fill="black" font-size="6.44421" font-family="Helvetica">5</text>
<text xml:space="preserve" x="379.267" y="150.692" fill="black" font-size="9.41632" font-family="Helvetica">N</text>
<text xml:space="preserve" x="321.434" y="146.62" fill="black" font-size="13.8745" font-family="Helvetica"> = 2      M</text>
<text xml:space="preserve" x="317.361" y="153.951" fill="black" font-size="6.44421" font-family="Helvetica">R</text>
<text xml:space="preserve" x="308.401" y="150.692" fill="black" font-size="9.41632" font-family="Helvetica">W</text>
<text xml:space="preserve" x="297.812" y="146.62" fill="black" font-size="13.8745" font-family="Helvetica">M</text>
<path d="M237.902,142.058h 49.6063" fill="none" stroke="#999900" stroke-width="2"/>
<text xml:space="preserve" x="457.464" y="166.169" fill="black" font-size="13.8745" font-family="Helvetica"> = 3</text>
<text xml:space="preserve" x="449.319" y="173.5" fill="black" font-size="6.44421" font-family="Helvetica">4,6</text>
<text xml:space="preserve" x="442.802" y="171.056" fill="black" font-size="9.41632" font-family="Helvetica">N</text>
<text xml:space="preserve" x="389.042" y="166.169" fill="black" font-size="13.8745" font-family="Helvetica"> = 3     M</text>
<text xml:space="preserve" x="385.784" y="172.685" fill="black" font-size="6.44421" font-family="Helvetica">5</text>
<text xml:space="preserve" x="379.267" y="170.242" fill="black" font-size="9.41632" font-family="Helvetica">N</text>
<text xml:space="preserve" x="321.434" y="166.169" fill="black" font-size="13.8745" font-family="Helvetica"> = 2      M</text>
<text xml:space="preserve" x="317.361" y="173.5" fill="black" font-size="6.44421" font-family="Helvetica">R</text>
<text xml:space="preserve" x="308.401" y="170.242" fill="black" font-size="9.41632" font-family="Helvetica">W</text>
<text xml:space="preserve" x="297.812" y="166.169" fill="black" font-size="13.8745" font-family="Helvetica">M</text>
<path d="M237.902,162.352h 49.6063" fill="none" stroke="#009900" stroke-width="2"/>
<text xml:space="preserve" x="457.464" y="186.533" fill="black" font-size="13.8745" font-family="Helvetica"> = 2</text>
<text xml:space="preserve" x="449.319" y="193.049" fill="black" font-size="6.44421" font-family="Helvetica">4,6</text>
<text xml:space="preserve" x="442.802" y="190.605" fill="black" font-size="9.41632" font-family="Helvetica">N</text>
<text xml:space="preserve" x="389.042" y="186.533" fill="black" font-size="13.8745" font-family="Helvetica"> = 2     M</text>
<text xml:space="preserve" x="385.784" y="193.864" fill="black" font-size="6.44421" font-family="Helvetica">5</text>
<text xml:space="preserve" x="379.267" y="191.42" fill="black" font-size="9.41632" font-family="Helvetica">N</text>
<text xml:space="preserve" x="321.434" y="186.533" fill="black" font-size="13.8745" font-family="Helvetica"> = 3      M</text>
<text xml:space="preserve" x="317.361" y="193.864" fill="black" font-size="6.44421" font-family="Helvetica">R</text>
<text xml:space="preserve" x="308.401" y="190.605" fill="black" font-size="9.41632" font-family="Helvetica">W</text>
<text xml:space="preserve" x="297.812" y="186.533" fill="black" font-size="13.8745" font-family="Helvetica">M</text>
<path d="M237.902,182.646h 49.6063" fill="none" stroke="#00ffff" stroke-width="2"/>
<text xml:space="preserve" x="457.464" y="206.897" fill="black" font-size="13.8745" font-family="Helvetica"> = 3</text>
<text xml:space="preserve" x="449.319" y="214.228" fill="black" font-size="6.44421" font-family="Helvetica">4,6</text>
<text xml:space="preserve" x="442.802" y="211.784" fill="black" font-size="9.41632" font-family="Helvetica">N</text>
<text xml:space="preserve" x="389.042" y="206.897" fill="black" font-size="13.8745" font-family="Helvetica"> = 3     M</text>
<text xml:space="preserve" x="385.784" y="214.228" fill="black" font-size="6.44421" font-family="Helvetica">5</text>
<text xml:space="preserve" x="379.267" y="211.784" fill="black" font-size="9.41632" font-family="Helvetica">N</text>
<text xml:space="preserve" x="321.434" y="206.897" fill="black" font-size="13.8745" font-family="Helvetica"> = 3      M</text>
<text xml:space="preserve" x="317.361" y="214.228" fill="black" font-size="6.44421" font-family="Helvetica">R</text>
<text xml:space="preserve" x="308.401" y="210.969" fill="black" font-size="9.41632" font-family="Helvetica">W</text>
<text xml:space="preserve" x="297.812" y="206.897" fill="black" font-size="13.8745" font-family="Helvetica">M</text>
<path d="M237.902,202.94h 49.6063" fill="none" stroke="#00ccff" stroke-width="2"/></svg>
