<?xml version="1.0" standalone="no"?>
<svg width="567.429" height="710.791" viewBox="0 0 567.429 710.791" xmlns="http://www.w3.org/2000/svg" shape-rendering="crispEdges">
<title>
../plots/weighted/lep1_centrality_WRWR_plot.svg
</title>
<desc>
Creator: ROOT Version 6.22/00
CreationDate: Sun Nov 15 16:01:42 2020</desc>
<defs>
</defs>
<rect x="0.5" y="0" width="566.929" height="710.291" fill="white"/>
<rect x="85.5394" y="71.0291" width="425.197" height="568.232" fill="white"/>
<rect x="85.5394" y="71.0291" width="425.197" height="568.232" fill="none" stroke="black"/>
<rect x="85.5394" y="71.0291" width="425.197" height="568.232" fill="white"/>
<rect x="85.5394" y="71.0291" width="425.197" height="568.232" fill="none" stroke="black"/>
<path d="M85.5394,564.88h 10.6299v 27.2781h 10.6299v 19.7539h 10.6299v 10.6533h 10.6299v 5.5655h 10.6299v 2.89024h 10.6299v 2.93801h 10.6299v 0.406067h 10.6299v 1.09877h 10.6299v 0.812133h 10.6299v 0.262749h 10.6299v 0.644929h 10.6299v 0.501612h
 10.6299v 0.19109h 10.6299v -0.0238863h 10.6299v 0.310522h 10.6299v -0.0477725h 10.6299v 0.238863h 10.6299v 0.0477725h 10.6299v 0.0477725h 10.6299v -0.0238863h 21.2598v 0.286635h 10.6299v 0.167204h 10.6299v -0.143318h 10.6299v 0.0716588h 10.6299v
 0.167204h 10.6299v -0.143318h 10.6299v 0.0955451h 10.6299v -0.0955451h 10.6299v 0.286635h 10.6299v 0.0238863h 21.2598v -0.19109h 10.6299v 0.0716588h 10.6299v -0.0477725h 21.2598v 0.0238863h 10.6299v -0.0238863h 10.6299v 0.143318h 10.6299"
 fill="none" stroke="#ff0000" stroke-width="2"/>
<path d="M85.5394,639.261h 425.197" fill="none" stroke="black"/>
<path d="M85.5394,623.28v 15.9815" fill="none" stroke="black"/>
<path d="M99.7126,631.271v 7.99077" fill="none" stroke="black"/>
<path d="M113.886,631.271v 7.99077" fill="none" stroke="black"/>
<path d="M128.059,631.271v 7.99077" fill="none" stroke="black"/>
<path d="M142.232,623.28v 15.9815" fill="none" stroke="black"/>
<path d="M156.406,631.271v 7.99077" fill="none" stroke="black"/>
<path d="M170.579,631.271v 7.99077" fill="none" stroke="black"/>
<path d="M184.752,631.271v 7.99077" fill="none" stroke="black"/>
<path d="M198.925,623.28v 15.9815" fill="none" stroke="black"/>
<path d="M213.098,631.271v 7.99077" fill="none" stroke="black"/>
<path d="M227.272,631.271v 7.99077" fill="none" stroke="black"/>
<path d="M241.445,631.271v 7.99077" fill="none" stroke="black"/>
<path d="M255.618,623.28v 15.9815" fill="none" stroke="black"/>
<path d="M269.791,631.271v 7.99077" fill="none" stroke="black"/>
<path d="M283.965,631.271v 7.99077" fill="none" stroke="black"/>
<path d="M298.138,631.271v 7.99077" fill="none" stroke="black"/>
<path d="M312.311,623.28v 15.9815" fill="none" stroke="black"/>
<path d="M326.484,631.271v 7.99077" fill="none" stroke="black"/>
<path d="M340.657,631.271v 7.99077" fill="none" stroke="black"/>
<path d="M354.831,631.271v 7.99077" fill="none" stroke="black"/>
<path d="M369.004,623.28v 15.9815" fill="none" stroke="black"/>
<path d="M383.177,631.271v 7.99077" fill="none" stroke="black"/>
<path d="M397.35,631.271v 7.99077" fill="none" stroke="black"/>
<path d="M411.524,631.271v 7.99077" fill="none" stroke="black"/>
<path d="M425.697,623.28v 15.9815" fill="none" stroke="black"/>
<path d="M439.87,631.271v 7.99077" fill="none" stroke="black"/>
<path d="M454.043,631.271v 7.99077" fill="none" stroke="black"/>
<path d="M468.217,631.271v 7.99077" fill="none" stroke="black"/>
<path d="M482.39,623.28v 15.9815" fill="none" stroke="black"/>
<path d="M482.39,623.28v 15.9815" fill="none" stroke="black"/>
<path d="M496.563,631.271v 7.99077" fill="none" stroke="black"/>
<path d="M510.736,631.271v 7.99077" fill="none" stroke="black"/>
<text xml:space="preserve" x="80.3262" y="662.232" fill="black" font-size="18.7041" font-family="Helvetica">0</text>
<text xml:space="preserve" x="137.345" y="662.232" fill="black" font-size="18.7041" font-family="Helvetica">2</text>
<text xml:space="preserve" x="193.549" y="662.232" fill="black" font-size="18.7041" font-family="Helvetica">4</text>
<text xml:space="preserve" x="250.568" y="662.232" fill="black" font-size="18.7041" font-family="Helvetica">6</text>
<text xml:space="preserve" x="306.772" y="662.232" fill="black" font-size="18.7041" font-family="Helvetica">8</text>
<text xml:space="preserve" x="358.089" y="662.232" fill="black" font-size="18.7041" font-family="Helvetica">10</text>
<text xml:space="preserve" x="415.108" y="662.232" fill="black" font-size="18.7041" font-family="Helvetica">12</text>
<text xml:space="preserve" x="471.312" y="662.232" fill="black" font-size="18.7041" font-family="Helvetica">14</text>
<text xml:space="preserve" x="507.152" y="685.039" fill="black" font-size="18.7041" font-family="Helvetica">|</text>
<text xml:space="preserve" x="499.821" y="672.006" fill="black" font-size="12.6361" font-family="Helvetica">*</text>
<text xml:space="preserve" x="499.821" y="694.814" fill="black" font-size="12.6361" font-family="Helvetica">l1</text>
<text xml:space="preserve" x="485.974" y="685.039" fill="black" font-size="18.7041" font-family="Helvetica">|z</text>
<path d="M85.5394,639.261v -568.232" fill="none" stroke="black"/>
<path d="M99.1457,639.261h -13.6063" fill="none" stroke="black"/>
<path d="M92.3425,627.897h -6.80315" fill="none" stroke="black"/>
<path d="M92.3425,616.532h -6.80315" fill="none" stroke="black"/>
<path d="M92.3425,605.167h -6.80315" fill="none" stroke="black"/>
<path d="M92.3425,593.803h -6.80315" fill="none" stroke="black"/>
<path d="M99.1457,582.438h -13.6063" fill="none" stroke="black"/>
<path d="M92.3425,571.074h -6.80315" fill="none" stroke="black"/>
<path d="M92.3425,559.709h -6.80315" fill="none" stroke="black"/>
<path d="M92.3425,548.344h -6.80315" fill="none" stroke="black"/>
<path d="M92.3425,536.98h -6.80315" fill="none" stroke="black"/>
<path d="M99.1457,525.615h -13.6063" fill="none" stroke="black"/>
<path d="M92.3425,514.25h -6.80315" fill="none" stroke="black"/>
<path d="M92.3425,502.886h -6.80315" fill="none" stroke="black"/>
<path d="M92.3425,491.521h -6.80315" fill="none" stroke="black"/>
<path d="M92.3425,480.156h -6.80315" fill="none" stroke="black"/>
<path d="M99.1457,468.792h -13.6063" fill="none" stroke="black"/>
<path d="M92.3425,457.427h -6.80315" fill="none" stroke="black"/>
<path d="M92.3425,446.062h -6.80315" fill="none" stroke="black"/>
<path d="M92.3425,434.698h -6.80315" fill="none" stroke="black"/>
<path d="M92.3425,423.333h -6.80315" fill="none" stroke="black"/>
<path d="M99.1457,411.968h -13.6063" fill="none" stroke="black"/>
<path d="M92.3425,400.604h -6.80315" fill="none" stroke="black"/>
<path d="M92.3425,389.239h -6.80315" fill="none" stroke="black"/>
<path d="M92.3425,377.875h -6.80315" fill="none" stroke="black"/>
<path d="M92.3425,366.51h -6.80315" fill="none" stroke="black"/>
<path d="M99.1457,355.145h -13.6063" fill="none" stroke="black"/>
<path d="M92.3425,343.781h -6.80315" fill="none" stroke="black"/>
<path d="M92.3425,332.416h -6.80315" fill="none" stroke="black"/>
<path d="M92.3425,321.051h -6.80315" fill="none" stroke="black"/>
<path d="M92.3425,309.687h -6.80315" fill="none" stroke="black"/>
<path d="M99.1457,298.322h -13.6063" fill="none" stroke="black"/>
<path d="M92.3425,286.957h -6.80315" fill="none" stroke="black"/>
<path d="M92.3425,275.593h -6.80315" fill="none" stroke="black"/>
<path d="M92.3425,264.228h -6.80315" fill="none" stroke="black"/>
<path d="M92.3425,252.863h -6.80315" fill="none" stroke="black"/>
<path d="M99.1457,241.499h -13.6063" fill="none" stroke="black"/>
<path d="M92.3425,230.134h -6.80315" fill="none" stroke="black"/>
<path d="M92.3425,218.769h -6.80315" fill="none" stroke="black"/>
<path d="M92.3425,207.405h -6.80315" fill="none" stroke="black"/>
<path d="M92.3425,196.04h -6.80315" fill="none" stroke="black"/>
<path d="M99.1457,184.676h -13.6063" fill="none" stroke="black"/>
<path d="M92.3425,173.311h -6.80315" fill="none" stroke="black"/>
<path d="M92.3425,161.946h -6.80315" fill="none" stroke="black"/>
<path d="M92.3425,150.582h -6.80315" fill="none" stroke="black"/>
<path d="M92.3425,139.217h -6.80315" fill="none" stroke="black"/>
<path d="M99.1457,127.852h -13.6063" fill="none" stroke="black"/>
<path d="M92.3425,116.488h -6.80315" fill="none" stroke="black"/>
<path d="M92.3425,105.123h -6.80315" fill="none" stroke="black"/>
<path d="M92.3425,93.7583h -6.80315" fill="none" stroke="black"/>
<path d="M92.3425,82.3937h -6.80315" fill="none" stroke="black"/>
<path d="M99.1457,71.029h -13.6063" fill="none" stroke="black"/>
<path d="M99.1457,71.029h -13.6063" fill="none" stroke="black"/>
<text xml:space="preserve" x="72.1807" y="645.941" fill="black" font-size="18.7041" font-family="Helvetica">0</text>
<text xml:space="preserve" x="38.784" y="589.737" fill="black" font-size="18.7041" font-family="Helvetica">0.001</text>
<text xml:space="preserve" x="35.5258" y="532.718" fill="black" font-size="18.7041" font-family="Helvetica">0.002</text>
<text xml:space="preserve" x="35.5258" y="475.699" fill="black" font-size="18.7041" font-family="Helvetica">0.003</text>
<text xml:space="preserve" x="35.5258" y="418.68" fill="black" font-size="18.7041" font-family="Helvetica">0.004</text>
<text xml:space="preserve" x="35.5258" y="362.476" fill="black" font-size="18.7041" font-family="Helvetica">0.005</text>
<text xml:space="preserve" x="35.5258" y="305.457" fill="black" font-size="18.7041" font-family="Helvetica">0.006</text>
<text xml:space="preserve" x="35.5258" y="248.439" fill="black" font-size="18.7041" font-family="Helvetica">0.007</text>
<text xml:space="preserve" x="35.5258" y="191.42" fill="black" font-size="18.7041" font-family="Helvetica">0.008</text>
<text xml:space="preserve" x="35.5258" y="134.401" fill="black" font-size="18.7041" font-family="Helvetica">0.009</text>
<text xml:space="preserve" x="49.3732" y="78.1971" fill="black" font-size="18.7041" font-family="Helvetica">0.01</text>
<g transform="rotate(-90,25.7512,159.652)">
<text xml:space="preserve" x="25.7512" y="159.652" fill="black" font-size="18.7041" font-family="Helvetica">Events/Bin</text>
</g>
<text xml:space="preserve" x="283.965" y="35.5145" text-anchor="middle" fill="black" font-size="26.5059" font-family="Helvetica">lep1_centrality WRWR</text>
<path d="M85.5394,638.969h 10.6299v 0.0668735h 10.6299v 0.0875h 10.6299v 0.0521092h 10.6299v 0.0252947h 10.6299v 0.0603598h 372.047" fill="none" stroke="#ffcc00" stroke-width="2"/>
<path d="M85.5394,373.731h 10.6299v 44.5072h 10.6299v 60.7719h 10.6299v 45.8941h 10.6299v 32.2772h 10.6299v 25.5948h 10.6299v 11.2214h 10.6299v 8.44755h 10.6299v 5.79981h 10.6299v 9.70838h 10.6299v 2.64774h 10.6299v 4.03465h 10.6299v 3.40424h
 10.6299v 0.504331h 10.6299v 1.76516h 10.6299v -0.378248h 10.6299v 1.63908h 10.6299v 3.15207h 10.6299v -2.26949h 10.6299v 1.26083h 10.6299v 1.13475h 10.6299v 0.504331h 10.6299v -0.504331h 10.6299v 1.00866h 10.6299v 1.26083h 10.6299v -2.01732h
 10.6299v 1.38691h 10.6299v 1.26083h 10.6299v -2.14341h 10.6299v 1.76516h 10.6299v -0.88258h 10.6299v 0.630414h 10.6299v 0.504331h 10.6299v -0.630414h 10.6299v 0.756497h 10.6299v 0.252166h 10.6299v -0.126083h 10.6299v -0.126083h 10.6299v 0.378248h
 10.6299v 0.378248h 10.6299" fill="none" stroke="#99cc00" stroke-width="2"/>
<path d="M85.5394,636.737h 10.6299v 1.03776h 10.6299v 0.63084h 10.6299v 0.294958h 10.6299v 0.188403h 10.6299v 0.091885h 10.6299v 0.0872521h 10.6299v 0.0517336h 10.6299v 0.0154429h 10.6299v 0.0308857h 10.6299v 0.0123543h 10.6299v 0.0115821h 10.6299v
 0.00926571h 10.6299v 0.0617714h 287.008" fill="none" stroke="#999900" stroke-width="2"/>
<path d="M85.5394,639.261h 425.197" fill="none" stroke="#009900" stroke-width="2"/>
<path d="M85.5394,620.236h 10.6299v 5.00534h 10.6299v 4.89395h 10.6299v 3.72442h 10.6299v 1.51065h 10.6299v 1.14865h 10.6299v 0.835383h 10.6299v 0.375923h 10.6299v 0.2715h 10.6299v 0.375923h 10.6299v 0.0974614h 10.6299v 0.132269h 10.6299v 0.00696153h
 10.6299v 0.118346h 10.6299v 0.125308h 10.6299v 0.118346h 10.6299v -0.0696153h 10.6299v 0.0974614h 10.6299v 0.0487307h 10.6299v -0.00696153h 10.6299v 0.0348076h 10.6299v -0.0487307h 10.6299v 0.0626538h 21.2598v 0.0417692h 10.6299v 0.0208846h 10.6299v
 -0.0348076h 10.6299v 0.0208846h 10.6299v 0.0417692h 10.6299v -0.0626538h 10.6299v 0.0487307h 10.6299v 0.0208846h 10.6299v -0.0348076h 10.6299v 0.0348076h 10.6299v 0.0696153h 21.2598v -0.0626538h 10.6299v 0.0626538h 21.2598v -0.0626538h 10.6299"
 fill="none" stroke="#00ffff" stroke-width="2"/>
<path d="M85.5394,639.081h 10.6299v 0.0741725h 10.6299v 0.0431069h 10.6299v 0.0629559h 393.307" fill="none" stroke="#00ccff" stroke-width="2"/>
<rect x="227.272" y="71.0291" width="283.465" height="142.058" fill="white"/>
<path d="M227.272,213.087h 283.465" fill="none" stroke="black"/>
<path d="M510.736,213.087v -142.058" fill="none" stroke="black"/>
<path d="M510.736,71.0291h -283.465" fill="none" stroke="black"/>
<path d="M227.272,71.0291v 142.058" fill="none" stroke="black"/>
<text xml:space="preserve" x="457.464" y="85.5281" fill="black" font-size="13.8745" font-family="Helvetica"> = 1</text>
<text xml:space="preserve" x="449.319" y="92.0445" fill="black" font-size="6.44421" font-family="Helvetica">4,6</text>
<text xml:space="preserve" x="442.802" y="89.6009" fill="black" font-size="9.41632" font-family="Helvetica">N</text>
<text xml:space="preserve" x="389.042" y="85.5281" fill="black" font-size="13.8745" font-family="Helvetica"> = 1     M</text>
<text xml:space="preserve" x="385.784" y="92.0445" fill="black" font-size="6.44421" font-family="Helvetica">5</text>
<text xml:space="preserve" x="379.267" y="89.6009" fill="black" font-size="9.41632" font-family="Helvetica">N</text>
<text xml:space="preserve" x="321.434" y="85.5281" fill="black" font-size="13.8745" font-family="Helvetica"> = 1      M</text>
<text xml:space="preserve" x="317.361" y="92.8591" fill="black" font-size="6.44421" font-family="Helvetica">R</text>
<text xml:space="preserve" x="308.401" y="89.6009" fill="black" font-size="9.41632" font-family="Helvetica">W</text>
<text xml:space="preserve" x="297.812" y="85.5281" fill="black" font-size="13.8745" font-family="Helvetica">M</text>
<path d="M237.902,81.1761h 49.6063" fill="none" stroke="#ff0000" stroke-width="2"/>
<text xml:space="preserve" x="457.464" y="105.892" fill="black" font-size="13.8745" font-family="Helvetica"> = 2</text>
<text xml:space="preserve" x="449.319" y="112.408" fill="black" font-size="6.44421" font-family="Helvetica">4,6</text>
<text xml:space="preserve" x="442.802" y="109.965" fill="black" font-size="9.41632" font-family="Helvetica">N</text>
<text xml:space="preserve" x="389.042" y="105.892" fill="black" font-size="13.8745" font-family="Helvetica"> = 2     M</text>
<text xml:space="preserve" x="385.784" y="112.408" fill="black" font-size="6.44421" font-family="Helvetica">5</text>
<text xml:space="preserve" x="379.267" y="109.965" fill="black" font-size="9.41632" font-family="Helvetica">N</text>
<text xml:space="preserve" x="321.434" y="105.892" fill="black" font-size="13.8745" font-family="Helvetica"> = 1      M</text>
<text xml:space="preserve" x="317.361" y="113.223" fill="black" font-size="6.44421" font-family="Helvetica">R</text>
<text xml:space="preserve" x="308.401" y="109.965" fill="black" font-size="9.41632" font-family="Helvetica">W</text>
<text xml:space="preserve" x="297.812" y="105.892" fill="black" font-size="13.8745" font-family="Helvetica">M</text>
<path d="M237.902,101.47h 49.6063" fill="none" stroke="#ffcc00" stroke-width="2"/>
<text xml:space="preserve" x="457.464" y="126.256" fill="black" font-size="13.8745" font-family="Helvetica"> = 1</text>
<text xml:space="preserve" x="449.319" y="132.772" fill="black" font-size="6.44421" font-family="Helvetica">4,6</text>
<text xml:space="preserve" x="442.802" y="130.329" fill="black" font-size="9.41632" font-family="Helvetica">N</text>
<text xml:space="preserve" x="389.042" y="126.256" fill="black" font-size="13.8745" font-family="Helvetica"> = 1     M</text>
<text xml:space="preserve" x="385.784" y="132.772" fill="black" font-size="6.44421" font-family="Helvetica">5</text>
<text xml:space="preserve" x="379.267" y="130.329" fill="black" font-size="9.41632" font-family="Helvetica">N</text>
<text xml:space="preserve" x="321.434" y="126.256" fill="black" font-size="13.8745" font-family="Helvetica"> = 2      M</text>
<text xml:space="preserve" x="317.361" y="133.587" fill="black" font-size="6.44421" font-family="Helvetica">R</text>
<text xml:space="preserve" x="308.401" y="130.329" fill="black" font-size="9.41632" font-family="Helvetica">W</text>
<text xml:space="preserve" x="297.812" y="126.256" fill="black" font-size="13.8745" font-family="Helvetica">M</text>
<path d="M237.902,121.764h 49.6063" fill="none" stroke="#99cc00" stroke-width="2"/>
<text xml:space="preserve" x="457.464" y="146.62" fill="black" font-size="13.8745" font-family="Helvetica"> = 2</text>
<text xml:space="preserve" x="449.319" y="153.136" fill="black" font-size="6.44421" font-family="Helvetica">4,6</text>
<text xml:space="preserve" x="442.802" y="150.692" fill="black" font-size="9.41632" font-family="Helvetica">N</text>
<text xml:space="preserve" x="389.042" y="146.62" fill="black" font-size="13.8745" font-family="Helvetica"> = 2     M</text>
<text xml:space="preserve" x="385.784" y="153.136" fill="black" font-size="6.44421" font-family="Helvetica">5</text>
<text xml:space="preserve" x="379.267" y="150.692" fill="black" font-size="9.41632" font-family="Helvetica">N</text>
<text xml:space="preserve" x="321.434" y="146.62" fill="black" font-size="13.8745" font-family="Helvetica"> = 2      M</text>
<text xml:space="preserve" x="317.361" y="153.951" fill="black" font-size="6.44421" font-family="Helvetica">R</text>
<text xml:space="preserve" x="308.401" y="150.692" fill="black" font-size="9.41632" font-family="Helvetica">W</text>
<text xml:space="preserve" x="297.812" y="146.62" fill="black" font-size="13.8745" font-family="Helvetica">M</text>
<path d="M237.902,142.058h 49.6063" fill="none" stroke="#999900" stroke-width="2"/>
<text xml:space="preserve" x="457.464" y="166.169" fill="black" font-size="13.8745" font-family="Helvetica"> = 3</text>
<text xml:space="preserve" x="449.319" y="173.5" fill="black" font-size="6.44421" font-family="Helvetica">4,6</text>
<text xml:space="preserve" x="442.802" y="171.056" fill="black" font-size="9.41632" font-family="Helvetica">N</text>
<text xml:space="preserve" x="389.042" y="166.169" fill="black" font-size="13.8745" font-family="Helvetica"> = 3     M</text>
<text xml:space="preserve" x="385.784" y="172.685" fill="black" font-size="6.44421" font-family="Helvetica">5</text>
<text xml:space="preserve" x="379.267" y="170.242" fill="black" font-size="9.41632" font-family="Helvetica">N</text>
<text xml:space="preserve" x="321.434" y="166.169" fill="black" font-size="13.8745" font-family="Helvetica"> = 2      M</text>
<text xml:space="preserve" x="317.361" y="173.5" fill="black" font-size="6.44421" font-family="Helvetica">R</text>
<text xml:space="preserve" x="308.401" y="170.242" fill="black" font-size="9.41632" font-family="Helvetica">W</text>
<text xml:space="preserve" x="297.812" y="166.169" fill="black" font-size="13.8745" font-family="Helvetica">M</text>
<path d="M237.902,162.352h 49.6063" fill="none" stroke="#009900" stroke-width="2"/>
<text xml:space="preserve" x="457.464" y="186.533" fill="black" font-size="13.8745" font-family="Helvetica"> = 2</text>
<text xml:space="preserve" x="449.319" y="193.049" fill="black" font-size="6.44421" font-family="Helvetica">4,6</text>
<text xml:space="preserve" x="442.802" y="190.605" fill="black" font-size="9.41632" font-family="Helvetica">N</text>
<text xml:space="preserve" x="389.042" y="186.533" fill="black" font-size="13.8745" font-family="Helvetica"> = 2     M</text>
<text xml:space="preserve" x="385.784" y="193.864" fill="black" font-size="6.44421" font-family="Helvetica">5</text>
<text xml:space="preserve" x="379.267" y="191.42" fill="black" font-size="9.41632" font-family="Helvetica">N</text>
<text xml:space="preserve" x="321.434" y="186.533" fill="black" font-size="13.8745" font-family="Helvetica"> = 3      M</text>
<text xml:space="preserve" x="317.361" y="193.864" fill="black" font-size="6.44421" font-family="Helvetica">R</text>
<text xml:space="preserve" x="308.401" y="190.605" fill="black" font-size="9.41632" font-family="Helvetica">W</text>
<text xml:space="preserve" x="297.812" y="186.533" fill="black" font-size="13.8745" font-family="Helvetica">M</text>
<path d="M237.902,182.646h 49.6063" fill="none" stroke="#00ffff" stroke-width="2"/>
<text xml:space="preserve" x="457.464" y="206.897" fill="black" font-size="13.8745" font-family="Helvetica"> = 3</text>
<text xml:space="preserve" x="449.319" y="214.228" fill="black" font-size="6.44421" font-family="Helvetica">4,6</text>
<text xml:space="preserve" x="442.802" y="211.784" fill="black" font-size="9.41632" font-family="Helvetica">N</text>
<text xml:space="preserve" x="389.042" y="206.897" fill="black" font-size="13.8745" font-family="Helvetica"> = 3     M</text>
<text xml:space="preserve" x="385.784" y="214.228" fill="black" font-size="6.44421" font-family="Helvetica">5</text>
<text xml:space="preserve" x="379.267" y="211.784" fill="black" font-size="9.41632" font-family="Helvetica">N</text>
<text xml:space="preserve" x="321.434" y="206.897" fill="black" font-size="13.8745" font-family="Helvetica"> = 3      M</text>
<text xml:space="preserve" x="317.361" y="214.228" fill="black" font-size="6.44421" font-family="Helvetica">R</text>
<text xml:space="preserve" x="308.401" y="210.969" fill="black" font-size="9.41632" font-family="Helvetica">W</text>
<text xml:space="preserve" x="297.812" y="206.897" fill="black" font-size="13.8745" font-family="Helvetica">M</text>
<path d="M237.902,202.94h 49.6063" fill="none" stroke="#00ccff" stroke-width="2"/></svg>
