<?xml version="1.0" standalone="no"?>
<svg width="567.429" height="712.004" viewBox="0 0 567.429 712.004" xmlns="http://www.w3.org/2000/svg" shape-rendering="crispEdges">
<title>
../plots/weighted/mjj_WRWR_plot.svg
</title>
<desc>
Creator: ROOT Version 6.22/00
CreationDate: Fri Oct 30 11:54:41 2020</desc>
<defs>
</defs>
<rect x="0.5" y="0" width="566.929" height="711.504" fill="white"/>
<rect x="85.5394" y="71.1504" width="425.197" height="569.203" fill="white"/>
<rect x="85.5394" y="71.1504" width="425.197" height="569.203" fill="none" stroke="black"/>
<rect x="85.5394" y="71.1504" width="425.197" height="569.203" fill="white"/>
<rect x="85.5394" y="71.1504" width="425.197" height="569.203" fill="none" stroke="black"/>
<path d="M85.5394,639.78h 10.6299v -7.05836h 10.6299v -9.22699h 10.6299v -10.2625h 10.6299v -3.00089h 10.6299v -2.74829h 10.6299v -0.944203h 10.6299v -18.8405h 10.6299v -24.5945h 10.6299v -30.1324h 10.6299v -58.1465h 10.6299v -88.1721h 10.6299v
 -238.44h 10.6299v 63.0345h 10.6299v 384.853h 10.6299v 26.585h 10.6299v 7.55889h 10.6299v -0.25605h 10.6299v 3.43673h 10.6299v 2.64966h 10.6299v -0.616312h 10.6299v 1.01281h 10.6299v 1.76745h 10.6299v -0.140901h 10.6299v 1.00153h 10.6299v -0.0737645h
 10.6299v -0.12411h 10.6299v 0.158729h 10.6299v 1.09974h 10.6299v -1.01788h 10.6299v 1.02729h 10.6299v -0.199236h 10.6299v -0.193793h 10.6299v 0.0183312h 10.6299v 0.188086h 10.6299v -0.164267h 10.6299v 0.157721h 10.6299v 0.377581h 10.6299v -0.576452h
 10.6299v 0.576452h 10.6299" fill="none" stroke="#0000ff" stroke-width="2"/>
<path d="M85.5394,640.354h 425.197" fill="none" stroke="black"/>
<path d="M85.5394,624.345v 16.0088" fill="none" stroke="black"/>
<path d="M99.7126,632.349v 8.00442" fill="none" stroke="black"/>
<path d="M113.886,632.349v 8.00442" fill="none" stroke="black"/>
<path d="M128.059,632.349v 8.00442" fill="none" stroke="black"/>
<path d="M142.232,632.349v 8.00442" fill="none" stroke="black"/>
<path d="M156.406,624.345v 16.0088" fill="none" stroke="black"/>
<path d="M170.579,632.349v 8.00442" fill="none" stroke="black"/>
<path d="M184.752,632.349v 8.00442" fill="none" stroke="black"/>
<path d="M198.925,632.349v 8.00442" fill="none" stroke="black"/>
<path d="M213.098,632.349v 8.00442" fill="none" stroke="black"/>
<path d="M227.272,624.345v 16.0088" fill="none" stroke="black"/>
<path d="M241.445,632.349v 8.00442" fill="none" stroke="black"/>
<path d="M255.618,632.349v 8.00442" fill="none" stroke="black"/>
<path d="M269.791,632.349v 8.00442" fill="none" stroke="black"/>
<path d="M283.965,632.349v 8.00442" fill="none" stroke="black"/>
<path d="M298.138,624.345v 16.0088" fill="none" stroke="black"/>
<path d="M312.311,632.349v 8.00442" fill="none" stroke="black"/>
<path d="M326.484,632.349v 8.00442" fill="none" stroke="black"/>
<path d="M340.657,632.349v 8.00442" fill="none" stroke="black"/>
<path d="M354.831,632.349v 8.00442" fill="none" stroke="black"/>
<path d="M369.004,624.345v 16.0088" fill="none" stroke="black"/>
<path d="M383.177,632.349v 8.00442" fill="none" stroke="black"/>
<path d="M397.35,632.349v 8.00442" fill="none" stroke="black"/>
<path d="M411.524,632.349v 8.00442" fill="none" stroke="black"/>
<path d="M425.697,632.349v 8.00442" fill="none" stroke="black"/>
<path d="M439.87,624.345v 16.0088" fill="none" stroke="black"/>
<path d="M454.043,632.349v 8.00442" fill="none" stroke="black"/>
<path d="M468.217,632.349v 8.00442" fill="none" stroke="black"/>
<path d="M482.39,632.349v 8.00442" fill="none" stroke="black"/>
<path d="M496.563,632.349v 8.00442" fill="none" stroke="black"/>
<path d="M510.736,624.345v 16.0088" fill="none" stroke="black"/>
<text xml:space="preserve" x="80.0975" y="663.583" fill="black" font-size="18.7041" font-family="Helvetica">0</text>
<text xml:space="preserve" x="142.638" y="663.583" fill="black" font-size="18.7041" font-family="Helvetica">0.5</text>
<text xml:space="preserve" x="223.86" y="663.583" fill="black" font-size="18.7041" font-family="Helvetica">1</text>
<text xml:space="preserve" x="284.777" y="663.583" fill="black" font-size="18.7041" font-family="Helvetica">1.5</text>
<text xml:space="preserve" x="363.562" y="663.583" fill="black" font-size="18.7041" font-family="Helvetica">2</text>
<text xml:space="preserve" x="426.103" y="663.583" fill="black" font-size="18.7041" font-family="Helvetica">2.5</text>
<text xml:space="preserve" x="505.7" y="663.583" fill="black" font-size="18.7041" font-family="Helvetica">3</text>
<text xml:space="preserve" x="459.404" y="683.076" fill="black" font-size="18.7041" font-family="Helvetica"> (TeV)</text>
<text xml:space="preserve" x="453.718" y="687.95" fill="black" font-size="12.6361" font-family="Helvetica">jj</text>
<text xml:space="preserve" x="439.098" y="683.076" fill="black" font-size="18.7041" font-family="Helvetica">m</text>
<path d="M85.5394,640.354v -569.203" fill="none" stroke="black"/>
<path d="M99.1457,640.354h -13.6063" fill="none" stroke="black"/>
<path d="M92.3425,626.124h -6.80315" fill="none" stroke="black"/>
<path d="M92.3425,611.894h -6.80315" fill="none" stroke="black"/>
<path d="M92.3425,597.664h -6.80315" fill="none" stroke="black"/>
<path d="M92.3425,583.433h -6.80315" fill="none" stroke="black"/>
<path d="M99.1457,569.203h -13.6063" fill="none" stroke="black"/>
<path d="M92.3425,554.973h -6.80315" fill="none" stroke="black"/>
<path d="M92.3425,540.743h -6.80315" fill="none" stroke="black"/>
<path d="M92.3425,526.513h -6.80315" fill="none" stroke="black"/>
<path d="M92.3425,512.283h -6.80315" fill="none" stroke="black"/>
<path d="M99.1457,498.053h -13.6063" fill="none" stroke="black"/>
<path d="M92.3425,483.823h -6.80315" fill="none" stroke="black"/>
<path d="M92.3425,469.593h -6.80315" fill="none" stroke="black"/>
<path d="M92.3425,455.363h -6.80315" fill="none" stroke="black"/>
<path d="M92.3425,441.133h -6.80315" fill="none" stroke="black"/>
<path d="M99.1457,426.902h -13.6063" fill="none" stroke="black"/>
<path d="M92.3425,412.672h -6.80315" fill="none" stroke="black"/>
<path d="M92.3425,398.442h -6.80315" fill="none" stroke="black"/>
<path d="M92.3425,384.212h -6.80315" fill="none" stroke="black"/>
<path d="M92.3425,369.982h -6.80315" fill="none" stroke="black"/>
<path d="M99.1457,355.752h -13.6063" fill="none" stroke="black"/>
<path d="M92.3425,341.522h -6.80315" fill="none" stroke="black"/>
<path d="M92.3425,327.292h -6.80315" fill="none" stroke="black"/>
<path d="M92.3425,313.062h -6.80315" fill="none" stroke="black"/>
<path d="M92.3425,298.832h -6.80315" fill="none" stroke="black"/>
<path d="M99.1457,284.602h -13.6063" fill="none" stroke="black"/>
<path d="M92.3425,270.372h -6.80315" fill="none" stroke="black"/>
<path d="M92.3425,256.142h -6.80315" fill="none" stroke="black"/>
<path d="M92.3425,241.911h -6.80315" fill="none" stroke="black"/>
<path d="M92.3425,227.681h -6.80315" fill="none" stroke="black"/>
<path d="M99.1457,213.451h -13.6063" fill="none" stroke="black"/>
<path d="M92.3425,199.221h -6.80315" fill="none" stroke="black"/>
<path d="M92.3425,184.991h -6.80315" fill="none" stroke="black"/>
<path d="M92.3425,170.761h -6.80315" fill="none" stroke="black"/>
<path d="M92.3425,156.531h -6.80315" fill="none" stroke="black"/>
<path d="M99.1457,142.301h -13.6063" fill="none" stroke="black"/>
<path d="M92.3425,128.071h -6.80315" fill="none" stroke="black"/>
<path d="M92.3425,113.841h -6.80315" fill="none" stroke="black"/>
<path d="M92.3425,99.6106h -6.80315" fill="none" stroke="black"/>
<path d="M92.3425,85.3805h -6.80315" fill="none" stroke="black"/>
<path d="M99.1457,71.1504h -13.6063" fill="none" stroke="black"/>
<path d="M99.1457,71.1504h -13.6063" fill="none" stroke="black"/>
<text xml:space="preserve" x="72.7875" y="647.339" fill="black" font-size="18.7041" font-family="Helvetica">0</text>
<text xml:space="preserve" x="50.0454" y="575.864" fill="black" font-size="18.7041" font-family="Helvetica">0.01</text>
<text xml:space="preserve" x="46.7965" y="505.2" fill="black" font-size="18.7041" font-family="Helvetica">0.02</text>
<text xml:space="preserve" x="46.7965" y="433.725" fill="black" font-size="18.7041" font-family="Helvetica">0.03</text>
<text xml:space="preserve" x="46.7965" y="363.062" fill="black" font-size="18.7041" font-family="Helvetica">0.04</text>
<text xml:space="preserve" x="46.7965" y="291.587" fill="black" font-size="18.7041" font-family="Helvetica">0.05</text>
<text xml:space="preserve" x="46.7965" y="220.111" fill="black" font-size="18.7041" font-family="Helvetica">0.06</text>
<text xml:space="preserve" x="46.7965" y="149.448" fill="black" font-size="18.7041" font-family="Helvetica">0.07</text>
<text xml:space="preserve" x="46.7965" y="77.9731" fill="black" font-size="18.7041" font-family="Helvetica">0.08</text>
<text xml:space="preserve" x="122.333" y="58.4798" fill="black" font-size="12.6361" font-family="Helvetica">3</text>
<text xml:space="preserve" x="115.835" y="58.4798" fill="black" font-size="12.6361" font-family="Times">&#8722;</text>
<text xml:space="preserve" x="95.5297" y="68.2264" fill="black" font-size="18.7041" font-family="Helvetica">10</text>
<text xml:space="preserve" x="84.9708" y="68.2264" fill="black" font-size="18.7041" font-family="Times">&#0215;</text>
<g transform="rotate(-90,36.2377,159.195)">
<text xml:space="preserve" x="36.2377" y="159.195" fill="black" font-size="18.7041" font-family="Helvetica">Events/Bin</text>
</g>
<text xml:space="preserve" x="283.965" y="35.5752" text-anchor="middle" fill="black" font-size="26.5059" font-family="Helvetica">m_jj WRWR</text>
<path d="M85.5394,639.78h 10.6299v -7.05836h 10.6299v -9.22699h 10.6299v -10.2625h 10.6299v -3.00089h 10.6299v -2.74829h 10.6299v -0.944203h 10.6299v -18.8405h 10.6299v -24.5945h 10.6299v -30.1324h 10.6299v -58.1465h 10.6299v -88.1721h 10.6299v
 -238.44h 10.6299v 63.0345h 10.6299v 384.853h 10.6299v 26.585h 10.6299v 7.55889h 10.6299v -0.25605h 10.6299v 3.43673h 10.6299v 2.64966h 10.6299v -0.616312h 10.6299v 1.01281h 10.6299v 1.76745h 10.6299v -0.140901h 10.6299v 1.00153h 10.6299v -0.0737645h
 10.6299v -0.12411h 10.6299v 0.158729h 10.6299v 1.09974h 10.6299v -1.01788h 10.6299v 1.02729h 10.6299v -0.199236h 10.6299v -0.193793h 10.6299v 0.0183312h 10.6299v 0.188086h 10.6299v -0.164267h 10.6299v 0.157721h 10.6299v 0.377581h 10.6299v -0.576452h
 10.6299v 0.576452h 10.6299" fill="none" stroke="#33cc66" stroke-width="2"/>
<rect x="283.965" y="71.1504" width="226.772" height="142.301" fill="white"/>
<path d="M283.965,213.451h 226.772" fill="none" stroke="black"/>
<path d="M510.736,213.451v -142.301" fill="none" stroke="black"/>
<path d="M510.736,71.1504h -226.772" fill="none" stroke="black"/>
<path d="M283.965,71.1504v 142.301" fill="none" stroke="black"/>
<text xml:space="preserve" x="444.784" y="107.213" fill="black" font-size="7.87132" font-family="Helvetica"> = 2 TeV</text>
<text xml:space="preserve" x="441.535" y="111.274" fill="black" font-size="3.77614" font-family="Helvetica"> 6</text>
<text xml:space="preserve" x="436.662" y="109.65" fill="black" font-size="5.41422" font-family="Helvetica"> N</text>
<text xml:space="preserve" x="422.042" y="107.213" fill="black" font-size="7.87132" font-family="Helvetica"> = M</text>
<text xml:space="preserve" x="418.793" y="111.274" fill="black" font-size="3.77614" font-family="Helvetica"> 5</text>
<text xml:space="preserve" x="413.92" y="109.65" fill="black" font-size="5.41422" font-family="Helvetica"> N</text>
<text xml:space="preserve" x="399.3" y="107.213" fill="black" font-size="7.87132" font-family="Helvetica"> = M</text>
<text xml:space="preserve" x="396.051" y="112.086" fill="black" font-size="3.77614" font-family="Helvetica"> 4</text>
<text xml:space="preserve" x="391.178" y="110.462" fill="black" font-size="5.41422" font-family="Helvetica"> N</text>
<text xml:space="preserve" x="353.003" y="107.213" fill="black" font-size="7.87132" font-family="Helvetica"> = 1 TeV  M</text>
<text xml:space="preserve" x="350.567" y="111.274" fill="black" font-size="3.77614" font-family="Helvetica">R</text>
<text xml:space="preserve" x="345.693" y="109.65" fill="black" font-size="5.41422" font-family="Helvetica">W</text>
<text xml:space="preserve" x="340.008" y="107.213" fill="black" font-size="7.87132" font-family="Helvetica">M</text>
<path d="M292.469,106.726h 39.685" fill="none" stroke="#0000ff" stroke-width="2"/>
<text xml:space="preserve" x="469.963" y="178.688" fill="black" font-size="7.87132" font-family="Helvetica"> = 10 TeV</text>
<text xml:space="preserve" x="466.714" y="181.937" fill="black" font-size="3.77614" font-family="Helvetica"> 6</text>
<text xml:space="preserve" x="461.841" y="181.125" fill="black" font-size="5.41422" font-family="Helvetica"> N</text>
<text xml:space="preserve" x="447.221" y="178.688" fill="black" font-size="7.87132" font-family="Helvetica"> = M</text>
<text xml:space="preserve" x="443.972" y="182.749" fill="black" font-size="3.77614" font-family="Helvetica"> 5</text>
<text xml:space="preserve" x="439.098" y="181.937" fill="black" font-size="5.41422" font-family="Helvetica"> N</text>
<text xml:space="preserve" x="403.361" y="178.688" fill="black" font-size="7.87132" font-family="Helvetica"> = 2 TeV M</text>
<text xml:space="preserve" x="400.112" y="182.749" fill="black" font-size="3.77614" font-family="Helvetica"> 4</text>
<text xml:space="preserve" x="395.239" y="181.937" fill="black" font-size="5.41422" font-family="Helvetica"> N</text>
<text xml:space="preserve" x="353.003" y="178.688" fill="black" font-size="7.87132" font-family="Helvetica"> = 1 TeV    M</text>
<text xml:space="preserve" x="350.567" y="181.937" fill="black" font-size="3.77614" font-family="Helvetica">R</text>
<text xml:space="preserve" x="345.693" y="181.125" fill="black" font-size="5.41422" font-family="Helvetica">W</text>
<text xml:space="preserve" x="340.008" y="178.688" fill="black" font-size="7.87132" font-family="Helvetica">M</text>
<path d="M292.469,177.876h 39.685" fill="none" stroke="#33cc66" stroke-width="2"/></svg>
