<?xml version="1.0" standalone="no"?>
<svg width="567.429" height="710.791" viewBox="0 0 567.429 710.791" xmlns="http://www.w3.org/2000/svg" shape-rendering="crispEdges">
<title>
../plots/weighted/mjj_WRWR_plot.svg
</title>
<desc>
Creator: ROOT Version 6.22/00
CreationDate: Sun Nov 15 16:01:32 2020</desc>
<defs>
</defs>
<rect x="0.5" y="0" width="566.929" height="710.291" fill="white"/>
<rect x="85.5394" y="71.0291" width="425.197" height="568.232" fill="white"/>
<rect x="85.5394" y="71.0291" width="425.197" height="568.232" fill="none" stroke="black"/>
<rect x="85.5394" y="71.0291" width="425.197" height="568.232" fill="white"/>
<rect x="85.5394" y="71.0291" width="425.197" height="568.232" fill="none" stroke="black"/>
<path d="M85.5394,638.449h 10.6299v -9.17233h 10.6299v -5.15944h 10.6299v -5.06389h 10.6299v -7.16588h 10.6299v -7.11811h 10.6299v -8.26465h 10.6299v -6.44929h 10.6299v -4.68171h 10.6299v -3.63071h 10.6299v 2.14976h 10.6299v 5.9238h 10.6299v 17.5325h
 10.6299v 28.2813h 10.6299v 1.71981h 10.6299v 0.477725h 10.6299v 0.238863h 10.6299v 0.477725h 10.6299v 0.0477725h 10.6299v 0.286635h 21.2598v -0.0477725h 10.6299v 0.238863h 21.2598v 0.0477725h 10.6299v 0.0955451h 10.6299v -0.0955451h 10.6299v
 0.0955451h 21.2598v -0.0477725h 10.6299v 0.0477725h 10.6299v 0.0477725h 10.6299v -0.0477725h 10.6299v 0.0477725h 21.2598v -0.0477725h 10.6299v 0.0477725h 42.5197" fill="none" stroke="#ff0000" stroke-width="2"/>
<path d="M85.5394,639.261h 425.197" fill="none" stroke="black"/>
<path d="M85.5394,623.28v 15.9815" fill="none" stroke="black"/>
<path d="M99.7126,631.271v 7.99077" fill="none" stroke="black"/>
<path d="M113.886,631.271v 7.99077" fill="none" stroke="black"/>
<path d="M128.059,631.271v 7.99077" fill="none" stroke="black"/>
<path d="M142.232,631.271v 7.99077" fill="none" stroke="black"/>
<path d="M156.406,623.28v 15.9815" fill="none" stroke="black"/>
<path d="M170.579,631.271v 7.99077" fill="none" stroke="black"/>
<path d="M184.752,631.271v 7.99077" fill="none" stroke="black"/>
<path d="M198.925,631.271v 7.99077" fill="none" stroke="black"/>
<path d="M213.098,631.271v 7.99077" fill="none" stroke="black"/>
<path d="M227.272,623.28v 15.9815" fill="none" stroke="black"/>
<path d="M241.445,631.271v 7.99077" fill="none" stroke="black"/>
<path d="M255.618,631.271v 7.99077" fill="none" stroke="black"/>
<path d="M269.791,631.271v 7.99077" fill="none" stroke="black"/>
<path d="M283.965,631.271v 7.99077" fill="none" stroke="black"/>
<path d="M298.138,623.28v 15.9815" fill="none" stroke="black"/>
<path d="M312.311,631.271v 7.99077" fill="none" stroke="black"/>
<path d="M326.484,631.271v 7.99077" fill="none" stroke="black"/>
<path d="M340.657,631.271v 7.99077" fill="none" stroke="black"/>
<path d="M354.831,631.271v 7.99077" fill="none" stroke="black"/>
<path d="M369.004,623.28v 15.9815" fill="none" stroke="black"/>
<path d="M383.177,631.271v 7.99077" fill="none" stroke="black"/>
<path d="M397.35,631.271v 7.99077" fill="none" stroke="black"/>
<path d="M411.524,631.271v 7.99077" fill="none" stroke="black"/>
<path d="M425.697,631.271v 7.99077" fill="none" stroke="black"/>
<path d="M439.87,623.28v 15.9815" fill="none" stroke="black"/>
<path d="M454.043,631.271v 7.99077" fill="none" stroke="black"/>
<path d="M468.217,631.271v 7.99077" fill="none" stroke="black"/>
<path d="M482.39,631.271v 7.99077" fill="none" stroke="black"/>
<path d="M496.563,631.271v 7.99077" fill="none" stroke="black"/>
<path d="M510.736,623.28v 15.9815" fill="none" stroke="black"/>
<text xml:space="preserve" x="80.3262" y="662.232" fill="black" font-size="18.7041" font-family="Helvetica">0</text>
<text xml:space="preserve" x="143.047" y="662.232" fill="black" font-size="18.7041" font-family="Helvetica">0.5</text>
<text xml:space="preserve" x="223.688" y="662.232" fill="black" font-size="18.7041" font-family="Helvetica">1</text>
<text xml:space="preserve" x="284.779" y="662.232" fill="black" font-size="18.7041" font-family="Helvetica">1.5</text>
<text xml:space="preserve" x="363.791" y="662.232" fill="black" font-size="18.7041" font-family="Helvetica">2</text>
<text xml:space="preserve" x="426.511" y="662.232" fill="black" font-size="18.7041" font-family="Helvetica">2.5</text>
<text xml:space="preserve" x="505.523" y="662.232" fill="black" font-size="18.7041" font-family="Helvetica">3</text>
<text xml:space="preserve" x="459.094" y="681.781" fill="black" font-size="18.7041" font-family="Helvetica"> (TeV)</text>
<text xml:space="preserve" x="453.392" y="686.668" fill="black" font-size="12.6361" font-family="Helvetica">jj</text>
<text xml:space="preserve" x="438.73" y="681.781" fill="black" font-size="18.7041" font-family="Helvetica">m</text>
<path d="M85.5394,639.261v -568.232" fill="none" stroke="black"/>
<path d="M99.1457,639.261h -13.6063" fill="none" stroke="black"/>
<path d="M92.3425,627.897h -6.80315" fill="none" stroke="black"/>
<path d="M92.3425,616.532h -6.80315" fill="none" stroke="black"/>
<path d="M92.3425,605.167h -6.80315" fill="none" stroke="black"/>
<path d="M92.3425,593.803h -6.80315" fill="none" stroke="black"/>
<path d="M99.1457,582.438h -13.6063" fill="none" stroke="black"/>
<path d="M92.3425,571.074h -6.80315" fill="none" stroke="black"/>
<path d="M92.3425,559.709h -6.80315" fill="none" stroke="black"/>
<path d="M92.3425,548.344h -6.80315" fill="none" stroke="black"/>
<path d="M92.3425,536.98h -6.80315" fill="none" stroke="black"/>
<path d="M99.1457,525.615h -13.6063" fill="none" stroke="black"/>
<path d="M92.3425,514.25h -6.80315" fill="none" stroke="black"/>
<path d="M92.3425,502.886h -6.80315" fill="none" stroke="black"/>
<path d="M92.3425,491.521h -6.80315" fill="none" stroke="black"/>
<path d="M92.3425,480.156h -6.80315" fill="none" stroke="black"/>
<path d="M99.1457,468.792h -13.6063" fill="none" stroke="black"/>
<path d="M92.3425,457.427h -6.80315" fill="none" stroke="black"/>
<path d="M92.3425,446.062h -6.80315" fill="none" stroke="black"/>
<path d="M92.3425,434.698h -6.80315" fill="none" stroke="black"/>
<path d="M92.3425,423.333h -6.80315" fill="none" stroke="black"/>
<path d="M99.1457,411.968h -13.6063" fill="none" stroke="black"/>
<path d="M92.3425,400.604h -6.80315" fill="none" stroke="black"/>
<path d="M92.3425,389.239h -6.80315" fill="none" stroke="black"/>
<path d="M92.3425,377.875h -6.80315" fill="none" stroke="black"/>
<path d="M92.3425,366.51h -6.80315" fill="none" stroke="black"/>
<path d="M99.1457,355.145h -13.6063" fill="none" stroke="black"/>
<path d="M92.3425,343.781h -6.80315" fill="none" stroke="black"/>
<path d="M92.3425,332.416h -6.80315" fill="none" stroke="black"/>
<path d="M92.3425,321.051h -6.80315" fill="none" stroke="black"/>
<path d="M92.3425,309.687h -6.80315" fill="none" stroke="black"/>
<path d="M99.1457,298.322h -13.6063" fill="none" stroke="black"/>
<path d="M92.3425,286.957h -6.80315" fill="none" stroke="black"/>
<path d="M92.3425,275.593h -6.80315" fill="none" stroke="black"/>
<path d="M92.3425,264.228h -6.80315" fill="none" stroke="black"/>
<path d="M92.3425,252.863h -6.80315" fill="none" stroke="black"/>
<path d="M99.1457,241.499h -13.6063" fill="none" stroke="black"/>
<path d="M92.3425,230.134h -6.80315" fill="none" stroke="black"/>
<path d="M92.3425,218.769h -6.80315" fill="none" stroke="black"/>
<path d="M92.3425,207.405h -6.80315" fill="none" stroke="black"/>
<path d="M92.3425,196.04h -6.80315" fill="none" stroke="black"/>
<path d="M99.1457,184.676h -13.6063" fill="none" stroke="black"/>
<path d="M92.3425,173.311h -6.80315" fill="none" stroke="black"/>
<path d="M92.3425,161.946h -6.80315" fill="none" stroke="black"/>
<path d="M92.3425,150.582h -6.80315" fill="none" stroke="black"/>
<path d="M92.3425,139.217h -6.80315" fill="none" stroke="black"/>
<path d="M99.1457,127.852h -13.6063" fill="none" stroke="black"/>
<path d="M92.3425,116.488h -6.80315" fill="none" stroke="black"/>
<path d="M92.3425,105.123h -6.80315" fill="none" stroke="black"/>
<path d="M92.3425,93.7583h -6.80315" fill="none" stroke="black"/>
<path d="M92.3425,82.3937h -6.80315" fill="none" stroke="black"/>
<path d="M99.1457,71.029h -13.6063" fill="none" stroke="black"/>
<path d="M99.1457,71.029h -13.6063" fill="none" stroke="black"/>
<text xml:space="preserve" x="72.1807" y="645.941" fill="black" font-size="18.7041" font-family="Helvetica">0</text>
<text xml:space="preserve" x="24.9366" y="589.737" fill="black" font-size="18.7041" font-family="Helvetica">0.0005</text>
<text xml:space="preserve" x="38.784" y="532.718" fill="black" font-size="18.7041" font-family="Helvetica">0.001</text>
<text xml:space="preserve" x="24.9366" y="475.699" fill="black" font-size="18.7041" font-family="Helvetica">0.0015</text>
<text xml:space="preserve" x="35.5258" y="418.68" fill="black" font-size="18.7041" font-family="Helvetica">0.002</text>
<text xml:space="preserve" x="24.9366" y="362.476" fill="black" font-size="18.7041" font-family="Helvetica">0.0025</text>
<text xml:space="preserve" x="35.5258" y="305.457" fill="black" font-size="18.7041" font-family="Helvetica">0.003</text>
<text xml:space="preserve" x="24.9366" y="248.439" fill="black" font-size="18.7041" font-family="Helvetica">0.0035</text>
<text xml:space="preserve" x="35.5258" y="191.42" fill="black" font-size="18.7041" font-family="Helvetica">0.004</text>
<text xml:space="preserve" x="24.9366" y="134.401" fill="black" font-size="18.7041" font-family="Helvetica">0.0045</text>
<text xml:space="preserve" x="35.5258" y="78.1971" fill="black" font-size="18.7041" font-family="Helvetica">0.005</text>
<g transform="rotate(-90,15.162,159.652)">
<text xml:space="preserve" x="15.162" y="159.652" fill="black" font-size="18.7041" font-family="Helvetica">Events/Bin</text>
</g>
<text xml:space="preserve" x="283.965" y="35.5145" text-anchor="middle" fill="black" font-size="26.5059" font-family="Helvetica">m_jj WRWR</text>
<path d="M85.5394,639.261h 85.0394v -0.089237h 10.6299v -0.0397333h 10.6299v -0.057103h 10.6299v -0.101613h 10.6299v -0.305924h 10.6299v 0.109212h 10.6299v 0.484398h 276.378" fill="none" stroke="#ffcc00" stroke-width="2"/>
<path d="M85.5394,631.696h 10.6299v -81.4495h 10.6299v -87.2493h 10.6299v -48.1636h 10.6299v -50.9375h 10.6299v -17.1473h 10.6299v -15.6343h 10.6299v 0.252166h 10.6299v 43.1203h 10.6299v 66.3196h 10.6299v 62.0327h 10.6299v 63.5457h 10.6299v 45.3898h
 10.6299v 10.591h 10.6299v 4.03465h 10.6299v 5.54764h 10.6299v -1.51299h 10.6299v 3.27815h 10.6299v 1.00866h 10.6299v -1.76516h 10.6299v 2.01732h 10.6299v 3.02599h 10.6299v -0.252166h 10.6299v -0.756497h 10.6299v 0.252166h 10.6299v 0.504331h 10.6299v
 0.504331h 10.6299v 1.00866h 10.6299v -1.00866h 10.6299v 0.756497h 10.6299v -0.252166h 10.6299v 0.504331h 10.6299v -0.504331h 10.6299v 0.504331h 10.6299v -0.252166h 31.8898v -0.504331h 10.6299v 0.504331h 10.6299v 0.252166h 10.6299" fill="none"
 stroke="#99cc00" stroke-width="2"/>
<path d="M85.5394,639.261h 21.2598v -0.135897h 10.6299v -0.0494171h 10.6299v -0.00308857h 10.6299v -0.103467h 10.6299v 0.00154429h 10.6299v -0.0664043h 10.6299v -0.0478728h 10.6299v -0.0339743h 10.6299v -0.0247086h 10.6299v -0.168327h 10.6299v
 -0.0231643h 10.6299v -0.0293414h 10.6299v -0.0463286h 10.6299v -0.0818471h 10.6299v -0.0509614h 10.6299v -0.0679485h 10.6299v -0.0772143h 10.6299v 0.0138986h 10.6299v 0.0247086h 10.6299v 0.0386071h 10.6299v 0.0633157h 10.6299v 0.0370628h 10.6299v
 0.100379h 10.6299v 0.287237h 10.6299v 0.355186h 10.6299v 0.0880243h 138.189" fill="none" stroke="#999900" stroke-width="2"/>
<path d="M85.5394,639.261h 425.197" fill="none" stroke="#009900" stroke-width="2"/>
<path d="M85.5394,639.261h 10.6299v -0.626538h 10.6299v -1.39231h 10.6299v -1.79607h 10.6299v -0.793614h 10.6299v -0.654384h 10.6299v 0.0139231h 10.6299v -1.46192h 10.6299v -0.181h 10.6299v -0.918922h 10.6299v -0.515153h 10.6299v -0.334153h 10.6299v
 0.167077h 10.6299v -0.0974614h 10.6299v -0.459461h 10.6299v 0.153154h 10.6299v 0.584768h 10.6299v 0.403769h 10.6299v 1.14169h 10.6299v 1.33661h 10.6299v 1.04423h 10.6299v 0.835383h 10.6299v 1.15561h 10.6299v 0.82146h 10.6299v 0.68223h 10.6299v
 0.654384h 10.6299v 0.111384h 10.6299v 0.0556922h 10.6299v -0.0139231h 10.6299v 0.0835383h 31.8898v -0.0696153h 10.6299v 0.0696153h 74.4094" fill="none" stroke="#00ffff" stroke-width="2"/>
<path d="M85.5394,639.261h 425.197" fill="none" stroke="#00ccff" stroke-width="2"/>
<rect x="227.272" y="71.0291" width="283.465" height="142.058" fill="white"/>
<path d="M227.272,213.087h 283.465" fill="none" stroke="black"/>
<path d="M510.736,213.087v -142.058" fill="none" stroke="black"/>
<path d="M510.736,71.0291h -283.465" fill="none" stroke="black"/>
<path d="M227.272,71.0291v 142.058" fill="none" stroke="black"/>
<text xml:space="preserve" x="457.464" y="85.5281" fill="black" font-size="13.8745" font-family="Helvetica"> = 1</text>
<text xml:space="preserve" x="449.319" y="92.0445" fill="black" font-size="6.44421" font-family="Helvetica">4,6</text>
<text xml:space="preserve" x="442.802" y="89.6009" fill="black" font-size="9.41632" font-family="Helvetica">N</text>
<text xml:space="preserve" x="389.042" y="85.5281" fill="black" font-size="13.8745" font-family="Helvetica"> = 1     M</text>
<text xml:space="preserve" x="385.784" y="92.0445" fill="black" font-size="6.44421" font-family="Helvetica">5</text>
<text xml:space="preserve" x="379.267" y="89.6009" fill="black" font-size="9.41632" font-family="Helvetica">N</text>
<text xml:space="preserve" x="321.434" y="85.5281" fill="black" font-size="13.8745" font-family="Helvetica"> = 1      M</text>
<text xml:space="preserve" x="317.361" y="92.8591" fill="black" font-size="6.44421" font-family="Helvetica">R</text>
<text xml:space="preserve" x="308.401" y="89.6009" fill="black" font-size="9.41632" font-family="Helvetica">W</text>
<text xml:space="preserve" x="297.812" y="85.5281" fill="black" font-size="13.8745" font-family="Helvetica">M</text>
<path d="M237.902,81.1761h 49.6063" fill="none" stroke="#ff0000" stroke-width="2"/>
<text xml:space="preserve" x="457.464" y="105.892" fill="black" font-size="13.8745" font-family="Helvetica"> = 2</text>
<text xml:space="preserve" x="449.319" y="112.408" fill="black" font-size="6.44421" font-family="Helvetica">4,6</text>
<text xml:space="preserve" x="442.802" y="109.965" fill="black" font-size="9.41632" font-family="Helvetica">N</text>
<text xml:space="preserve" x="389.042" y="105.892" fill="black" font-size="13.8745" font-family="Helvetica"> = 2     M</text>
<text xml:space="preserve" x="385.784" y="112.408" fill="black" font-size="6.44421" font-family="Helvetica">5</text>
<text xml:space="preserve" x="379.267" y="109.965" fill="black" font-size="9.41632" font-family="Helvetica">N</text>
<text xml:space="preserve" x="321.434" y="105.892" fill="black" font-size="13.8745" font-family="Helvetica"> = 1      M</text>
<text xml:space="preserve" x="317.361" y="113.223" fill="black" font-size="6.44421" font-family="Helvetica">R</text>
<text xml:space="preserve" x="308.401" y="109.965" fill="black" font-size="9.41632" font-family="Helvetica">W</text>
<text xml:space="preserve" x="297.812" y="105.892" fill="black" font-size="13.8745" font-family="Helvetica">M</text>
<path d="M237.902,101.47h 49.6063" fill="none" stroke="#ffcc00" stroke-width="2"/>
<text xml:space="preserve" x="457.464" y="126.256" fill="black" font-size="13.8745" font-family="Helvetica"> = 1</text>
<text xml:space="preserve" x="449.319" y="132.772" fill="black" font-size="6.44421" font-family="Helvetica">4,6</text>
<text xml:space="preserve" x="442.802" y="130.329" fill="black" font-size="9.41632" font-family="Helvetica">N</text>
<text xml:space="preserve" x="389.042" y="126.256" fill="black" font-size="13.8745" font-family="Helvetica"> = 1     M</text>
<text xml:space="preserve" x="385.784" y="132.772" fill="black" font-size="6.44421" font-family="Helvetica">5</text>
<text xml:space="preserve" x="379.267" y="130.329" fill="black" font-size="9.41632" font-family="Helvetica">N</text>
<text xml:space="preserve" x="321.434" y="126.256" fill="black" font-size="13.8745" font-family="Helvetica"> = 2      M</text>
<text xml:space="preserve" x="317.361" y="133.587" fill="black" font-size="6.44421" font-family="Helvetica">R</text>
<text xml:space="preserve" x="308.401" y="130.329" fill="black" font-size="9.41632" font-family="Helvetica">W</text>
<text xml:space="preserve" x="297.812" y="126.256" fill="black" font-size="13.8745" font-family="Helvetica">M</text>
<path d="M237.902,121.764h 49.6063" fill="none" stroke="#99cc00" stroke-width="2"/>
<text xml:space="preserve" x="457.464" y="146.62" fill="black" font-size="13.8745" font-family="Helvetica"> = 2</text>
<text xml:space="preserve" x="449.319" y="153.136" fill="black" font-size="6.44421" font-family="Helvetica">4,6</text>
<text xml:space="preserve" x="442.802" y="150.692" fill="black" font-size="9.41632" font-family="Helvetica">N</text>
<text xml:space="preserve" x="389.042" y="146.62" fill="black" font-size="13.8745" font-family="Helvetica"> = 2     M</text>
<text xml:space="preserve" x="385.784" y="153.136" fill="black" font-size="6.44421" font-family="Helvetica">5</text>
<text xml:space="preserve" x="379.267" y="150.692" fill="black" font-size="9.41632" font-family="Helvetica">N</text>
<text xml:space="preserve" x="321.434" y="146.62" fill="black" font-size="13.8745" font-family="Helvetica"> = 2      M</text>
<text xml:space="preserve" x="317.361" y="153.951" fill="black" font-size="6.44421" font-family="Helvetica">R</text>
<text xml:space="preserve" x="308.401" y="150.692" fill="black" font-size="9.41632" font-family="Helvetica">W</text>
<text xml:space="preserve" x="297.812" y="146.62" fill="black" font-size="13.8745" font-family="Helvetica">M</text>
<path d="M237.902,142.058h 49.6063" fill="none" stroke="#999900" stroke-width="2"/>
<text xml:space="preserve" x="457.464" y="166.169" fill="black" font-size="13.8745" font-family="Helvetica"> = 3</text>
<text xml:space="preserve" x="449.319" y="173.5" fill="black" font-size="6.44421" font-family="Helvetica">4,6</text>
<text xml:space="preserve" x="442.802" y="171.056" fill="black" font-size="9.41632" font-family="Helvetica">N</text>
<text xml:space="preserve" x="389.042" y="166.169" fill="black" font-size="13.8745" font-family="Helvetica"> = 3     M</text>
<text xml:space="preserve" x="385.784" y="172.685" fill="black" font-size="6.44421" font-family="Helvetica">5</text>
<text xml:space="preserve" x="379.267" y="170.242" fill="black" font-size="9.41632" font-family="Helvetica">N</text>
<text xml:space="preserve" x="321.434" y="166.169" fill="black" font-size="13.8745" font-family="Helvetica"> = 2      M</text>
<text xml:space="preserve" x="317.361" y="173.5" fill="black" font-size="6.44421" font-family="Helvetica">R</text>
<text xml:space="preserve" x="308.401" y="170.242" fill="black" font-size="9.41632" font-family="Helvetica">W</text>
<text xml:space="preserve" x="297.812" y="166.169" fill="black" font-size="13.8745" font-family="Helvetica">M</text>
<path d="M237.902,162.352h 49.6063" fill="none" stroke="#009900" stroke-width="2"/>
<text xml:space="preserve" x="457.464" y="186.533" fill="black" font-size="13.8745" font-family="Helvetica"> = 2</text>
<text xml:space="preserve" x="449.319" y="193.049" fill="black" font-size="6.44421" font-family="Helvetica">4,6</text>
<text xml:space="preserve" x="442.802" y="190.605" fill="black" font-size="9.41632" font-family="Helvetica">N</text>
<text xml:space="preserve" x="389.042" y="186.533" fill="black" font-size="13.8745" font-family="Helvetica"> = 2     M</text>
<text xml:space="preserve" x="385.784" y="193.864" fill="black" font-size="6.44421" font-family="Helvetica">5</text>
<text xml:space="preserve" x="379.267" y="191.42" fill="black" font-size="9.41632" font-family="Helvetica">N</text>
<text xml:space="preserve" x="321.434" y="186.533" fill="black" font-size="13.8745" font-family="Helvetica"> = 3      M</text>
<text xml:space="preserve" x="317.361" y="193.864" fill="black" font-size="6.44421" font-family="Helvetica">R</text>
<text xml:space="preserve" x="308.401" y="190.605" fill="black" font-size="9.41632" font-family="Helvetica">W</text>
<text xml:space="preserve" x="297.812" y="186.533" fill="black" font-size="13.8745" font-family="Helvetica">M</text>
<path d="M237.902,182.646h 49.6063" fill="none" stroke="#00ffff" stroke-width="2"/>
<text xml:space="preserve" x="457.464" y="206.897" fill="black" font-size="13.8745" font-family="Helvetica"> = 3</text>
<text xml:space="preserve" x="449.319" y="214.228" fill="black" font-size="6.44421" font-family="Helvetica">4,6</text>
<text xml:space="preserve" x="442.802" y="211.784" fill="black" font-size="9.41632" font-family="Helvetica">N</text>
<text xml:space="preserve" x="389.042" y="206.897" fill="black" font-size="13.8745" font-family="Helvetica"> = 3     M</text>
<text xml:space="preserve" x="385.784" y="214.228" fill="black" font-size="6.44421" font-family="Helvetica">5</text>
<text xml:space="preserve" x="379.267" y="211.784" fill="black" font-size="9.41632" font-family="Helvetica">N</text>
<text xml:space="preserve" x="321.434" y="206.897" fill="black" font-size="13.8745" font-family="Helvetica"> = 3      M</text>
<text xml:space="preserve" x="317.361" y="214.228" fill="black" font-size="6.44421" font-family="Helvetica">R</text>
<text xml:space="preserve" x="308.401" y="210.969" fill="black" font-size="9.41632" font-family="Helvetica">W</text>
<text xml:space="preserve" x="297.812" y="206.897" fill="black" font-size="13.8745" font-family="Helvetica">M</text>
<path d="M237.902,202.94h 49.6063" fill="none" stroke="#00ccff" stroke-width="2"/></svg>
