<?xml version="1.0" standalone="no"?>
<svg width="567.429" height="712.004" viewBox="0 0 567.429 712.004" xmlns="http://www.w3.org/2000/svg" shape-rendering="crispEdges">
<title>
../plots/unweighted/delta_rap_jj_WRWR_plot.svg
</title>
<desc>
Creator: ROOT Version 6.22/00
CreationDate: Fri Oct 30 11:54:39 2020</desc>
<defs>
</defs>
<rect x="0.5" y="0" width="566.929" height="711.504" fill="white"/>
<rect x="85.5394" y="71.1504" width="425.197" height="569.203" fill="white"/>
<rect x="85.5394" y="71.1504" width="425.197" height="569.203" fill="none" stroke="black"/>
<rect x="85.5394" y="71.1504" width="425.197" height="569.203" fill="white"/>
<rect x="85.5394" y="71.1504" width="425.197" height="569.203" fill="none" stroke="black"/>
<path d="M85.5394,639.785h 10.6299v 0.569203h 10.6299v -1.13841h 10.6299v -0.569203h 10.6299v -1.70761h 10.6299v -6.26124h 10.6299v 1.13841h 10.6299v -13.0917h 10.6299v -16.5069h 10.6299v -10.8149h 10.6299v -43.2595h 10.6299v -23.3373h 10.6299v
 -42.121h 10.6299v -67.166h 10.6299v -38.1366h 10.6299v -58.0587h 10.6299v -14.7993h 10.6299v -23.9065h 10.6299v -35.2906h 10.6299v -19.3529h 10.6299v -14.2301h 10.6299v 29.5986h 10.6299v 27.3218h 10.6299v 53.5051h 10.6299v 19.9221h 10.6299v 32.4446h
 10.6299v 50.0899h 10.6299v 55.7819h 10.6299v 30.737h 10.6299v 43.2595h 10.6299v 31.3062h 10.6299v 26.1834h 10.6299v 12.5225h 10.6299v 6.83044h 10.6299v 3.98442h 10.6299v 3.41522h 10.6299v -0.569203h 10.6299v 1.70761h 10.6299v -1.13841h 10.6299v
 1.13841h 10.6299" fill="none" stroke="#0000ff" stroke-width="2"/>
<path d="M85.5394,640.354h 425.197" fill="none" stroke="black"/>
<path d="M85.5394,624.345v 16.0088" fill="none" stroke="black"/>
<path d="M94.0433,632.349v 8.00442" fill="none" stroke="black"/>
<path d="M102.547,632.349v 8.00442" fill="none" stroke="black"/>
<path d="M111.051,632.349v 8.00442" fill="none" stroke="black"/>
<path d="M119.555,632.349v 8.00442" fill="none" stroke="black"/>
<path d="M128.059,624.345v 16.0088" fill="none" stroke="black"/>
<path d="M136.563,632.349v 8.00442" fill="none" stroke="black"/>
<path d="M145.067,632.349v 8.00442" fill="none" stroke="black"/>
<path d="M153.571,632.349v 8.00442" fill="none" stroke="black"/>
<path d="M162.075,632.349v 8.00442" fill="none" stroke="black"/>
<path d="M170.579,624.345v 16.0088" fill="none" stroke="black"/>
<path d="M179.083,632.349v 8.00442" fill="none" stroke="black"/>
<path d="M187.587,632.349v 8.00442" fill="none" stroke="black"/>
<path d="M196.091,632.349v 8.00442" fill="none" stroke="black"/>
<path d="M204.594,632.349v 8.00442" fill="none" stroke="black"/>
<path d="M213.098,624.345v 16.0088" fill="none" stroke="black"/>
<path d="M221.602,632.349v 8.00442" fill="none" stroke="black"/>
<path d="M230.106,632.349v 8.00442" fill="none" stroke="black"/>
<path d="M238.61,632.349v 8.00442" fill="none" stroke="black"/>
<path d="M247.114,632.349v 8.00442" fill="none" stroke="black"/>
<path d="M255.618,624.345v 16.0088" fill="none" stroke="black"/>
<path d="M264.122,632.349v 8.00442" fill="none" stroke="black"/>
<path d="M272.626,632.349v 8.00442" fill="none" stroke="black"/>
<path d="M281.13,632.349v 8.00442" fill="none" stroke="black"/>
<path d="M289.634,632.349v 8.00442" fill="none" stroke="black"/>
<path d="M298.138,624.345v 16.0088" fill="none" stroke="black"/>
<path d="M306.642,632.349v 8.00442" fill="none" stroke="black"/>
<path d="M315.146,632.349v 8.00442" fill="none" stroke="black"/>
<path d="M323.65,632.349v 8.00442" fill="none" stroke="black"/>
<path d="M332.154,632.349v 8.00442" fill="none" stroke="black"/>
<path d="M340.657,624.345v 16.0088" fill="none" stroke="black"/>
<path d="M349.161,632.349v 8.00442" fill="none" stroke="black"/>
<path d="M357.665,632.349v 8.00442" fill="none" stroke="black"/>
<path d="M366.169,632.349v 8.00442" fill="none" stroke="black"/>
<path d="M374.673,632.349v 8.00442" fill="none" stroke="black"/>
<path d="M383.177,624.345v 16.0088" fill="none" stroke="black"/>
<path d="M391.681,632.349v 8.00442" fill="none" stroke="black"/>
<path d="M400.185,632.349v 8.00442" fill="none" stroke="black"/>
<path d="M408.689,632.349v 8.00442" fill="none" stroke="black"/>
<path d="M417.193,632.349v 8.00442" fill="none" stroke="black"/>
<path d="M425.697,624.345v 16.0088" fill="none" stroke="black"/>
<path d="M434.201,632.349v 8.00442" fill="none" stroke="black"/>
<path d="M442.705,632.349v 8.00442" fill="none" stroke="black"/>
<path d="M451.209,632.349v 8.00442" fill="none" stroke="black"/>
<path d="M459.713,632.349v 8.00442" fill="none" stroke="black"/>
<path d="M468.217,624.345v 16.0088" fill="none" stroke="black"/>
<path d="M476.72,632.349v 8.00442" fill="none" stroke="black"/>
<path d="M485.224,632.349v 8.00442" fill="none" stroke="black"/>
<path d="M493.728,632.349v 8.00442" fill="none" stroke="black"/>
<path d="M502.232,632.349v 8.00442" fill="none" stroke="black"/>
<path d="M510.736,624.345v 16.0088" fill="none" stroke="black"/>
<text xml:space="preserve" x="84.9708" y="663.583" fill="black" font-size="18.7041" font-family="Helvetica">5</text>
<text xml:space="preserve" x="74.412" y="663.583" fill="black" font-size="18.7041" font-family="Times">&#8722;</text>
<text xml:space="preserve" x="128.018" y="663.583" fill="black" font-size="18.7041" font-family="Helvetica">4</text>
<text xml:space="preserve" x="117.46" y="663.583" fill="black" font-size="18.7041" font-family="Times">&#8722;</text>
<text xml:space="preserve" x="170.254" y="663.583" fill="black" font-size="18.7041" font-family="Helvetica">3</text>
<text xml:space="preserve" x="159.695" y="663.583" fill="black" font-size="18.7041" font-family="Times">&#8722;</text>
<text xml:space="preserve" x="212.489" y="663.583" fill="black" font-size="18.7041" font-family="Helvetica">2</text>
<text xml:space="preserve" x="201.93" y="663.583" fill="black" font-size="18.7041" font-family="Times">&#8722;</text>
<text xml:space="preserve" x="257.161" y="663.583" fill="black" font-size="18.7041" font-family="Helvetica">1</text>
<text xml:space="preserve" x="246.602" y="663.583" fill="black" font-size="18.7041" font-family="Times">&#8722;</text>
<text xml:space="preserve" x="292.899" y="663.583" fill="black" font-size="18.7041" font-family="Helvetica">0</text>
<text xml:space="preserve" x="336.759" y="663.583" fill="black" font-size="18.7041" font-family="Helvetica">1</text>
<text xml:space="preserve" x="378.182" y="663.583" fill="black" font-size="18.7041" font-family="Helvetica">2</text>
<text xml:space="preserve" x="420.417" y="663.583" fill="black" font-size="18.7041" font-family="Helvetica">3</text>
<text xml:space="preserve" x="462.653" y="663.583" fill="black" font-size="18.7041" font-family="Helvetica">4</text>
<text xml:space="preserve" x="505.7" y="663.583" fill="black" font-size="18.7041" font-family="Helvetica">5</text>
<text xml:space="preserve" x="504.888" y="690.386" fill="black" font-size="12.6361" font-family="Helvetica">jj</text>
<text xml:space="preserve" x="495.142" y="679.828" fill="black" font-size="18.7041" font-family="Helvetica">y</text>
<text xml:space="preserve" x="483.771" y="679.828" fill="black" font-size="18.7041" font-family="Times">&#0916;</text>
<path d="M85.5394,640.354v -569.203" fill="none" stroke="black"/>
<path d="M99.1457,640.354h -13.6063" fill="none" stroke="black"/>
<path d="M92.3425,628.97h -6.80315" fill="none" stroke="black"/>
<path d="M92.3425,617.586h -6.80315" fill="none" stroke="black"/>
<path d="M92.3425,606.202h -6.80315" fill="none" stroke="black"/>
<path d="M92.3425,594.818h -6.80315" fill="none" stroke="black"/>
<path d="M99.1457,583.433h -13.6063" fill="none" stroke="black"/>
<path d="M92.3425,572.049h -6.80315" fill="none" stroke="black"/>
<path d="M92.3425,560.665h -6.80315" fill="none" stroke="black"/>
<path d="M92.3425,549.281h -6.80315" fill="none" stroke="black"/>
<path d="M92.3425,537.897h -6.80315" fill="none" stroke="black"/>
<path d="M99.1457,526.513h -13.6063" fill="none" stroke="black"/>
<path d="M92.3425,515.129h -6.80315" fill="none" stroke="black"/>
<path d="M92.3425,503.745h -6.80315" fill="none" stroke="black"/>
<path d="M92.3425,492.361h -6.80315" fill="none" stroke="black"/>
<path d="M92.3425,480.977h -6.80315" fill="none" stroke="black"/>
<path d="M99.1457,469.593h -13.6063" fill="none" stroke="black"/>
<path d="M92.3425,458.209h -6.80315" fill="none" stroke="black"/>
<path d="M92.3425,446.825h -6.80315" fill="none" stroke="black"/>
<path d="M92.3425,435.441h -6.80315" fill="none" stroke="black"/>
<path d="M92.3425,424.056h -6.80315" fill="none" stroke="black"/>
<path d="M99.1457,412.672h -13.6063" fill="none" stroke="black"/>
<path d="M92.3425,401.288h -6.80315" fill="none" stroke="black"/>
<path d="M92.3425,389.904h -6.80315" fill="none" stroke="black"/>
<path d="M92.3425,378.52h -6.80315" fill="none" stroke="black"/>
<path d="M92.3425,367.136h -6.80315" fill="none" stroke="black"/>
<path d="M99.1457,355.752h -13.6063" fill="none" stroke="black"/>
<path d="M92.3425,344.368h -6.80315" fill="none" stroke="black"/>
<path d="M92.3425,332.984h -6.80315" fill="none" stroke="black"/>
<path d="M92.3425,321.6h -6.80315" fill="none" stroke="black"/>
<path d="M92.3425,310.216h -6.80315" fill="none" stroke="black"/>
<path d="M99.1457,298.832h -13.6063" fill="none" stroke="black"/>
<path d="M92.3425,287.448h -6.80315" fill="none" stroke="black"/>
<path d="M92.3425,276.064h -6.80315" fill="none" stroke="black"/>
<path d="M92.3425,264.68h -6.80315" fill="none" stroke="black"/>
<path d="M92.3425,253.295h -6.80315" fill="none" stroke="black"/>
<path d="M99.1457,241.911h -13.6063" fill="none" stroke="black"/>
<path d="M92.3425,230.527h -6.80315" fill="none" stroke="black"/>
<path d="M92.3425,219.143h -6.80315" fill="none" stroke="black"/>
<path d="M92.3425,207.759h -6.80315" fill="none" stroke="black"/>
<path d="M92.3425,196.375h -6.80315" fill="none" stroke="black"/>
<path d="M99.1457,184.991h -13.6063" fill="none" stroke="black"/>
<path d="M92.3425,173.607h -6.80315" fill="none" stroke="black"/>
<path d="M92.3425,162.223h -6.80315" fill="none" stroke="black"/>
<path d="M92.3425,150.839h -6.80315" fill="none" stroke="black"/>
<path d="M92.3425,139.455h -6.80315" fill="none" stroke="black"/>
<path d="M99.1457,128.071h -13.6063" fill="none" stroke="black"/>
<path d="M92.3425,116.687h -6.80315" fill="none" stroke="black"/>
<path d="M92.3425,105.303h -6.80315" fill="none" stroke="black"/>
<path d="M92.3425,93.9186h -6.80315" fill="none" stroke="black"/>
<path d="M92.3425,82.5345h -6.80315" fill="none" stroke="black"/>
<path d="M99.1457,71.1504h -13.6063" fill="none" stroke="black"/>
<text xml:space="preserve" x="72.7875" y="647.339" fill="black" font-size="18.7041" font-family="Helvetica">0</text>
<text xml:space="preserve" x="51.6698" y="590.484" fill="black" font-size="18.7041" font-family="Helvetica">100</text>
<text xml:space="preserve" x="51.6698" y="533.628" fill="black" font-size="18.7041" font-family="Helvetica">200</text>
<text xml:space="preserve" x="51.6698" y="476.773" fill="black" font-size="18.7041" font-family="Helvetica">300</text>
<text xml:space="preserve" x="51.6698" y="419.917" fill="black" font-size="18.7041" font-family="Helvetica">400</text>
<text xml:space="preserve" x="51.6698" y="363.062" fill="black" font-size="18.7041" font-family="Helvetica">500</text>
<text xml:space="preserve" x="51.6698" y="305.395" fill="black" font-size="18.7041" font-family="Helvetica">600</text>
<text xml:space="preserve" x="51.6698" y="248.539" fill="black" font-size="18.7041" font-family="Helvetica">700</text>
<text xml:space="preserve" x="51.6698" y="191.684" fill="black" font-size="18.7041" font-family="Helvetica">800</text>
<text xml:space="preserve" x="51.6698" y="134.828" fill="black" font-size="18.7041" font-family="Helvetica">900</text>
<text xml:space="preserve" x="41.111" y="77.9731" fill="black" font-size="18.7041" font-family="Helvetica">1000</text>
<g transform="rotate(-90,30.5521,159.195)">
<text xml:space="preserve" x="30.5521" y="159.195" fill="black" font-size="18.7041" font-family="Helvetica">Events/Bin</text>
</g>
<text xml:space="preserve" x="283.965" y="35.5752" text-anchor="middle" fill="black" font-size="26.5059" font-family="Helvetica">Delta_rap_jj WRWR</text>
<path d="M85.5394,639.785h 10.6299v 0.569203h 10.6299v -1.13841h 10.6299v -0.569203h 10.6299v -1.70761h 10.6299v -6.26124h 10.6299v 1.13841h 10.6299v -13.0917h 10.6299v -16.5069h 10.6299v -10.8149h 10.6299v -43.2595h 10.6299v -23.3373h 10.6299v
 -42.121h 10.6299v -67.166h 10.6299v -38.1366h 10.6299v -58.0587h 10.6299v -14.7993h 10.6299v -23.9065h 10.6299v -35.2906h 10.6299v -19.3529h 10.6299v -14.2301h 10.6299v 29.5986h 10.6299v 27.3218h 10.6299v 53.5051h 10.6299v 19.9221h 10.6299v 32.4446h
 10.6299v 50.0899h 10.6299v 55.7819h 10.6299v 30.737h 10.6299v 43.2595h 10.6299v 31.3062h 10.6299v 26.1834h 10.6299v 12.5225h 10.6299v 6.83044h 10.6299v 3.98442h 10.6299v 3.41522h 10.6299v -0.569203h 10.6299v 1.70761h 10.6299v -1.13841h 10.6299v
 1.13841h 10.6299" fill="none" stroke="#33cc66" stroke-width="2"/>
<rect x="283.965" y="71.1504" width="226.772" height="142.301" fill="white"/>
<path d="M283.965,213.451h 226.772" fill="none" stroke="black"/>
<path d="M510.736,213.451v -142.301" fill="none" stroke="black"/>
<path d="M510.736,71.1504h -226.772" fill="none" stroke="black"/>
<path d="M283.965,71.1504v 142.301" fill="none" stroke="black"/>
<text xml:space="preserve" x="444.784" y="107.213" fill="black" font-size="7.87132" font-family="Helvetica"> = 2 TeV</text>
<text xml:space="preserve" x="441.535" y="111.274" fill="black" font-size="3.77614" font-family="Helvetica"> 6</text>
<text xml:space="preserve" x="436.662" y="109.65" fill="black" font-size="5.41422" font-family="Helvetica"> N</text>
<text xml:space="preserve" x="422.042" y="107.213" fill="black" font-size="7.87132" font-family="Helvetica"> = M</text>
<text xml:space="preserve" x="418.793" y="111.274" fill="black" font-size="3.77614" font-family="Helvetica"> 5</text>
<text xml:space="preserve" x="413.92" y="109.65" fill="black" font-size="5.41422" font-family="Helvetica"> N</text>
<text xml:space="preserve" x="399.3" y="107.213" fill="black" font-size="7.87132" font-family="Helvetica"> = M</text>
<text xml:space="preserve" x="396.051" y="112.086" fill="black" font-size="3.77614" font-family="Helvetica"> 4</text>
<text xml:space="preserve" x="391.178" y="110.462" fill="black" font-size="5.41422" font-family="Helvetica"> N</text>
<text xml:space="preserve" x="353.003" y="107.213" fill="black" font-size="7.87132" font-family="Helvetica"> = 1 TeV  M</text>
<text xml:space="preserve" x="350.567" y="111.274" fill="black" font-size="3.77614" font-family="Helvetica">R</text>
<text xml:space="preserve" x="345.693" y="109.65" fill="black" font-size="5.41422" font-family="Helvetica">W</text>
<text xml:space="preserve" x="340.008" y="107.213" fill="black" font-size="7.87132" font-family="Helvetica">M</text>
<path d="M292.469,106.726h 39.685" fill="none" stroke="#0000ff" stroke-width="2"/>
<text xml:space="preserve" x="469.963" y="178.688" fill="black" font-size="7.87132" font-family="Helvetica"> = 10 TeV</text>
<text xml:space="preserve" x="466.714" y="181.937" fill="black" font-size="3.77614" font-family="Helvetica"> 6</text>
<text xml:space="preserve" x="461.841" y="181.125" fill="black" font-size="5.41422" font-family="Helvetica"> N</text>
<text xml:space="preserve" x="447.221" y="178.688" fill="black" font-size="7.87132" font-family="Helvetica"> = M</text>
<text xml:space="preserve" x="443.972" y="182.749" fill="black" font-size="3.77614" font-family="Helvetica"> 5</text>
<text xml:space="preserve" x="439.098" y="181.937" fill="black" font-size="5.41422" font-family="Helvetica"> N</text>
<text xml:space="preserve" x="403.361" y="178.688" fill="black" font-size="7.87132" font-family="Helvetica"> = 2 TeV M</text>
<text xml:space="preserve" x="400.112" y="182.749" fill="black" font-size="3.77614" font-family="Helvetica"> 4</text>
<text xml:space="preserve" x="395.239" y="181.937" fill="black" font-size="5.41422" font-family="Helvetica"> N</text>
<text xml:space="preserve" x="353.003" y="178.688" fill="black" font-size="7.87132" font-family="Helvetica"> = 1 TeV    M</text>
<text xml:space="preserve" x="350.567" y="181.937" fill="black" font-size="3.77614" font-family="Helvetica">R</text>
<text xml:space="preserve" x="345.693" y="181.125" fill="black" font-size="5.41422" font-family="Helvetica">W</text>
<text xml:space="preserve" x="340.008" y="178.688" fill="black" font-size="7.87132" font-family="Helvetica">M</text>
<path d="M292.469,177.876h 39.685" fill="none" stroke="#33cc66" stroke-width="2"/></svg>
