<?xml version="1.0" standalone="no"?>
<svg width="567.429" height="710.791" viewBox="0 0 567.429 710.791" xmlns="http://www.w3.org/2000/svg" shape-rendering="crispEdges">
<title>
../plots/unweighted/delta_rap_jj_WRWR_plot.svg
</title>
<desc>
Creator: ROOT Version 6.22/00
CreationDate: Sun Nov 15 16:01:26 2020</desc>
<defs>
</defs>
<rect x="0.5" y="0" width="566.929" height="710.291" fill="white"/>
<rect x="85.5394" y="71.0291" width="425.197" height="568.232" fill="white"/>
<rect x="85.5394" y="71.0291" width="425.197" height="568.232" fill="none" stroke="black"/>
<rect x="85.5394" y="71.0291" width="425.197" height="568.232" fill="white"/>
<rect x="85.5394" y="71.0291" width="425.197" height="568.232" fill="none" stroke="black"/>
<path d="M85.5394,638.504h 10.6299v -0.378822h 10.6299v -0.757643h 21.2598v -6.43997h 10.6299v -2.27293h 10.6299v -9.47054h 10.6299v -3.03057h 10.6299v -10.2282h 10.6299v -10.9858h 10.6299v -15.1529h 10.6299v -19.6987h 10.6299v -26.8963h 10.6299v
 -29.5481h 10.6299v -16.6681h 10.6299v -28.4116h 10.6299v -21.214h 10.6299v -27.2752h 10.6299v -22.7293h 10.6299v -10.2282h 10.6299v -6.06115h 10.6299v 7.95525h 10.6299v 28.7904h 10.6299v 15.1529h 10.6299v 34.0939h 10.6299v 26.5175h 10.6299v 24.2446h
 10.6299v 26.5175h 10.6299v 26.5175h 10.6299v 9.84936h 10.6299v 25.7599h 10.6299v 7.19761h 10.6299v 13.6376h 10.6299v 4.92468h 10.6299v 7.95525h 10.6299v 1.89411h 10.6299v 3.03057h 10.6299v 1.89411h 10.6299v 0.757643h 10.6299v 0.757643h 10.6299"
 fill="none" stroke="#ff0000" stroke-width="2"/>
<path d="M85.5394,639.261h 425.197" fill="none" stroke="black"/>
<path d="M85.5394,623.28v 15.9815" fill="none" stroke="black"/>
<path d="M94.0433,631.271v 7.99077" fill="none" stroke="black"/>
<path d="M102.547,631.271v 7.99077" fill="none" stroke="black"/>
<path d="M111.051,631.271v 7.99077" fill="none" stroke="black"/>
<path d="M119.555,631.271v 7.99077" fill="none" stroke="black"/>
<path d="M128.059,623.28v 15.9815" fill="none" stroke="black"/>
<path d="M136.563,631.271v 7.99077" fill="none" stroke="black"/>
<path d="M145.067,631.271v 7.99077" fill="none" stroke="black"/>
<path d="M153.571,631.271v 7.99077" fill="none" stroke="black"/>
<path d="M162.075,631.271v 7.99077" fill="none" stroke="black"/>
<path d="M170.579,623.28v 15.9815" fill="none" stroke="black"/>
<path d="M179.083,631.271v 7.99077" fill="none" stroke="black"/>
<path d="M187.587,631.271v 7.99077" fill="none" stroke="black"/>
<path d="M196.091,631.271v 7.99077" fill="none" stroke="black"/>
<path d="M204.594,631.271v 7.99077" fill="none" stroke="black"/>
<path d="M213.098,623.28v 15.9815" fill="none" stroke="black"/>
<path d="M221.602,631.271v 7.99077" fill="none" stroke="black"/>
<path d="M230.106,631.271v 7.99077" fill="none" stroke="black"/>
<path d="M238.61,631.271v 7.99077" fill="none" stroke="black"/>
<path d="M247.114,631.271v 7.99077" fill="none" stroke="black"/>
<path d="M255.618,623.28v 15.9815" fill="none" stroke="black"/>
<path d="M264.122,631.271v 7.99077" fill="none" stroke="black"/>
<path d="M272.626,631.271v 7.99077" fill="none" stroke="black"/>
<path d="M281.13,631.271v 7.99077" fill="none" stroke="black"/>
<path d="M289.634,631.271v 7.99077" fill="none" stroke="black"/>
<path d="M298.138,623.28v 15.9815" fill="none" stroke="black"/>
<path d="M306.642,631.271v 7.99077" fill="none" stroke="black"/>
<path d="M315.146,631.271v 7.99077" fill="none" stroke="black"/>
<path d="M323.65,631.271v 7.99077" fill="none" stroke="black"/>
<path d="M332.154,631.271v 7.99077" fill="none" stroke="black"/>
<path d="M340.657,623.28v 15.9815" fill="none" stroke="black"/>
<path d="M349.161,631.271v 7.99077" fill="none" stroke="black"/>
<path d="M357.665,631.271v 7.99077" fill="none" stroke="black"/>
<path d="M366.169,631.271v 7.99077" fill="none" stroke="black"/>
<path d="M374.673,631.271v 7.99077" fill="none" stroke="black"/>
<path d="M383.177,623.28v 15.9815" fill="none" stroke="black"/>
<path d="M391.681,631.271v 7.99077" fill="none" stroke="black"/>
<path d="M400.185,631.271v 7.99077" fill="none" stroke="black"/>
<path d="M408.689,631.271v 7.99077" fill="none" stroke="black"/>
<path d="M417.193,631.271v 7.99077" fill="none" stroke="black"/>
<path d="M425.697,623.28v 15.9815" fill="none" stroke="black"/>
<path d="M434.201,631.271v 7.99077" fill="none" stroke="black"/>
<path d="M442.705,631.271v 7.99077" fill="none" stroke="black"/>
<path d="M451.209,631.271v 7.99077" fill="none" stroke="black"/>
<path d="M459.713,631.271v 7.99077" fill="none" stroke="black"/>
<path d="M468.217,623.28v 15.9815" fill="none" stroke="black"/>
<path d="M476.72,631.271v 7.99077" fill="none" stroke="black"/>
<path d="M485.224,631.271v 7.99077" fill="none" stroke="black"/>
<path d="M493.728,631.271v 7.99077" fill="none" stroke="black"/>
<path d="M502.232,631.271v 7.99077" fill="none" stroke="black"/>
<path d="M510.736,623.28v 15.9815" fill="none" stroke="black"/>
<text xml:space="preserve" x="85.2135" y="662.232" fill="black" font-size="18.7041" font-family="Helvetica">5</text>
<text xml:space="preserve" x="74.6244" y="662.232" fill="black" font-size="18.7041" font-family="Times">&#8722;</text>
<text xml:space="preserve" x="127.57" y="662.232" fill="black" font-size="18.7041" font-family="Helvetica">4</text>
<text xml:space="preserve" x="116.981" y="662.232" fill="black" font-size="18.7041" font-family="Times">&#8722;</text>
<text xml:space="preserve" x="169.927" y="662.232" fill="black" font-size="18.7041" font-family="Helvetica">3</text>
<text xml:space="preserve" x="159.338" y="662.232" fill="black" font-size="18.7041" font-family="Times">&#8722;</text>
<text xml:space="preserve" x="213.098" y="662.232" fill="black" font-size="18.7041" font-family="Helvetica">2</text>
<text xml:space="preserve" x="202.509" y="662.232" fill="black" font-size="18.7041" font-family="Times">&#8722;</text>
<text xml:space="preserve" x="257.084" y="662.232" fill="black" font-size="18.7041" font-family="Helvetica">1</text>
<text xml:space="preserve" x="246.495" y="662.232" fill="black" font-size="18.7041" font-family="Times">&#8722;</text>
<text xml:space="preserve" x="292.925" y="662.232" fill="black" font-size="18.7041" font-family="Helvetica">0</text>
<text xml:space="preserve" x="336.911" y="662.232" fill="black" font-size="18.7041" font-family="Helvetica">1</text>
<text xml:space="preserve" x="377.638" y="662.232" fill="black" font-size="18.7041" font-family="Helvetica">2</text>
<text xml:space="preserve" x="420.81" y="662.232" fill="black" font-size="18.7041" font-family="Helvetica">3</text>
<text xml:space="preserve" x="463.166" y="662.232" fill="black" font-size="18.7041" font-family="Helvetica">4</text>
<text xml:space="preserve" x="505.523" y="662.232" fill="black" font-size="18.7041" font-family="Helvetica">5</text>
<text xml:space="preserve" x="504.709" y="689.112" fill="black" font-size="12.6361" font-family="Helvetica">jj</text>
<text xml:space="preserve" x="494.934" y="678.523" fill="black" font-size="18.7041" font-family="Helvetica">y</text>
<text xml:space="preserve" x="483.53" y="678.523" fill="black" font-size="18.7041" font-family="Times">&#0916;</text>
<path d="M85.5394,639.261v -568.232" fill="none" stroke="black"/>
<path d="M99.1457,639.261h -13.6063" fill="none" stroke="black"/>
<path d="M92.3425,620.32h -6.80315" fill="none" stroke="black"/>
<path d="M92.3425,601.379h -6.80315" fill="none" stroke="black"/>
<path d="M92.3425,582.438h -6.80315" fill="none" stroke="black"/>
<path d="M99.1457,563.497h -13.6063" fill="none" stroke="black"/>
<path d="M92.3425,544.556h -6.80315" fill="none" stroke="black"/>
<path d="M92.3425,525.615h -6.80315" fill="none" stroke="black"/>
<path d="M92.3425,506.674h -6.80315" fill="none" stroke="black"/>
<path d="M99.1457,487.733h -13.6063" fill="none" stroke="black"/>
<path d="M92.3425,468.792h -6.80315" fill="none" stroke="black"/>
<path d="M92.3425,449.851h -6.80315" fill="none" stroke="black"/>
<path d="M92.3425,430.91h -6.80315" fill="none" stroke="black"/>
<path d="M99.1457,411.968h -13.6063" fill="none" stroke="black"/>
<path d="M92.3425,393.027h -6.80315" fill="none" stroke="black"/>
<path d="M92.3425,374.086h -6.80315" fill="none" stroke="black"/>
<path d="M92.3425,355.145h -6.80315" fill="none" stroke="black"/>
<path d="M99.1457,336.204h -13.6063" fill="none" stroke="black"/>
<path d="M92.3425,317.263h -6.80315" fill="none" stroke="black"/>
<path d="M92.3425,298.322h -6.80315" fill="none" stroke="black"/>
<path d="M92.3425,279.381h -6.80315" fill="none" stroke="black"/>
<path d="M99.1457,260.44h -13.6063" fill="none" stroke="black"/>
<path d="M92.3425,241.499h -6.80315" fill="none" stroke="black"/>
<path d="M92.3425,222.558h -6.80315" fill="none" stroke="black"/>
<path d="M92.3425,203.617h -6.80315" fill="none" stroke="black"/>
<path d="M99.1457,184.676h -13.6063" fill="none" stroke="black"/>
<path d="M92.3425,165.734h -6.80315" fill="none" stroke="black"/>
<path d="M92.3425,146.793h -6.80315" fill="none" stroke="black"/>
<path d="M92.3425,127.852h -6.80315" fill="none" stroke="black"/>
<path d="M99.1457,108.911h -13.6063" fill="none" stroke="black"/>
<path d="M99.1457,108.911h -13.6063" fill="none" stroke="black"/>
<path d="M92.3425,89.9701h -6.80315" fill="none" stroke="black"/>
<path d="M92.3425,71.0291h -6.80315" fill="none" stroke="black"/>
<text xml:space="preserve" x="72.1807" y="645.941" fill="black" font-size="18.7041" font-family="Helvetica">0</text>
<text xml:space="preserve" x="51.0023" y="570.187" fill="black" font-size="18.7041" font-family="Helvetica">200</text>
<text xml:space="preserve" x="51.0023" y="494.434" fill="black" font-size="18.7041" font-family="Helvetica">400</text>
<text xml:space="preserve" x="51.0023" y="418.68" fill="black" font-size="18.7041" font-family="Helvetica">600</text>
<text xml:space="preserve" x="51.0023" y="342.927" fill="black" font-size="18.7041" font-family="Helvetica">800</text>
<text xml:space="preserve" x="40.4131" y="267.173" fill="black" font-size="18.7041" font-family="Helvetica">1000</text>
<text xml:space="preserve" x="40.4131" y="191.42" fill="black" font-size="18.7041" font-family="Helvetica">1200</text>
<text xml:space="preserve" x="40.4131" y="115.667" fill="black" font-size="18.7041" font-family="Helvetica">1400</text>
<g transform="rotate(-90,30.6385,159.652)">
<text xml:space="preserve" x="30.6385" y="159.652" fill="black" font-size="18.7041" font-family="Helvetica">Events/Bin</text>
</g>
<text xml:space="preserve" x="283.965" y="35.5145" text-anchor="middle" fill="black" font-size="26.5059" font-family="Helvetica">Delta_rap_jj WRWR</text>
<path d="M85.5394,639.261h 10.6299v -1.13646h 10.6299v 0.757643h 10.6299v -0.378822h 10.6299v -1.51529h 10.6299v -1.13646h 10.6299v -4.16704h 10.6299v -1.51529h 10.6299v -17.047h 10.6299v -9.09172h 10.6299v -26.1387h 10.6299v -15.5317h 10.6299v
 -45.0798h 10.6299v -29.9269h 10.6299v -21.5928h 10.6299v -25.0022h 10.6299v -28.7904h 10.6299v -1.13646h 10.6299v -53.035h 10.6299v 17.047h 10.6299v -2.27293h 10.6299v 8.33407h 10.6299v 22.7293h 10.6299v 16.2893h 10.6299v 4.54586h 10.6299v 23.4869h
 10.6299v 50.0045h 10.6299v 36.3669h 10.6299v 25.0022h 10.6299v 19.6987h 10.6299v 21.9717h 10.6299v 19.3199h 10.6299v 6.43997h 10.6299v 4.54586h 10.6299v 4.16704h 10.6299v 1.13646h 10.6299v 2.65175h 10.6299v -0.378822h 21.2598v -0.378822h 10.6299"
 fill="none" stroke="#ffcc00" stroke-width="2"/>
<path d="M85.5394,638.883h 21.2598v -0.378822h 10.6299v -0.378822h 10.6299v -2.65175h 10.6299v -0.378822h 10.6299v -1.51529h 10.6299v -6.43997h 10.6299v -6.06115h 10.6299v -12.8799h 10.6299v -8.33407h 10.6299v -18.9411h 10.6299v -37.5033h 10.6299v
 -20.4564h 10.6299v -32.1998h 10.6299v -54.5503h 10.6299v -38.261h 10.6299v -58.7173h 10.6299v -1.51529h 10.6299v 22.3505h 10.6299v -18.1834h 10.6299v -11.7435h 10.6299v 44.7009h 10.6299v 15.5317h 10.6299v 59.8538h 10.6299v 37.8822h 10.6299v 34.4728h
 10.6299v 34.4728h 10.6299v 20.0775h 10.6299v 25.381h 10.6299v 7.57643h 10.6299v 10.2282h 10.6299v 8.33407h 10.6299v 2.65175h 10.6299v 2.27293h 10.6299v 4.16704h 10.6299v -0.378822h 10.6299v 1.13646h 10.6299v -0.378822h 10.6299v 0.757643h 10.6299"
 fill="none" stroke="#99cc00" stroke-width="2"/>
<path d="M85.5394,637.746h 10.6299v -2.27293h 10.6299v -1.13646h 10.6299v -6.06115h 10.6299v 1.89411h 21.2598v -10.607h 10.6299v -9.84936h 10.6299v -9.09172h 10.6299v -12.5011h 10.6299v -14.774h 10.6299v -14.774h 10.6299v -31.0634h 10.6299v -18.1834h
 10.6299v -23.1081h 10.6299v -28.4116h 10.6299v -17.4258h 10.6299v -26.8963h 10.6299v -33.7151h 10.6299v -14.3952h 10.6299v 31.0634h 10.6299v -1.51529h 10.6299v -0.757643h 10.6299v 24.2446h 10.6299v 29.9269h 10.6299v 40.9127h 10.6299v 20.8352h
 10.6299v 22.7293h 10.6299v 28.4116h 10.6299v 23.4869h 10.6299v 7.95525h 10.6299v 13.2588h 10.6299v 4.92468h 10.6299v 7.95525h 10.6299v 7.57643h 10.6299v 5.3035h 10.6299v 3.03057h 10.6299v -0.378822h 10.6299v -0.378822h 10.6299v 3.78822h 10.6299"
 fill="none" stroke="#999900" stroke-width="2"/>
<path d="M85.5394,638.504h 10.6299v -1.89411h 10.6299v -0.757643h 10.6299v -0.378822h 10.6299v -5.68232h 10.6299v -2.65175h 10.6299v -2.27293h 10.6299v -15.9105h 10.6299v -5.3035h 10.6299v -20.4564h 10.6299v -25.0022h 10.6299v -5.68232h 10.6299v
 -24.6234h 10.6299v -20.8352h 10.6299v -14.0164h 10.6299v -48.868h 10.6299v -12.8799h 10.6299v -21.5928h 10.6299v -18.9411h 10.6299v -11.3646h 10.6299v -4.54586h 10.6299v 37.8822h 10.6299v -6.43997h 10.6299v 20.8352h 10.6299v 40.1551h 10.6299v
 16.6681h 10.6299v 11.3646h 10.6299v 31.0634h 10.6299v 20.8352h 10.6299v 13.6376h 10.6299v 27.2752h 10.6299v 10.607h 10.6299v 6.43997h 10.6299v 10.9858h 10.6299v 12.1223h 10.6299v 4.16704h 10.6299v 2.27293h 10.6299v 1.13646h 10.6299v 2.65175h
 21.2598" fill="none" stroke="#009900" stroke-width="2"/>
<path d="M85.5394,638.504h 10.6299v 0.378822h 10.6299v -0.378822h 10.6299v -0.378822h 10.6299v -1.51529h 10.6299v -3.78822h 10.6299v -6.43997h 10.6299v 2.27293h 10.6299v -11.7435h 10.6299v -16.6681h 10.6299v -19.6987h 10.6299v -15.9105h 10.6299v
 -27.654h 10.6299v -20.8352h 10.6299v -31.0634h 10.6299v -37.5033h 10.6299v -40.5339h 10.6299v -29.9269h 10.6299v -19.3199h 10.6299v -13.2588h 10.6299v 21.9717h 10.6299v -7.19761h 10.6299v 7.57643h 10.6299v 51.1409h 10.6299v 31.0634h 10.6299v
 27.2752h 10.6299v 40.9127h 10.6299v 25.7599h 10.6299v 13.2588h 10.6299v 28.4116h 10.6299v 20.4564h 10.6299v 5.3035h 10.6299v 11.7435h 10.6299v 12.1223h 10.6299v -1.13646h 10.6299v 2.27293h 21.2598v 1.89411h 10.6299v 1.13646h 10.6299v -0.378822h
 10.6299" fill="none" stroke="#00ffff" stroke-width="2"/>
<path d="M85.5394,636.989h 21.2598v -0.757643h 10.6299v -3.03057h 10.6299v -2.27293h 10.6299v -5.3035h 10.6299v -10.2282h 10.6299v -2.65175h 10.6299v -11.3646h 10.6299v -18.5623h 10.6299v -15.9105h 10.6299v -13.6376h 10.6299v -14.3952h 10.6299v
 -19.3199h 10.6299v -39.7763h 10.6299v -37.1245h 10.6299v -16.6681h 10.6299v -9.47054h 10.6299v -31.821h 10.6299v 12.5011h 10.6299v -16.6681h 10.6299v -8.7129h 10.6299v 59.0962h 21.2598v 24.6234h 10.6299v 26.5175h 10.6299v 29.9269h 10.6299v 29.5481h
 10.6299v 14.0164h 10.6299v 12.5011h 10.6299v 13.6376h 10.6299v 25.7599h 10.6299v 5.3035h 10.6299v 9.84936h 10.6299v -2.27293h 10.6299v 8.7129h 10.6299v 1.89411h 10.6299v 6.06115h 10.6299v -0.757643h 10.6299v 2.27293h 10.6299" fill="none"
 stroke="#00ccff" stroke-width="2"/>
<rect x="227.272" y="71.0291" width="283.465" height="142.058" fill="white"/>
<path d="M227.272,213.087h 283.465" fill="none" stroke="black"/>
<path d="M510.736,213.087v -142.058" fill="none" stroke="black"/>
<path d="M510.736,71.0291h -283.465" fill="none" stroke="black"/>
<path d="M227.272,71.0291v 142.058" fill="none" stroke="black"/>
<text xml:space="preserve" x="457.464" y="85.5281" fill="black" font-size="13.8745" font-family="Helvetica"> = 1</text>
<text xml:space="preserve" x="449.319" y="92.0445" fill="black" font-size="6.44421" font-family="Helvetica">4,6</text>
<text xml:space="preserve" x="442.802" y="89.6009" fill="black" font-size="9.41632" font-family="Helvetica">N</text>
<text xml:space="preserve" x="389.042" y="85.5281" fill="black" font-size="13.8745" font-family="Helvetica"> = 1     M</text>
<text xml:space="preserve" x="385.784" y="92.0445" fill="black" font-size="6.44421" font-family="Helvetica">5</text>
<text xml:space="preserve" x="379.267" y="89.6009" fill="black" font-size="9.41632" font-family="Helvetica">N</text>
<text xml:space="preserve" x="321.434" y="85.5281" fill="black" font-size="13.8745" font-family="Helvetica"> = 1      M</text>
<text xml:space="preserve" x="317.361" y="92.8591" fill="black" font-size="6.44421" font-family="Helvetica">R</text>
<text xml:space="preserve" x="308.401" y="89.6009" fill="black" font-size="9.41632" font-family="Helvetica">W</text>
<text xml:space="preserve" x="297.812" y="85.5281" fill="black" font-size="13.8745" font-family="Helvetica">M</text>
<path d="M237.902,81.1761h 49.6063" fill="none" stroke="#ff0000" stroke-width="2"/>
<text xml:space="preserve" x="457.464" y="105.892" fill="black" font-size="13.8745" font-family="Helvetica"> = 2</text>
<text xml:space="preserve" x="449.319" y="112.408" fill="black" font-size="6.44421" font-family="Helvetica">4,6</text>
<text xml:space="preserve" x="442.802" y="109.965" fill="black" font-size="9.41632" font-family="Helvetica">N</text>
<text xml:space="preserve" x="389.042" y="105.892" fill="black" font-size="13.8745" font-family="Helvetica"> = 2     M</text>
<text xml:space="preserve" x="385.784" y="112.408" fill="black" font-size="6.44421" font-family="Helvetica">5</text>
<text xml:space="preserve" x="379.267" y="109.965" fill="black" font-size="9.41632" font-family="Helvetica">N</text>
<text xml:space="preserve" x="321.434" y="105.892" fill="black" font-size="13.8745" font-family="Helvetica"> = 1      M</text>
<text xml:space="preserve" x="317.361" y="113.223" fill="black" font-size="6.44421" font-family="Helvetica">R</text>
<text xml:space="preserve" x="308.401" y="109.965" fill="black" font-size="9.41632" font-family="Helvetica">W</text>
<text xml:space="preserve" x="297.812" y="105.892" fill="black" font-size="13.8745" font-family="Helvetica">M</text>
<path d="M237.902,101.47h 49.6063" fill="none" stroke="#ffcc00" stroke-width="2"/>
<text xml:space="preserve" x="457.464" y="126.256" fill="black" font-size="13.8745" font-family="Helvetica"> = 1</text>
<text xml:space="preserve" x="449.319" y="132.772" fill="black" font-size="6.44421" font-family="Helvetica">4,6</text>
<text xml:space="preserve" x="442.802" y="130.329" fill="black" font-size="9.41632" font-family="Helvetica">N</text>
<text xml:space="preserve" x="389.042" y="126.256" fill="black" font-size="13.8745" font-family="Helvetica"> = 1     M</text>
<text xml:space="preserve" x="385.784" y="132.772" fill="black" font-size="6.44421" font-family="Helvetica">5</text>
<text xml:space="preserve" x="379.267" y="130.329" fill="black" font-size="9.41632" font-family="Helvetica">N</text>
<text xml:space="preserve" x="321.434" y="126.256" fill="black" font-size="13.8745" font-family="Helvetica"> = 2      M</text>
<text xml:space="preserve" x="317.361" y="133.587" fill="black" font-size="6.44421" font-family="Helvetica">R</text>
<text xml:space="preserve" x="308.401" y="130.329" fill="black" font-size="9.41632" font-family="Helvetica">W</text>
<text xml:space="preserve" x="297.812" y="126.256" fill="black" font-size="13.8745" font-family="Helvetica">M</text>
<path d="M237.902,121.764h 49.6063" fill="none" stroke="#99cc00" stroke-width="2"/>
<text xml:space="preserve" x="457.464" y="146.62" fill="black" font-size="13.8745" font-family="Helvetica"> = 2</text>
<text xml:space="preserve" x="449.319" y="153.136" fill="black" font-size="6.44421" font-family="Helvetica">4,6</text>
<text xml:space="preserve" x="442.802" y="150.692" fill="black" font-size="9.41632" font-family="Helvetica">N</text>
<text xml:space="preserve" x="389.042" y="146.62" fill="black" font-size="13.8745" font-family="Helvetica"> = 2     M</text>
<text xml:space="preserve" x="385.784" y="153.136" fill="black" font-size="6.44421" font-family="Helvetica">5</text>
<text xml:space="preserve" x="379.267" y="150.692" fill="black" font-size="9.41632" font-family="Helvetica">N</text>
<text xml:space="preserve" x="321.434" y="146.62" fill="black" font-size="13.8745" font-family="Helvetica"> = 2      M</text>
<text xml:space="preserve" x="317.361" y="153.951" fill="black" font-size="6.44421" font-family="Helvetica">R</text>
<text xml:space="preserve" x="308.401" y="150.692" fill="black" font-size="9.41632" font-family="Helvetica">W</text>
<text xml:space="preserve" x="297.812" y="146.62" fill="black" font-size="13.8745" font-family="Helvetica">M</text>
<path d="M237.902,142.058h 49.6063" fill="none" stroke="#999900" stroke-width="2"/>
<text xml:space="preserve" x="457.464" y="166.169" fill="black" font-size="13.8745" font-family="Helvetica"> = 3</text>
<text xml:space="preserve" x="449.319" y="173.5" fill="black" font-size="6.44421" font-family="Helvetica">4,6</text>
<text xml:space="preserve" x="442.802" y="171.056" fill="black" font-size="9.41632" font-family="Helvetica">N</text>
<text xml:space="preserve" x="389.042" y="166.169" fill="black" font-size="13.8745" font-family="Helvetica"> = 3     M</text>
<text xml:space="preserve" x="385.784" y="172.685" fill="black" font-size="6.44421" font-family="Helvetica">5</text>
<text xml:space="preserve" x="379.267" y="170.242" fill="black" font-size="9.41632" font-family="Helvetica">N</text>
<text xml:space="preserve" x="321.434" y="166.169" fill="black" font-size="13.8745" font-family="Helvetica"> = 2      M</text>
<text xml:space="preserve" x="317.361" y="173.5" fill="black" font-size="6.44421" font-family="Helvetica">R</text>
<text xml:space="preserve" x="308.401" y="170.242" fill="black" font-size="9.41632" font-family="Helvetica">W</text>
<text xml:space="preserve" x="297.812" y="166.169" fill="black" font-size="13.8745" font-family="Helvetica">M</text>
<path d="M237.902,162.352h 49.6063" fill="none" stroke="#009900" stroke-width="2"/>
<text xml:space="preserve" x="457.464" y="186.533" fill="black" font-size="13.8745" font-family="Helvetica"> = 2</text>
<text xml:space="preserve" x="449.319" y="193.049" fill="black" font-size="6.44421" font-family="Helvetica">4,6</text>
<text xml:space="preserve" x="442.802" y="190.605" fill="black" font-size="9.41632" font-family="Helvetica">N</text>
<text xml:space="preserve" x="389.042" y="186.533" fill="black" font-size="13.8745" font-family="Helvetica"> = 2     M</text>
<text xml:space="preserve" x="385.784" y="193.864" fill="black" font-size="6.44421" font-family="Helvetica">5</text>
<text xml:space="preserve" x="379.267" y="191.42" fill="black" font-size="9.41632" font-family="Helvetica">N</text>
<text xml:space="preserve" x="321.434" y="186.533" fill="black" font-size="13.8745" font-family="Helvetica"> = 3      M</text>
<text xml:space="preserve" x="317.361" y="193.864" fill="black" font-size="6.44421" font-family="Helvetica">R</text>
<text xml:space="preserve" x="308.401" y="190.605" fill="black" font-size="9.41632" font-family="Helvetica">W</text>
<text xml:space="preserve" x="297.812" y="186.533" fill="black" font-size="13.8745" font-family="Helvetica">M</text>
<path d="M237.902,182.646h 49.6063" fill="none" stroke="#00ffff" stroke-width="2"/>
<text xml:space="preserve" x="457.464" y="206.897" fill="black" font-size="13.8745" font-family="Helvetica"> = 3</text>
<text xml:space="preserve" x="449.319" y="214.228" fill="black" font-size="6.44421" font-family="Helvetica">4,6</text>
<text xml:space="preserve" x="442.802" y="211.784" fill="black" font-size="9.41632" font-family="Helvetica">N</text>
<text xml:space="preserve" x="389.042" y="206.897" fill="black" font-size="13.8745" font-family="Helvetica"> = 3     M</text>
<text xml:space="preserve" x="385.784" y="214.228" fill="black" font-size="6.44421" font-family="Helvetica">5</text>
<text xml:space="preserve" x="379.267" y="211.784" fill="black" font-size="9.41632" font-family="Helvetica">N</text>
<text xml:space="preserve" x="321.434" y="206.897" fill="black" font-size="13.8745" font-family="Helvetica"> = 3      M</text>
<text xml:space="preserve" x="317.361" y="214.228" fill="black" font-size="6.44421" font-family="Helvetica">R</text>
<text xml:space="preserve" x="308.401" y="210.969" fill="black" font-size="9.41632" font-family="Helvetica">W</text>
<text xml:space="preserve" x="297.812" y="206.897" fill="black" font-size="13.8745" font-family="Helvetica">M</text>
<path d="M237.902,202.94h 49.6063" fill="none" stroke="#00ccff" stroke-width="2"/></svg>
