<?xml version="1.0" standalone="no"?>
<svg width="567.429" height="710.791" viewBox="0 0 567.429 710.791" xmlns="http://www.w3.org/2000/svg" shape-rendering="crispEdges">
<title>
../plots/unweighted/dilep_centrality_WRWR_plot.svg
</title>
<desc>
Creator: ROOT Version 6.22/00
CreationDate: Sun Nov 15 16:01:28 2020</desc>
<defs>
</defs>
<rect x="0.5" y="0" width="566.929" height="710.291" fill="white"/>
<rect x="85.5394" y="71.0291" width="425.197" height="568.232" fill="white"/>
<rect x="85.5394" y="71.0291" width="425.197" height="568.232" fill="none" stroke="black"/>
<rect x="85.5394" y="71.0291" width="425.197" height="568.232" fill="white"/>
<rect x="85.5394" y="71.0291" width="425.197" height="568.232" fill="none" stroke="black"/>
<path d="M85.5394,148.451h 10.6299v 207.263h 10.6299v 131.404h 10.6299v 59.5223h 10.6299v 30.5425h 10.6299v 15.7684h 10.6299v 12.6432h 10.6299v 7.52908h 10.6299v 5.96644h 10.6299v 4.68792h 10.6299v 2.55705h 10.6299v 1.42058h 10.6299v 2.84116h
 10.6299v 2.41499h 10.6299v -0.284116h 10.6299v 0.142058h 10.6299v 1.13646h 21.2598v 0.426174h 10.6299v -0.426174h 10.6299v 1.56264h 10.6299v 0.284116h 10.6299v 1.7047h 10.6299v -0.71029h 10.6299v -0.994407h 10.6299v 0.852349h 10.6299v 0.284116h
 10.6299v 0.568232h 10.6299v -0.426174h 10.6299v 0.284116h 10.6299v 0.71029h 10.6299v -0.426174h 21.2598v 0.426174h 10.6299v 0.568232h 10.6299v -0.852349h 10.6299v 0.284116h 10.6299v -0.142058h 10.6299v 0.284116h 10.6299v 0.142058h 10.6299"
 fill="none" stroke="#ff0000" stroke-width="2"/>
<path d="M85.5394,639.261h 425.197" fill="none" stroke="black"/>
<path d="M85.5394,623.28v 15.9815" fill="none" stroke="black"/>
<path d="M99.7126,631.271v 7.99077" fill="none" stroke="black"/>
<path d="M113.886,631.271v 7.99077" fill="none" stroke="black"/>
<path d="M128.059,631.271v 7.99077" fill="none" stroke="black"/>
<path d="M142.232,623.28v 15.9815" fill="none" stroke="black"/>
<path d="M156.406,631.271v 7.99077" fill="none" stroke="black"/>
<path d="M170.579,631.271v 7.99077" fill="none" stroke="black"/>
<path d="M184.752,631.271v 7.99077" fill="none" stroke="black"/>
<path d="M198.925,623.28v 15.9815" fill="none" stroke="black"/>
<path d="M213.098,631.271v 7.99077" fill="none" stroke="black"/>
<path d="M227.272,631.271v 7.99077" fill="none" stroke="black"/>
<path d="M241.445,631.271v 7.99077" fill="none" stroke="black"/>
<path d="M255.618,623.28v 15.9815" fill="none" stroke="black"/>
<path d="M269.791,631.271v 7.99077" fill="none" stroke="black"/>
<path d="M283.965,631.271v 7.99077" fill="none" stroke="black"/>
<path d="M298.138,631.271v 7.99077" fill="none" stroke="black"/>
<path d="M312.311,623.28v 15.9815" fill="none" stroke="black"/>
<path d="M326.484,631.271v 7.99077" fill="none" stroke="black"/>
<path d="M340.657,631.271v 7.99077" fill="none" stroke="black"/>
<path d="M354.831,631.271v 7.99077" fill="none" stroke="black"/>
<path d="M369.004,623.28v 15.9815" fill="none" stroke="black"/>
<path d="M383.177,631.271v 7.99077" fill="none" stroke="black"/>
<path d="M397.35,631.271v 7.99077" fill="none" stroke="black"/>
<path d="M411.524,631.271v 7.99077" fill="none" stroke="black"/>
<path d="M425.697,623.28v 15.9815" fill="none" stroke="black"/>
<path d="M439.87,631.271v 7.99077" fill="none" stroke="black"/>
<path d="M454.043,631.271v 7.99077" fill="none" stroke="black"/>
<path d="M468.217,631.271v 7.99077" fill="none" stroke="black"/>
<path d="M482.39,623.28v 15.9815" fill="none" stroke="black"/>
<path d="M482.39,623.28v 15.9815" fill="none" stroke="black"/>
<path d="M496.563,631.271v 7.99077" fill="none" stroke="black"/>
<path d="M510.736,631.271v 7.99077" fill="none" stroke="black"/>
<text xml:space="preserve" x="80.3262" y="662.232" fill="black" font-size="18.7041" font-family="Helvetica">0</text>
<text xml:space="preserve" x="137.345" y="662.232" fill="black" font-size="18.7041" font-family="Helvetica">2</text>
<text xml:space="preserve" x="193.549" y="662.232" fill="black" font-size="18.7041" font-family="Helvetica">4</text>
<text xml:space="preserve" x="250.568" y="662.232" fill="black" font-size="18.7041" font-family="Helvetica">6</text>
<text xml:space="preserve" x="306.772" y="662.232" fill="black" font-size="18.7041" font-family="Helvetica">8</text>
<text xml:space="preserve" x="358.089" y="662.232" fill="black" font-size="18.7041" font-family="Helvetica">10</text>
<text xml:space="preserve" x="415.108" y="662.232" fill="black" font-size="18.7041" font-family="Helvetica">12</text>
<text xml:space="preserve" x="471.312" y="662.232" fill="black" font-size="18.7041" font-family="Helvetica">14</text>
<text xml:space="preserve" x="507.152" y="685.039" fill="black" font-size="18.7041" font-family="Helvetica">|</text>
<text xml:space="preserve" x="502.265" y="672.006" fill="black" font-size="12.6361" font-family="Helvetica">*</text>
<text xml:space="preserve" x="502.265" y="694.814" fill="black" font-size="12.6361" font-family="Helvetica">ll</text>
<text xml:space="preserve" x="488.417" y="685.039" fill="black" font-size="18.7041" font-family="Helvetica">|z</text>
<path d="M85.5394,639.261v -568.232" fill="none" stroke="black"/>
<path d="M99.1457,639.261h -13.6063" fill="none" stroke="black"/>
<path d="M92.3425,625.056h -6.80315" fill="none" stroke="black"/>
<path d="M92.3425,610.85h -6.80315" fill="none" stroke="black"/>
<path d="M92.3425,596.644h -6.80315" fill="none" stroke="black"/>
<path d="M92.3425,582.438h -6.80315" fill="none" stroke="black"/>
<path d="M99.1457,568.232h -13.6063" fill="none" stroke="black"/>
<path d="M92.3425,554.027h -6.80315" fill="none" stroke="black"/>
<path d="M92.3425,539.821h -6.80315" fill="none" stroke="black"/>
<path d="M92.3425,525.615h -6.80315" fill="none" stroke="black"/>
<path d="M92.3425,511.409h -6.80315" fill="none" stroke="black"/>
<path d="M99.1457,497.203h -13.6063" fill="none" stroke="black"/>
<path d="M92.3425,482.998h -6.80315" fill="none" stroke="black"/>
<path d="M92.3425,468.792h -6.80315" fill="none" stroke="black"/>
<path d="M92.3425,454.586h -6.80315" fill="none" stroke="black"/>
<path d="M92.3425,440.38h -6.80315" fill="none" stroke="black"/>
<path d="M99.1457,426.174h -13.6063" fill="none" stroke="black"/>
<path d="M92.3425,411.968h -6.80315" fill="none" stroke="black"/>
<path d="M92.3425,397.763h -6.80315" fill="none" stroke="black"/>
<path d="M92.3425,383.557h -6.80315" fill="none" stroke="black"/>
<path d="M92.3425,369.351h -6.80315" fill="none" stroke="black"/>
<path d="M99.1457,355.145h -13.6063" fill="none" stroke="black"/>
<path d="M92.3425,340.939h -6.80315" fill="none" stroke="black"/>
<path d="M92.3425,326.734h -6.80315" fill="none" stroke="black"/>
<path d="M92.3425,312.528h -6.80315" fill="none" stroke="black"/>
<path d="M92.3425,298.322h -6.80315" fill="none" stroke="black"/>
<path d="M99.1457,284.116h -13.6063" fill="none" stroke="black"/>
<path d="M92.3425,269.91h -6.80315" fill="none" stroke="black"/>
<path d="M92.3425,255.705h -6.80315" fill="none" stroke="black"/>
<path d="M92.3425,241.499h -6.80315" fill="none" stroke="black"/>
<path d="M92.3425,227.293h -6.80315" fill="none" stroke="black"/>
<path d="M99.1457,213.087h -13.6063" fill="none" stroke="black"/>
<path d="M92.3425,198.881h -6.80315" fill="none" stroke="black"/>
<path d="M92.3425,184.676h -6.80315" fill="none" stroke="black"/>
<path d="M92.3425,170.47h -6.80315" fill="none" stroke="black"/>
<path d="M92.3425,156.264h -6.80315" fill="none" stroke="black"/>
<path d="M99.1457,142.058h -13.6063" fill="none" stroke="black"/>
<path d="M92.3425,127.852h -6.80315" fill="none" stroke="black"/>
<path d="M92.3425,113.646h -6.80315" fill="none" stroke="black"/>
<path d="M92.3425,99.4407h -6.80315" fill="none" stroke="black"/>
<path d="M92.3425,85.2349h -6.80315" fill="none" stroke="black"/>
<path d="M99.1457,71.0291h -13.6063" fill="none" stroke="black"/>
<text xml:space="preserve" x="72.1807" y="645.941" fill="black" font-size="18.7041" font-family="Helvetica">0</text>
<text xml:space="preserve" x="51.0023" y="575.075" fill="black" font-size="18.7041" font-family="Helvetica">500</text>
<text xml:space="preserve" x="40.4131" y="504.208" fill="black" font-size="18.7041" font-family="Helvetica">1000</text>
<text xml:space="preserve" x="40.4131" y="433.342" fill="black" font-size="18.7041" font-family="Helvetica">1500</text>
<text xml:space="preserve" x="40.4131" y="362.476" fill="black" font-size="18.7041" font-family="Helvetica">2000</text>
<text xml:space="preserve" x="40.4131" y="290.796" fill="black" font-size="18.7041" font-family="Helvetica">2500</text>
<text xml:space="preserve" x="40.4131" y="219.929" fill="black" font-size="18.7041" font-family="Helvetica">3000</text>
<text xml:space="preserve" x="40.4131" y="149.063" fill="black" font-size="18.7041" font-family="Helvetica">3500</text>
<text xml:space="preserve" x="40.4131" y="78.1971" fill="black" font-size="18.7041" font-family="Helvetica">4000</text>
<g transform="rotate(-90,30.6385,159.652)">
<text xml:space="preserve" x="30.6385" y="159.652" fill="black" font-size="18.7041" font-family="Helvetica">Events/Bin</text>
</g>
<text xml:space="preserve" x="283.965" y="35.5145" text-anchor="middle" fill="black" font-size="26.5059" font-family="Helvetica">dilep_centrality WRWR</text>
<path d="M85.5394,232.691h 10.6299v 114.783h 10.6299v 108.674h 10.6299v 71.8814h 10.6299v 35.9407h 10.6299v 20.5984h 10.6299v 16.1946h 10.6299v 9.94407h 10.6299v 4.11968h 10.6299v 5.96644h 10.6299v 3.69351h 10.6299v -0.994407h 10.6299v 5.25615h
 10.6299v 0.568232h 10.6299v 1.84676h 10.6299v 1.56264h 10.6299v -0.852349h 10.6299v 2.98322h 10.6299v -1.84676h 10.6299v 0.284116h 10.6299v 3.55145h 10.6299v -0.284116h 10.6299v -0.284116h 10.6299v 0.568232h 10.6299v 0.284116h 10.6299v -0.284116h
 10.6299v 0.426174h 10.6299v -1.42058h 10.6299v 0.568232h 10.6299v 0.994407h 21.2598v 0.426174h 10.6299v -0.284116h 21.2598v 0.568232h 10.6299v 0.284116h 10.6299v -0.426174h 10.6299v -0.142058h 10.6299v 0.142058h 10.6299v 0.568232h 10.6299"
 fill="none" stroke="#ffcc00" stroke-width="2"/>
<path d="M85.5394,286.815h 10.6299v 88.076h 10.6299v 89.7807h 10.6299v 50.1465h 10.6299v 40.7707h 10.6299v 25.1443h 10.6299v 11.0805h 10.6299v 10.7964h 10.6299v 10.2282h 10.6299v 4.97203h 10.6299v 4.82998h 10.6299v 1.7047h 10.6299v 2.55705h 10.6299v
 0.71029h 10.6299v 3.12528h 10.6299v 0.568232h 10.6299v 0.568232h 10.6299v 1.42058h 10.6299v 1.56264h 10.6299v -0.852349h 10.6299v 1.13646h 10.6299v -3.69351h 10.6299v 4.26174h 10.6299v -1.42058h 10.6299v 2.41499h 10.6299v -0.142058h 10.6299v
 0.426174h 10.6299v -0.994407h 10.6299v 0.71029h 10.6299v -0.284116h 10.6299v 1.42058h 10.6299v -0.568232h 21.2598v -0.142058h 10.6299v 0.568232h 10.6299v 0.568232h 10.6299v -0.994407h 10.6299v 0.994407h 10.6299v -0.284116h 10.6299v -0.568232h
 10.6299" fill="none" stroke="#99cc00" stroke-width="2"/>
<path d="M85.5394,117.482h 10.6299v 248.744h 10.6299v 119.045h 10.6299v 53.698h 10.6299v 38.7819h 10.6299v 16.9049h 10.6299v 13.9217h 10.6299v 7.8132h 10.6299v 4.4038h 10.6299v 1.56264h 10.6299v 5.82438h 10.6299v 2.98322h 10.6299v -2.6991h 10.6299v
 3.12528h 10.6299v 0.71029h 10.6299v 0.426174h 10.6299v 1.27852h 10.6299v 0.426174h 10.6299v -0.142058h 10.6299v 1.56264h 10.6299v 0.284116h 10.6299v -0.142058h 10.6299v 1.13646h 10.6299v -1.42058h 10.6299v 0.426174h 10.6299v 0.71029h 10.6299v
 1.13646h 10.6299v -1.42058h 10.6299v 1.13646h 10.6299v -0.568232h 10.6299v 0.568232h 10.6299v 1.13646h 10.6299v -1.13646h 10.6299v 0.71029h 21.2598v -0.284116h 10.6299v 0.142058h 21.2598v 0.568232h 10.6299v -0.568232h 10.6299" fill="none"
 stroke="#999900" stroke-width="2"/>
<path d="M85.5394,121.602h 10.6299v 216.639h 10.6299v 143.621h 10.6299v 61.9373h 10.6299v 36.0828h 10.6299v 21.4508h 10.6299v 5.11409h 10.6299v 6.53467h 10.6299v 7.67114h 10.6299v 3.83557h 10.6299v 2.98322h 10.6299v 2.27293h 10.6299v -0.994407h
 10.6299v 3.26734h 10.6299v 0.568232h 10.6299v 2.27293h 21.2598v -1.56264h 10.6299v 1.98881h 10.6299v -0.426174h 10.6299v 0.994407h 10.6299v 0.568232h 10.6299v 0.284116h 10.6299v 0.426174h 10.6299v -1.27852h 10.6299v 1.42058h 10.6299v 0.142058h
 10.6299v -0.568232h 10.6299v 0.568232h 10.6299v 0.284116h 10.6299v 0.426174h 10.6299v -0.852349h 10.6299v 0.426174h 10.6299v 0.284116h 10.6299v 0.568232h 10.6299v -0.426174h 10.6299v 0.142058h 10.6299v 0.284116h 10.6299v -0.568232h 10.6299v
 -0.142058h 10.6299" fill="none" stroke="#009900" stroke-width="2"/>
<path d="M85.5394,224.31h 10.6299v 123.164h 10.6299v 122.596h 10.6299v 66.4832h 10.6299v 25.9966h 10.6299v 22.019h 10.6299v 11.0805h 10.6299v 11.3646h 10.6299v 10.0861h 10.6299v 3.69351h 10.6299v 2.55705h 10.6299v 5.39821h 10.6299v -1.84676h 10.6299v
 2.27293h 10.6299v 3.40939h 10.6299v -0.426174h 10.6299v 1.7047h 10.6299v -1.42058h 10.6299v 1.13646h 10.6299v 0.426174h 10.6299v 2.55705h 10.6299v -0.568232h 10.6299v 0.142058h 10.6299v -1.13646h 10.6299v 1.7047h 10.6299v -0.142058h 10.6299v
 0.284116h 10.6299v 0.994407h 10.6299v -0.568232h 10.6299v 0.142058h 10.6299v 0.142058h 10.6299v 0.852349h 10.6299v -0.71029h 10.6299v -0.284116h 10.6299v 0.568232h 10.6299v -0.71029h 10.6299v 0.994407h 10.6299v -0.284116h 10.6299v 0.568232h 10.6299v
 -0.71029h 10.6299" fill="none" stroke="#00ffff" stroke-width="2"/>
<path d="M85.5394,110.379h 10.6299v 257.978h 10.6299v 115.493h 10.6299v 66.057h 10.6299v 27.9854h 10.6299v 18.7517h 10.6299v 9.23378h 10.6299v 10.5123h 10.6299v 2.27293h 10.6299v 1.98881h 10.6299v 5.96644h 10.6299v 2.27293h 10.6299v 1.84676h 10.6299v
 0.284116h 10.6299v 1.27852h 10.6299v 1.42058h 10.6299v 1.13646h 10.6299v -0.426174h 10.6299v -0.142058h 10.6299v 2.13087h 10.6299v -0.142058h 10.6299v 0.142058h 10.6299v 0.284116h 10.6299v -1.13646h 10.6299v 0.994407h 10.6299v 0.852349h 10.6299v
 0.852349h 10.6299v -1.42058h 10.6299v 0.284116h 10.6299v 0.71029h 31.8898v -0.142058h 10.6299v 0.568232h 10.6299v -0.284116h 10.6299v 0.426174h 10.6299v -0.71029h 10.6299v 0.852349h 21.2598v -0.568232h 10.6299" fill="none" stroke="#00ccff"
 stroke-width="2"/>
<rect x="227.272" y="71.0291" width="283.465" height="142.058" fill="white"/>
<path d="M227.272,213.087h 283.465" fill="none" stroke="black"/>
<path d="M510.736,213.087v -142.058" fill="none" stroke="black"/>
<path d="M510.736,71.0291h -283.465" fill="none" stroke="black"/>
<path d="M227.272,71.0291v 142.058" fill="none" stroke="black"/>
<text xml:space="preserve" x="457.464" y="85.5281" fill="black" font-size="13.8745" font-family="Helvetica"> = 1</text>
<text xml:space="preserve" x="449.319" y="92.0445" fill="black" font-size="6.44421" font-family="Helvetica">4,6</text>
<text xml:space="preserve" x="442.802" y="89.6009" fill="black" font-size="9.41632" font-family="Helvetica">N</text>
<text xml:space="preserve" x="389.042" y="85.5281" fill="black" font-size="13.8745" font-family="Helvetica"> = 1     M</text>
<text xml:space="preserve" x="385.784" y="92.0445" fill="black" font-size="6.44421" font-family="Helvetica">5</text>
<text xml:space="preserve" x="379.267" y="89.6009" fill="black" font-size="9.41632" font-family="Helvetica">N</text>
<text xml:space="preserve" x="321.434" y="85.5281" fill="black" font-size="13.8745" font-family="Helvetica"> = 1      M</text>
<text xml:space="preserve" x="317.361" y="92.8591" fill="black" font-size="6.44421" font-family="Helvetica">R</text>
<text xml:space="preserve" x="308.401" y="89.6009" fill="black" font-size="9.41632" font-family="Helvetica">W</text>
<text xml:space="preserve" x="297.812" y="85.5281" fill="black" font-size="13.8745" font-family="Helvetica">M</text>
<path d="M237.902,81.1761h 49.6063" fill="none" stroke="#ff0000" stroke-width="2"/>
<text xml:space="preserve" x="457.464" y="105.892" fill="black" font-size="13.8745" font-family="Helvetica"> = 2</text>
<text xml:space="preserve" x="449.319" y="112.408" fill="black" font-size="6.44421" font-family="Helvetica">4,6</text>
<text xml:space="preserve" x="442.802" y="109.965" fill="black" font-size="9.41632" font-family="Helvetica">N</text>
<text xml:space="preserve" x="389.042" y="105.892" fill="black" font-size="13.8745" font-family="Helvetica"> = 2     M</text>
<text xml:space="preserve" x="385.784" y="112.408" fill="black" font-size="6.44421" font-family="Helvetica">5</text>
<text xml:space="preserve" x="379.267" y="109.965" fill="black" font-size="9.41632" font-family="Helvetica">N</text>
<text xml:space="preserve" x="321.434" y="105.892" fill="black" font-size="13.8745" font-family="Helvetica"> = 1      M</text>
<text xml:space="preserve" x="317.361" y="113.223" fill="black" font-size="6.44421" font-family="Helvetica">R</text>
<text xml:space="preserve" x="308.401" y="109.965" fill="black" font-size="9.41632" font-family="Helvetica">W</text>
<text xml:space="preserve" x="297.812" y="105.892" fill="black" font-size="13.8745" font-family="Helvetica">M</text>
<path d="M237.902,101.47h 49.6063" fill="none" stroke="#ffcc00" stroke-width="2"/>
<text xml:space="preserve" x="457.464" y="126.256" fill="black" font-size="13.8745" font-family="Helvetica"> = 1</text>
<text xml:space="preserve" x="449.319" y="132.772" fill="black" font-size="6.44421" font-family="Helvetica">4,6</text>
<text xml:space="preserve" x="442.802" y="130.329" fill="black" font-size="9.41632" font-family="Helvetica">N</text>
<text xml:space="preserve" x="389.042" y="126.256" fill="black" font-size="13.8745" font-family="Helvetica"> = 1     M</text>
<text xml:space="preserve" x="385.784" y="132.772" fill="black" font-size="6.44421" font-family="Helvetica">5</text>
<text xml:space="preserve" x="379.267" y="130.329" fill="black" font-size="9.41632" font-family="Helvetica">N</text>
<text xml:space="preserve" x="321.434" y="126.256" fill="black" font-size="13.8745" font-family="Helvetica"> = 2      M</text>
<text xml:space="preserve" x="317.361" y="133.587" fill="black" font-size="6.44421" font-family="Helvetica">R</text>
<text xml:space="preserve" x="308.401" y="130.329" fill="black" font-size="9.41632" font-family="Helvetica">W</text>
<text xml:space="preserve" x="297.812" y="126.256" fill="black" font-size="13.8745" font-family="Helvetica">M</text>
<path d="M237.902,121.764h 49.6063" fill="none" stroke="#99cc00" stroke-width="2"/>
<text xml:space="preserve" x="457.464" y="146.62" fill="black" font-size="13.8745" font-family="Helvetica"> = 2</text>
<text xml:space="preserve" x="449.319" y="153.136" fill="black" font-size="6.44421" font-family="Helvetica">4,6</text>
<text xml:space="preserve" x="442.802" y="150.692" fill="black" font-size="9.41632" font-family="Helvetica">N</text>
<text xml:space="preserve" x="389.042" y="146.62" fill="black" font-size="13.8745" font-family="Helvetica"> = 2     M</text>
<text xml:space="preserve" x="385.784" y="153.136" fill="black" font-size="6.44421" font-family="Helvetica">5</text>
<text xml:space="preserve" x="379.267" y="150.692" fill="black" font-size="9.41632" font-family="Helvetica">N</text>
<text xml:space="preserve" x="321.434" y="146.62" fill="black" font-size="13.8745" font-family="Helvetica"> = 2      M</text>
<text xml:space="preserve" x="317.361" y="153.951" fill="black" font-size="6.44421" font-family="Helvetica">R</text>
<text xml:space="preserve" x="308.401" y="150.692" fill="black" font-size="9.41632" font-family="Helvetica">W</text>
<text xml:space="preserve" x="297.812" y="146.62" fill="black" font-size="13.8745" font-family="Helvetica">M</text>
<path d="M237.902,142.058h 49.6063" fill="none" stroke="#999900" stroke-width="2"/>
<text xml:space="preserve" x="457.464" y="166.169" fill="black" font-size="13.8745" font-family="Helvetica"> = 3</text>
<text xml:space="preserve" x="449.319" y="173.5" fill="black" font-size="6.44421" font-family="Helvetica">4,6</text>
<text xml:space="preserve" x="442.802" y="171.056" fill="black" font-size="9.41632" font-family="Helvetica">N</text>
<text xml:space="preserve" x="389.042" y="166.169" fill="black" font-size="13.8745" font-family="Helvetica"> = 3     M</text>
<text xml:space="preserve" x="385.784" y="172.685" fill="black" font-size="6.44421" font-family="Helvetica">5</text>
<text xml:space="preserve" x="379.267" y="170.242" fill="black" font-size="9.41632" font-family="Helvetica">N</text>
<text xml:space="preserve" x="321.434" y="166.169" fill="black" font-size="13.8745" font-family="Helvetica"> = 2      M</text>
<text xml:space="preserve" x="317.361" y="173.5" fill="black" font-size="6.44421" font-family="Helvetica">R</text>
<text xml:space="preserve" x="308.401" y="170.242" fill="black" font-size="9.41632" font-family="Helvetica">W</text>
<text xml:space="preserve" x="297.812" y="166.169" fill="black" font-size="13.8745" font-family="Helvetica">M</text>
<path d="M237.902,162.352h 49.6063" fill="none" stroke="#009900" stroke-width="2"/>
<text xml:space="preserve" x="457.464" y="186.533" fill="black" font-size="13.8745" font-family="Helvetica"> = 2</text>
<text xml:space="preserve" x="449.319" y="193.049" fill="black" font-size="6.44421" font-family="Helvetica">4,6</text>
<text xml:space="preserve" x="442.802" y="190.605" fill="black" font-size="9.41632" font-family="Helvetica">N</text>
<text xml:space="preserve" x="389.042" y="186.533" fill="black" font-size="13.8745" font-family="Helvetica"> = 2     M</text>
<text xml:space="preserve" x="385.784" y="193.864" fill="black" font-size="6.44421" font-family="Helvetica">5</text>
<text xml:space="preserve" x="379.267" y="191.42" fill="black" font-size="9.41632" font-family="Helvetica">N</text>
<text xml:space="preserve" x="321.434" y="186.533" fill="black" font-size="13.8745" font-family="Helvetica"> = 3      M</text>
<text xml:space="preserve" x="317.361" y="193.864" fill="black" font-size="6.44421" font-family="Helvetica">R</text>
<text xml:space="preserve" x="308.401" y="190.605" fill="black" font-size="9.41632" font-family="Helvetica">W</text>
<text xml:space="preserve" x="297.812" y="186.533" fill="black" font-size="13.8745" font-family="Helvetica">M</text>
<path d="M237.902,182.646h 49.6063" fill="none" stroke="#00ffff" stroke-width="2"/>
<text xml:space="preserve" x="457.464" y="206.897" fill="black" font-size="13.8745" font-family="Helvetica"> = 3</text>
<text xml:space="preserve" x="449.319" y="214.228" fill="black" font-size="6.44421" font-family="Helvetica">4,6</text>
<text xml:space="preserve" x="442.802" y="211.784" fill="black" font-size="9.41632" font-family="Helvetica">N</text>
<text xml:space="preserve" x="389.042" y="206.897" fill="black" font-size="13.8745" font-family="Helvetica"> = 3     M</text>
<text xml:space="preserve" x="385.784" y="214.228" fill="black" font-size="6.44421" font-family="Helvetica">5</text>
<text xml:space="preserve" x="379.267" y="211.784" fill="black" font-size="9.41632" font-family="Helvetica">N</text>
<text xml:space="preserve" x="321.434" y="206.897" fill="black" font-size="13.8745" font-family="Helvetica"> = 3      M</text>
<text xml:space="preserve" x="317.361" y="214.228" fill="black" font-size="6.44421" font-family="Helvetica">R</text>
<text xml:space="preserve" x="308.401" y="210.969" fill="black" font-size="9.41632" font-family="Helvetica">W</text>
<text xml:space="preserve" x="297.812" y="206.897" fill="black" font-size="13.8745" font-family="Helvetica">M</text>
<path d="M237.902,202.94h 49.6063" fill="none" stroke="#00ccff" stroke-width="2"/></svg>
