<?xml version="1.0" standalone="no"?>
<svg width="567.429" height="710.791" viewBox="0 0 567.429 710.791" xmlns="http://www.w3.org/2000/svg" shape-rendering="crispEdges">
<title>
../plots/unweighted/eTmiss_WRWR_plot.svg
</title>
<desc>
Creator: ROOT Version 6.22/00
CreationDate: Sun Nov 15 16:01:19 2020</desc>
<defs>
</defs>
<rect x="0.5" y="0" width="566.929" height="710.291" fill="white"/>
<rect x="85.5394" y="71.0291" width="425.197" height="568.232" fill="white"/>
<rect x="85.5394" y="71.0291" width="425.197" height="568.232" fill="none" stroke="black"/>
<rect x="85.5394" y="71.0291" width="425.197" height="568.232" fill="white"/>
<rect x="85.5394" y="71.0291" width="425.197" height="568.232" fill="none" stroke="black"/>
<path d="M85.5394,71.0291h 10.6299v 459.984h 10.6299v 87.4131h 10.6299v 10.0388h 10.6299v 3.5041h 10.6299v 3.40939h 10.6299v 0.284116h 10.6299v 0.568232h 10.6299v 1.7994h 10.6299v -0.0947054h 10.6299v 0.473527h 10.6299v -0.0947054h 10.6299v 0.662938h
 10.6299v -0.0947054h 10.6299v 0.284116h 21.2598v -0.189411h 10.6299v 0.189411h 21.2598v 0.0947054h 10.6299v -0.0947054h 21.2598v 0.0947054h 191.339" fill="none" stroke="#ff0000" stroke-width="2"/>
<path d="M85.5394,639.261h 425.197" fill="none" stroke="black"/>
<path d="M85.5394,623.28v 15.9815" fill="none" stroke="black"/>
<path d="M94.0433,631.271v 7.99077" fill="none" stroke="black"/>
<path d="M102.547,631.271v 7.99077" fill="none" stroke="black"/>
<path d="M111.051,631.271v 7.99077" fill="none" stroke="black"/>
<path d="M119.555,631.271v 7.99077" fill="none" stroke="black"/>
<path d="M128.059,623.28v 15.9815" fill="none" stroke="black"/>
<path d="M136.563,631.271v 7.99077" fill="none" stroke="black"/>
<path d="M145.067,631.271v 7.99077" fill="none" stroke="black"/>
<path d="M153.571,631.271v 7.99077" fill="none" stroke="black"/>
<path d="M162.075,631.271v 7.99077" fill="none" stroke="black"/>
<path d="M170.579,623.28v 15.9815" fill="none" stroke="black"/>
<path d="M179.083,631.271v 7.99077" fill="none" stroke="black"/>
<path d="M187.587,631.271v 7.99077" fill="none" stroke="black"/>
<path d="M196.091,631.271v 7.99077" fill="none" stroke="black"/>
<path d="M204.594,631.271v 7.99077" fill="none" stroke="black"/>
<path d="M213.098,623.28v 15.9815" fill="none" stroke="black"/>
<path d="M221.602,631.271v 7.99077" fill="none" stroke="black"/>
<path d="M230.106,631.271v 7.99077" fill="none" stroke="black"/>
<path d="M238.61,631.271v 7.99077" fill="none" stroke="black"/>
<path d="M247.114,631.271v 7.99077" fill="none" stroke="black"/>
<path d="M255.618,623.28v 15.9815" fill="none" stroke="black"/>
<path d="M264.122,631.271v 7.99077" fill="none" stroke="black"/>
<path d="M272.626,631.271v 7.99077" fill="none" stroke="black"/>
<path d="M281.13,631.271v 7.99077" fill="none" stroke="black"/>
<path d="M289.634,631.271v 7.99077" fill="none" stroke="black"/>
<path d="M298.138,623.28v 15.9815" fill="none" stroke="black"/>
<path d="M306.642,631.271v 7.99077" fill="none" stroke="black"/>
<path d="M315.146,631.271v 7.99077" fill="none" stroke="black"/>
<path d="M323.65,631.271v 7.99077" fill="none" stroke="black"/>
<path d="M332.154,631.271v 7.99077" fill="none" stroke="black"/>
<path d="M340.657,623.28v 15.9815" fill="none" stroke="black"/>
<path d="M349.161,631.271v 7.99077" fill="none" stroke="black"/>
<path d="M357.665,631.271v 7.99077" fill="none" stroke="black"/>
<path d="M366.169,631.271v 7.99077" fill="none" stroke="black"/>
<path d="M374.673,631.271v 7.99077" fill="none" stroke="black"/>
<path d="M383.177,623.28v 15.9815" fill="none" stroke="black"/>
<path d="M391.681,631.271v 7.99077" fill="none" stroke="black"/>
<path d="M400.185,631.271v 7.99077" fill="none" stroke="black"/>
<path d="M408.689,631.271v 7.99077" fill="none" stroke="black"/>
<path d="M417.193,631.271v 7.99077" fill="none" stroke="black"/>
<path d="M425.697,623.28v 15.9815" fill="none" stroke="black"/>
<path d="M434.201,631.271v 7.99077" fill="none" stroke="black"/>
<path d="M442.705,631.271v 7.99077" fill="none" stroke="black"/>
<path d="M451.209,631.271v 7.99077" fill="none" stroke="black"/>
<path d="M459.713,631.271v 7.99077" fill="none" stroke="black"/>
<path d="M468.217,623.28v 15.9815" fill="none" stroke="black"/>
<path d="M476.72,631.271v 7.99077" fill="none" stroke="black"/>
<path d="M485.224,631.271v 7.99077" fill="none" stroke="black"/>
<path d="M493.728,631.271v 7.99077" fill="none" stroke="black"/>
<path d="M502.232,631.271v 7.99077" fill="none" stroke="black"/>
<path d="M510.736,623.28v 15.9815" fill="none" stroke="black"/>
<text xml:space="preserve" x="80.3262" y="662.232" fill="black" font-size="18.7041" font-family="Helvetica">0</text>
<text xml:space="preserve" x="116.981" y="662.232" fill="black" font-size="18.7041" font-family="Helvetica">50</text>
<text xml:space="preserve" x="154.451" y="662.232" fill="black" font-size="18.7041" font-family="Helvetica">100</text>
<text xml:space="preserve" x="197.622" y="662.232" fill="black" font-size="18.7041" font-family="Helvetica">150</text>
<text xml:space="preserve" x="239.979" y="662.232" fill="black" font-size="18.7041" font-family="Helvetica">200</text>
<text xml:space="preserve" x="282.335" y="662.232" fill="black" font-size="18.7041" font-family="Helvetica">250</text>
<text xml:space="preserve" x="324.692" y="662.232" fill="black" font-size="18.7041" font-family="Helvetica">300</text>
<text xml:space="preserve" x="367.049" y="662.232" fill="black" font-size="18.7041" font-family="Helvetica">350</text>
<text xml:space="preserve" x="410.22" y="662.232" fill="black" font-size="18.7041" font-family="Helvetica">400</text>
<text xml:space="preserve" x="452.577" y="662.232" fill="black" font-size="18.7041" font-family="Helvetica">450</text>
<text xml:space="preserve" x="494.934" y="662.232" fill="black" font-size="18.7041" font-family="Helvetica">500</text>
<text xml:space="preserve" x="456.65" y="685.039" fill="black" font-size="18.7041" font-family="Helvetica"> (GeV)</text>
<text xml:space="preserve" x="425.697" y="676.079" fill="black" font-size="12.6361" font-family="Helvetica">misss</text>
<text xml:space="preserve" x="425.697" y="690.741" fill="black" font-size="12.6361" font-family="Helvetica">T</text>
<text xml:space="preserve" x="413.479" y="685.039" fill="black" font-size="18.7041" font-family="Helvetica">E</text>
<path d="M85.5394,639.261v -568.232" fill="none" stroke="black"/>
<path d="M99.1457,639.261h -13.6063" fill="none" stroke="black"/>
<path d="M92.3425,620.32h -6.80315" fill="none" stroke="black"/>
<path d="M92.3425,601.379h -6.80315" fill="none" stroke="black"/>
<path d="M92.3425,582.438h -6.80315" fill="none" stroke="black"/>
<path d="M92.3425,563.497h -6.80315" fill="none" stroke="black"/>
<path d="M99.1457,544.556h -13.6063" fill="none" stroke="black"/>
<path d="M92.3425,525.615h -6.80315" fill="none" stroke="black"/>
<path d="M92.3425,506.674h -6.80315" fill="none" stroke="black"/>
<path d="M92.3425,487.733h -6.80315" fill="none" stroke="black"/>
<path d="M92.3425,468.792h -6.80315" fill="none" stroke="black"/>
<path d="M99.1457,449.851h -13.6063" fill="none" stroke="black"/>
<path d="M92.3425,430.91h -6.80315" fill="none" stroke="black"/>
<path d="M92.3425,411.968h -6.80315" fill="none" stroke="black"/>
<path d="M92.3425,393.027h -6.80315" fill="none" stroke="black"/>
<path d="M92.3425,374.086h -6.80315" fill="none" stroke="black"/>
<path d="M99.1457,355.145h -13.6063" fill="none" stroke="black"/>
<path d="M92.3425,336.204h -6.80315" fill="none" stroke="black"/>
<path d="M92.3425,317.263h -6.80315" fill="none" stroke="black"/>
<path d="M92.3425,298.322h -6.80315" fill="none" stroke="black"/>
<path d="M92.3425,279.381h -6.80315" fill="none" stroke="black"/>
<path d="M99.1457,260.44h -13.6063" fill="none" stroke="black"/>
<path d="M92.3425,241.499h -6.80315" fill="none" stroke="black"/>
<path d="M92.3425,222.558h -6.80315" fill="none" stroke="black"/>
<path d="M92.3425,203.617h -6.80315" fill="none" stroke="black"/>
<path d="M92.3425,184.676h -6.80315" fill="none" stroke="black"/>
<path d="M99.1457,165.734h -13.6063" fill="none" stroke="black"/>
<path d="M92.3425,146.793h -6.80315" fill="none" stroke="black"/>
<path d="M92.3425,127.852h -6.80315" fill="none" stroke="black"/>
<path d="M92.3425,108.911h -6.80315" fill="none" stroke="black"/>
<path d="M92.3425,89.9701h -6.80315" fill="none" stroke="black"/>
<path d="M99.1457,71.0291h -13.6063" fill="none" stroke="black"/>
<text xml:space="preserve" x="72.1807" y="645.941" fill="black" font-size="18.7041" font-family="Helvetica">0</text>
<text xml:space="preserve" x="40.4131" y="551.453" fill="black" font-size="18.7041" font-family="Helvetica">1000</text>
<text xml:space="preserve" x="40.4131" y="456.964" fill="black" font-size="18.7041" font-family="Helvetica">2000</text>
<text xml:space="preserve" x="40.4131" y="362.476" fill="black" font-size="18.7041" font-family="Helvetica">3000</text>
<text xml:space="preserve" x="40.4131" y="267.173" fill="black" font-size="18.7041" font-family="Helvetica">4000</text>
<text xml:space="preserve" x="40.4131" y="172.685" fill="black" font-size="18.7041" font-family="Helvetica">5000</text>
<text xml:space="preserve" x="40.4131" y="78.1971" fill="black" font-size="18.7041" font-family="Helvetica">6000</text>
<g transform="rotate(-90,30.6385,159.652)">
<text xml:space="preserve" x="30.6385" y="159.652" fill="black" font-size="18.7041" font-family="Helvetica">Events/Bin</text>
</g>
<text xml:space="preserve" x="283.965" y="35.5145" text-anchor="middle" fill="black" font-size="26.5059" font-family="Helvetica">eTmiss WRWR</text>
<path d="M96.1693,71.0291v 467.182" fill="none" stroke="#ffcc00" stroke-width="2"/>
<path d="M96.1693,538.211h 10.6299v 78.5108h 10.6299v 12.6905h 10.6299v 1.98881h 10.6299v 1.23117h 10.6299v 0.473527h 10.6299v 3.40939h 10.6299v -0.473527h 10.6299v 0.662938h 10.6299v 0.189411h 10.6299v 0.0947054h 10.6299v 0.284116h 10.6299v
 0.473527h 10.6299v 0.568232h 10.6299v -0.189411h 10.6299v 0.757643h 10.6299v -0.284116h 10.6299v 0.284116h 10.6299v -0.284116h 10.6299v 0.0947054h 10.6299v 0.0947054h 10.6299v 0.189411h 10.6299v 0.189411h 10.6299v -0.378822h 10.6299v 0.284116h
 10.6299v -0.189411h 10.6299v 0.0947054h 10.6299v 0.189411h 10.6299v 0.0947054h 10.6299v -0.0947054h 10.6299v 0.0947054h 31.8898v -0.0947054h 10.6299v 0.0947054h 10.6299v -0.0947054h 10.6299v 0.0947054h 10.6299v -0.0947054h 10.6299v 0.0947054h
 10.6299" fill="none" stroke="#ffcc00" stroke-width="2"/>
<path d="M96.1693,71.0291v 466.898" fill="none" stroke="#99cc00" stroke-width="2"/>
<path d="M96.1693,537.927h 10.6299v 81.4466h 10.6299v 10.7964h 10.6299v 0.947054h 10.6299v 4.07233h 10.6299v 1.04176h 10.6299v 0.378822h 10.6299v 0.662938h 10.6299v -0.378822h 10.6299v 1.23117h 21.2598v 0.378822h 21.2598v 0.284116h 10.6299v 0.378822h
 10.6299v -0.189411h 10.6299v 0.284116h 63.7795v -0.189411h 10.6299v 0.189411h 170.079" fill="none" stroke="#99cc00" stroke-width="2"/>
<path d="M96.1693,71.0291v 466.992" fill="none" stroke="#999900" stroke-width="2"/>
<path d="M96.1693,538.021h 10.6299v 81.4466h 10.6299v 10.3229h 10.6299v 0.757643h 10.6299v 2.17822h 10.6299v 1.7994h 10.6299v 1.51529h 10.6299v -0.0947054h 10.6299v 0.757643h 10.6299v 0.568232h 10.6299v -0.284116h 10.6299v 0.189411h 10.6299v
 0.662938h 10.6299v 0.189411h 10.6299v 0.0947054h 10.6299v 0.662938h 10.6299v -0.473527h 10.6299v 0.378822h 10.6299v -0.0947054h 10.6299v 0.568232h 10.6299v -0.378822h 10.6299v 0.0947054h 10.6299v 0.0947054h 21.2598v 0.189411h 10.6299v 0.0947054h
 21.2598v -0.0947054h 10.6299v -0.0947054h 10.6299v 0.189411h 10.6299v -0.189411h 10.6299v 0.189411h 10.6299v -0.0947054h 10.6299v 0.0947054h 42.5197v -0.0947054h 10.6299v 0.0947054h 10.6299" fill="none" stroke="#999900" stroke-width="2"/>
<path d="M96.1693,71.0291v 482.903" fill="none" stroke="#009900" stroke-width="2"/>
<path d="M96.1693,553.932h 10.6299v 64.2103h 10.6299v 10.7964h 10.6299v 2.36764h 10.6299v 1.32588h 10.6299v 0.757643h 10.6299v 1.60999h 10.6299v 0.568232h 10.6299v 0.757643h 10.6299v -0.189411h 10.6299v -0.189411h 10.6299v 1.42058h 10.6299v
 -0.189411h 10.6299v 0.568232h 10.6299v -0.189411h 10.6299v -0.378822h 10.6299v 0.473527h 10.6299v 0.757643h 10.6299v 0.284116h 10.6299v -0.757643h 10.6299v 0.852349h 10.6299v 0.378822h 10.6299v -0.757643h 10.6299v 0.284116h 10.6299v 0.378822h
 10.6299v -0.284116h 10.6299v -0.0947054h 21.2598v -0.0947054h 10.6299v 0.378822h 10.6299v 0.0947054h 31.8898v -0.0947054h 10.6299v 0.284116h 10.6299v -0.0947054h 10.6299v -0.0947054h 10.6299v 0.189411h 10.6299v -0.0947054h 10.6299" fill="none"
 stroke="#009900" stroke-width="2"/>
<path d="M96.1693,71.0291v 474.474" fill="none" stroke="#00ffff" stroke-width="2"/>
<path d="M96.1693,545.503h 10.6299v 74.7226h 10.6299v 6.72408h 10.6299v 4.45115h 10.6299v 1.7994h 10.6299v -0.568232h 10.6299v 2.55705h 10.6299v 0.662938h 10.6299v 0.568232h 21.2598v 1.13646h 10.6299v 0.0947054h 10.6299v 0.378822h 10.6299v 0.0947054h
 10.6299v -0.284116h 10.6299v 0.757643h 10.6299v -0.0947054h 10.6299v 0.284116h 10.6299v -0.189411h 10.6299v 0.378822h 10.6299v 0.189411h 10.6299v -0.378822h 10.6299v 0.378822h 10.6299v 0.0947054h 10.6299v -0.189411h 10.6299v 0.189411h 10.6299v
 -0.0947054h 10.6299v -0.189411h 10.6299v 0.0947054h 10.6299v 0.0947054h 10.6299v -0.0947054h 10.6299v 0.0947054h 10.6299v 0.0947054h 10.6299v -0.0947054h 21.2598v 0.0947054h 10.6299v -0.0947054h 10.6299v 0.0947054h 21.2598" fill="none"
 stroke="#00ffff" stroke-width="2"/>
<path d="M96.1693,71.0291v 478.831" fill="none" stroke="#00ccff" stroke-width="2"/>
<path d="M96.1693,549.86h 10.6299v 71.1238h 10.6299v 6.25056h 10.6299v 4.54586h 10.6299v 1.42058h 10.6299v 0.568232h 10.6299v 1.13646h 10.6299v -0.189411h 10.6299v 2.08352h 10.6299v -0.473527h 10.6299v 0.852349h 10.6299v -0.757643h 10.6299v 0.852349h
 10.6299v 0.757643h 10.6299v -0.473527h 10.6299v 0.568232h 10.6299v 0.284116h 10.6299v -0.662938h 21.2598v 0.757643h 10.6299v -0.378822h 10.6299v 0.284116h 10.6299v -0.0947054h 10.6299v 0.189411h 10.6299v 0.0947054h 10.6299v 0.189411h 31.8898v
 0.0947054h 10.6299v 0.189411h 10.6299v -0.0947054h 10.6299v 0.189411h 21.2598v 0.0947054h 10.6299v -0.189411h 10.6299v 0.0947054h 10.6299v -0.0947054h 21.2598v 0.0947054h 10.6299" fill="none" stroke="#00ccff" stroke-width="2"/>
<rect x="227.272" y="71.0291" width="283.465" height="142.058" fill="white"/>
<path d="M227.272,213.087h 283.465" fill="none" stroke="black"/>
<path d="M510.736,213.087v -142.058" fill="none" stroke="black"/>
<path d="M510.736,71.0291h -283.465" fill="none" stroke="black"/>
<path d="M227.272,71.0291v 142.058" fill="none" stroke="black"/>
<text xml:space="preserve" x="457.464" y="85.5281" fill="black" font-size="13.8745" font-family="Helvetica"> = 1</text>
<text xml:space="preserve" x="449.319" y="92.0445" fill="black" font-size="6.44421" font-family="Helvetica">4,6</text>
<text xml:space="preserve" x="442.802" y="89.6009" fill="black" font-size="9.41632" font-family="Helvetica">N</text>
<text xml:space="preserve" x="389.042" y="85.5281" fill="black" font-size="13.8745" font-family="Helvetica"> = 1     M</text>
<text xml:space="preserve" x="385.784" y="92.0445" fill="black" font-size="6.44421" font-family="Helvetica">5</text>
<text xml:space="preserve" x="379.267" y="89.6009" fill="black" font-size="9.41632" font-family="Helvetica">N</text>
<text xml:space="preserve" x="321.434" y="85.5281" fill="black" font-size="13.8745" font-family="Helvetica"> = 1      M</text>
<text xml:space="preserve" x="317.361" y="92.8591" fill="black" font-size="6.44421" font-family="Helvetica">R</text>
<text xml:space="preserve" x="308.401" y="89.6009" fill="black" font-size="9.41632" font-family="Helvetica">W</text>
<text xml:space="preserve" x="297.812" y="85.5281" fill="black" font-size="13.8745" font-family="Helvetica">M</text>
<path d="M237.902,81.1761h 49.6063" fill="none" stroke="#ff0000" stroke-width="2"/>
<text xml:space="preserve" x="457.464" y="105.892" fill="black" font-size="13.8745" font-family="Helvetica"> = 2</text>
<text xml:space="preserve" x="449.319" y="112.408" fill="black" font-size="6.44421" font-family="Helvetica">4,6</text>
<text xml:space="preserve" x="442.802" y="109.965" fill="black" font-size="9.41632" font-family="Helvetica">N</text>
<text xml:space="preserve" x="389.042" y="105.892" fill="black" font-size="13.8745" font-family="Helvetica"> = 2     M</text>
<text xml:space="preserve" x="385.784" y="112.408" fill="black" font-size="6.44421" font-family="Helvetica">5</text>
<text xml:space="preserve" x="379.267" y="109.965" fill="black" font-size="9.41632" font-family="Helvetica">N</text>
<text xml:space="preserve" x="321.434" y="105.892" fill="black" font-size="13.8745" font-family="Helvetica"> = 1      M</text>
<text xml:space="preserve" x="317.361" y="113.223" fill="black" font-size="6.44421" font-family="Helvetica">R</text>
<text xml:space="preserve" x="308.401" y="109.965" fill="black" font-size="9.41632" font-family="Helvetica">W</text>
<text xml:space="preserve" x="297.812" y="105.892" fill="black" font-size="13.8745" font-family="Helvetica">M</text>
<path d="M237.902,101.47h 49.6063" fill="none" stroke="#ffcc00" stroke-width="2"/>
<text xml:space="preserve" x="457.464" y="126.256" fill="black" font-size="13.8745" font-family="Helvetica"> = 1</text>
<text xml:space="preserve" x="449.319" y="132.772" fill="black" font-size="6.44421" font-family="Helvetica">4,6</text>
<text xml:space="preserve" x="442.802" y="130.329" fill="black" font-size="9.41632" font-family="Helvetica">N</text>
<text xml:space="preserve" x="389.042" y="126.256" fill="black" font-size="13.8745" font-family="Helvetica"> = 1     M</text>
<text xml:space="preserve" x="385.784" y="132.772" fill="black" font-size="6.44421" font-family="Helvetica">5</text>
<text xml:space="preserve" x="379.267" y="130.329" fill="black" font-size="9.41632" font-family="Helvetica">N</text>
<text xml:space="preserve" x="321.434" y="126.256" fill="black" font-size="13.8745" font-family="Helvetica"> = 2      M</text>
<text xml:space="preserve" x="317.361" y="133.587" fill="black" font-size="6.44421" font-family="Helvetica">R</text>
<text xml:space="preserve" x="308.401" y="130.329" fill="black" font-size="9.41632" font-family="Helvetica">W</text>
<text xml:space="preserve" x="297.812" y="126.256" fill="black" font-size="13.8745" font-family="Helvetica">M</text>
<path d="M237.902,121.764h 49.6063" fill="none" stroke="#99cc00" stroke-width="2"/>
<text xml:space="preserve" x="457.464" y="146.62" fill="black" font-size="13.8745" font-family="Helvetica"> = 2</text>
<text xml:space="preserve" x="449.319" y="153.136" fill="black" font-size="6.44421" font-family="Helvetica">4,6</text>
<text xml:space="preserve" x="442.802" y="150.692" fill="black" font-size="9.41632" font-family="Helvetica">N</text>
<text xml:space="preserve" x="389.042" y="146.62" fill="black" font-size="13.8745" font-family="Helvetica"> = 2     M</text>
<text xml:space="preserve" x="385.784" y="153.136" fill="black" font-size="6.44421" font-family="Helvetica">5</text>
<text xml:space="preserve" x="379.267" y="150.692" fill="black" font-size="9.41632" font-family="Helvetica">N</text>
<text xml:space="preserve" x="321.434" y="146.62" fill="black" font-size="13.8745" font-family="Helvetica"> = 2      M</text>
<text xml:space="preserve" x="317.361" y="153.951" fill="black" font-size="6.44421" font-family="Helvetica">R</text>
<text xml:space="preserve" x="308.401" y="150.692" fill="black" font-size="9.41632" font-family="Helvetica">W</text>
<text xml:space="preserve" x="297.812" y="146.62" fill="black" font-size="13.8745" font-family="Helvetica">M</text>
<path d="M237.902,142.058h 49.6063" fill="none" stroke="#999900" stroke-width="2"/>
<text xml:space="preserve" x="457.464" y="166.169" fill="black" font-size="13.8745" font-family="Helvetica"> = 3</text>
<text xml:space="preserve" x="449.319" y="173.5" fill="black" font-size="6.44421" font-family="Helvetica">4,6</text>
<text xml:space="preserve" x="442.802" y="171.056" fill="black" font-size="9.41632" font-family="Helvetica">N</text>
<text xml:space="preserve" x="389.042" y="166.169" fill="black" font-size="13.8745" font-family="Helvetica"> = 3     M</text>
<text xml:space="preserve" x="385.784" y="172.685" fill="black" font-size="6.44421" font-family="Helvetica">5</text>
<text xml:space="preserve" x="379.267" y="170.242" fill="black" font-size="9.41632" font-family="Helvetica">N</text>
<text xml:space="preserve" x="321.434" y="166.169" fill="black" font-size="13.8745" font-family="Helvetica"> = 2      M</text>
<text xml:space="preserve" x="317.361" y="173.5" fill="black" font-size="6.44421" font-family="Helvetica">R</text>
<text xml:space="preserve" x="308.401" y="170.242" fill="black" font-size="9.41632" font-family="Helvetica">W</text>
<text xml:space="preserve" x="297.812" y="166.169" fill="black" font-size="13.8745" font-family="Helvetica">M</text>
<path d="M237.902,162.352h 49.6063" fill="none" stroke="#009900" stroke-width="2"/>
<text xml:space="preserve" x="457.464" y="186.533" fill="black" font-size="13.8745" font-family="Helvetica"> = 2</text>
<text xml:space="preserve" x="449.319" y="193.049" fill="black" font-size="6.44421" font-family="Helvetica">4,6</text>
<text xml:space="preserve" x="442.802" y="190.605" fill="black" font-size="9.41632" font-family="Helvetica">N</text>
<text xml:space="preserve" x="389.042" y="186.533" fill="black" font-size="13.8745" font-family="Helvetica"> = 2     M</text>
<text xml:space="preserve" x="385.784" y="193.864" fill="black" font-size="6.44421" font-family="Helvetica">5</text>
<text xml:space="preserve" x="379.267" y="191.42" fill="black" font-size="9.41632" font-family="Helvetica">N</text>
<text xml:space="preserve" x="321.434" y="186.533" fill="black" font-size="13.8745" font-family="Helvetica"> = 3      M</text>
<text xml:space="preserve" x="317.361" y="193.864" fill="black" font-size="6.44421" font-family="Helvetica">R</text>
<text xml:space="preserve" x="308.401" y="190.605" fill="black" font-size="9.41632" font-family="Helvetica">W</text>
<text xml:space="preserve" x="297.812" y="186.533" fill="black" font-size="13.8745" font-family="Helvetica">M</text>
<path d="M237.902,182.646h 49.6063" fill="none" stroke="#00ffff" stroke-width="2"/>
<text xml:space="preserve" x="457.464" y="206.897" fill="black" font-size="13.8745" font-family="Helvetica"> = 3</text>
<text xml:space="preserve" x="449.319" y="214.228" fill="black" font-size="6.44421" font-family="Helvetica">4,6</text>
<text xml:space="preserve" x="442.802" y="211.784" fill="black" font-size="9.41632" font-family="Helvetica">N</text>
<text xml:space="preserve" x="389.042" y="206.897" fill="black" font-size="13.8745" font-family="Helvetica"> = 3     M</text>
<text xml:space="preserve" x="385.784" y="214.228" fill="black" font-size="6.44421" font-family="Helvetica">5</text>
<text xml:space="preserve" x="379.267" y="211.784" fill="black" font-size="9.41632" font-family="Helvetica">N</text>
<text xml:space="preserve" x="321.434" y="206.897" fill="black" font-size="13.8745" font-family="Helvetica"> = 3      M</text>
<text xml:space="preserve" x="317.361" y="214.228" fill="black" font-size="6.44421" font-family="Helvetica">R</text>
<text xml:space="preserve" x="308.401" y="210.969" fill="black" font-size="9.41632" font-family="Helvetica">W</text>
<text xml:space="preserve" x="297.812" y="206.897" fill="black" font-size="13.8745" font-family="Helvetica">M</text>
<path d="M237.902,202.94h 49.6063" fill="none" stroke="#00ccff" stroke-width="2"/></svg>
