<?xml version="1.0" standalone="no"?>
<svg width="567.429" height="710.791" viewBox="0 0 567.429 710.791" xmlns="http://www.w3.org/2000/svg" shape-rendering="crispEdges">
<title>
../plots/unweighted/jet1_PT_WRWR_plot.svg
</title>
<desc>
Creator: ROOT Version 6.22/00
CreationDate: Sun Nov 15 16:01:22 2020</desc>
<defs>
</defs>
<rect x="0.5" y="0" width="566.929" height="710.291" fill="white"/>
<rect x="85.5394" y="71.0291" width="425.197" height="568.232" fill="white"/>
<rect x="85.5394" y="71.0291" width="425.197" height="568.232" fill="none" stroke="black"/>
<rect x="85.5394" y="71.0291" width="425.197" height="568.232" fill="white"/>
<rect x="85.5394" y="71.0291" width="425.197" height="568.232" fill="none" stroke="black"/>
<path d="M85.5394,638.693h 10.6299v -19.3199h 10.6299v -58.9541h 10.6299v -75.1487h 10.6299v -94.8948h 10.6299v -27.8434h 10.6299v 22.8714h 10.6299v 71.8814h 10.6299v 101.998h 10.6299v 47.8736h 10.6299v 16.9049h 10.6299v 6.39261h 10.6299v 1.7047h
 10.6299v 3.26734h 10.6299v 1.98881h 10.6299v 0.568232h 10.6299v 0.568232h 10.6299v -0.284116h 10.6299v 0.71029h 21.2598v 0.284116h 42.5197v -0.284116h 10.6299v 0.284116h 21.2598v -0.142058h 21.2598v 0.142058h 116.929" fill="none" stroke="#ff0000"
 stroke-width="2"/>
<path d="M85.5394,639.261h 425.197" fill="none" stroke="black"/>
<path d="M85.5394,623.28v 15.9815" fill="none" stroke="black"/>
<path d="M102.547,631.271v 7.99077" fill="none" stroke="black"/>
<path d="M119.555,631.271v 7.99077" fill="none" stroke="black"/>
<path d="M136.563,631.271v 7.99077" fill="none" stroke="black"/>
<path d="M153.571,631.271v 7.99077" fill="none" stroke="black"/>
<path d="M170.579,623.28v 15.9815" fill="none" stroke="black"/>
<path d="M187.587,631.271v 7.99077" fill="none" stroke="black"/>
<path d="M204.594,631.271v 7.99077" fill="none" stroke="black"/>
<path d="M221.602,631.271v 7.99077" fill="none" stroke="black"/>
<path d="M238.61,631.271v 7.99077" fill="none" stroke="black"/>
<path d="M255.618,623.28v 15.9815" fill="none" stroke="black"/>
<path d="M272.626,631.271v 7.99077" fill="none" stroke="black"/>
<path d="M289.634,631.271v 7.99077" fill="none" stroke="black"/>
<path d="M306.642,631.271v 7.99077" fill="none" stroke="black"/>
<path d="M323.65,631.271v 7.99077" fill="none" stroke="black"/>
<path d="M340.657,623.28v 15.9815" fill="none" stroke="black"/>
<path d="M357.665,631.271v 7.99077" fill="none" stroke="black"/>
<path d="M374.673,631.271v 7.99077" fill="none" stroke="black"/>
<path d="M391.681,631.271v 7.99077" fill="none" stroke="black"/>
<path d="M408.689,631.271v 7.99077" fill="none" stroke="black"/>
<path d="M425.697,623.28v 15.9815" fill="none" stroke="black"/>
<path d="M442.705,631.271v 7.99077" fill="none" stroke="black"/>
<path d="M459.713,631.271v 7.99077" fill="none" stroke="black"/>
<path d="M476.72,631.271v 7.99077" fill="none" stroke="black"/>
<path d="M493.728,631.271v 7.99077" fill="none" stroke="black"/>
<path d="M510.736,623.28v 15.9815" fill="none" stroke="black"/>
<text xml:space="preserve" x="80.3262" y="662.232" fill="black" font-size="18.7041" font-family="Helvetica">0</text>
<text xml:space="preserve" x="156.894" y="662.232" fill="black" font-size="18.7041" font-family="Helvetica">0.5</text>
<text xml:space="preserve" x="252.197" y="662.232" fill="black" font-size="18.7041" font-family="Helvetica">1</text>
<text xml:space="preserve" x="327.136" y="662.232" fill="black" font-size="18.7041" font-family="Helvetica">1.5</text>
<text xml:space="preserve" x="420.81" y="662.232" fill="black" font-size="18.7041" font-family="Helvetica">2</text>
<text xml:space="preserve" x="497.378" y="662.232" fill="black" font-size="18.7041" font-family="Helvetica">2.5</text>
<text xml:space="preserve" x="459.094" y="685.039" fill="black" font-size="18.7041" font-family="Helvetica"> (TeV)</text>
<text xml:space="preserve" x="455.021" y="678.523" fill="black" font-size="8.59073" font-family="Helvetica">1</text>
<text xml:space="preserve" x="451.763" y="671.192" fill="black" font-size="12.6361" font-family="Helvetica">j</text>
<text xml:space="preserve" x="451.763" y="695.629" fill="black" font-size="12.6361" font-family="Helvetica">T</text>
<text xml:space="preserve" x="441.173" y="685.039" fill="black" font-size="18.7041" font-family="Helvetica">p</text>
<path d="M85.5394,639.261v -568.232" fill="none" stroke="black"/>
<path d="M99.1457,639.261h -13.6063" fill="none" stroke="black"/>
<path d="M92.3425,625.056h -6.80315" fill="none" stroke="black"/>
<path d="M92.3425,610.85h -6.80315" fill="none" stroke="black"/>
<path d="M92.3425,596.644h -6.80315" fill="none" stroke="black"/>
<path d="M92.3425,582.438h -6.80315" fill="none" stroke="black"/>
<path d="M99.1457,568.232h -13.6063" fill="none" stroke="black"/>
<path d="M92.3425,554.027h -6.80315" fill="none" stroke="black"/>
<path d="M92.3425,539.821h -6.80315" fill="none" stroke="black"/>
<path d="M92.3425,525.615h -6.80315" fill="none" stroke="black"/>
<path d="M92.3425,511.409h -6.80315" fill="none" stroke="black"/>
<path d="M99.1457,497.203h -13.6063" fill="none" stroke="black"/>
<path d="M92.3425,482.998h -6.80315" fill="none" stroke="black"/>
<path d="M92.3425,468.792h -6.80315" fill="none" stroke="black"/>
<path d="M92.3425,454.586h -6.80315" fill="none" stroke="black"/>
<path d="M92.3425,440.38h -6.80315" fill="none" stroke="black"/>
<path d="M99.1457,426.174h -13.6063" fill="none" stroke="black"/>
<path d="M92.3425,411.968h -6.80315" fill="none" stroke="black"/>
<path d="M92.3425,397.763h -6.80315" fill="none" stroke="black"/>
<path d="M92.3425,383.557h -6.80315" fill="none" stroke="black"/>
<path d="M92.3425,369.351h -6.80315" fill="none" stroke="black"/>
<path d="M99.1457,355.145h -13.6063" fill="none" stroke="black"/>
<path d="M92.3425,340.939h -6.80315" fill="none" stroke="black"/>
<path d="M92.3425,326.734h -6.80315" fill="none" stroke="black"/>
<path d="M92.3425,312.528h -6.80315" fill="none" stroke="black"/>
<path d="M92.3425,298.322h -6.80315" fill="none" stroke="black"/>
<path d="M99.1457,284.116h -13.6063" fill="none" stroke="black"/>
<path d="M92.3425,269.91h -6.80315" fill="none" stroke="black"/>
<path d="M92.3425,255.705h -6.80315" fill="none" stroke="black"/>
<path d="M92.3425,241.499h -6.80315" fill="none" stroke="black"/>
<path d="M92.3425,227.293h -6.80315" fill="none" stroke="black"/>
<path d="M99.1457,213.087h -13.6063" fill="none" stroke="black"/>
<path d="M92.3425,198.881h -6.80315" fill="none" stroke="black"/>
<path d="M92.3425,184.676h -6.80315" fill="none" stroke="black"/>
<path d="M92.3425,170.47h -6.80315" fill="none" stroke="black"/>
<path d="M92.3425,156.264h -6.80315" fill="none" stroke="black"/>
<path d="M99.1457,142.058h -13.6063" fill="none" stroke="black"/>
<path d="M92.3425,127.852h -6.80315" fill="none" stroke="black"/>
<path d="M92.3425,113.646h -6.80315" fill="none" stroke="black"/>
<path d="M92.3425,99.4407h -6.80315" fill="none" stroke="black"/>
<path d="M92.3425,85.2349h -6.80315" fill="none" stroke="black"/>
<path d="M99.1457,71.0291h -13.6063" fill="none" stroke="black"/>
<text xml:space="preserve" x="72.1807" y="645.941" fill="black" font-size="18.7041" font-family="Helvetica">0</text>
<text xml:space="preserve" x="51.0023" y="575.075" fill="black" font-size="18.7041" font-family="Helvetica">500</text>
<text xml:space="preserve" x="40.4131" y="504.208" fill="black" font-size="18.7041" font-family="Helvetica">1000</text>
<text xml:space="preserve" x="40.4131" y="433.342" fill="black" font-size="18.7041" font-family="Helvetica">1500</text>
<text xml:space="preserve" x="40.4131" y="362.476" fill="black" font-size="18.7041" font-family="Helvetica">2000</text>
<text xml:space="preserve" x="40.4131" y="290.796" fill="black" font-size="18.7041" font-family="Helvetica">2500</text>
<text xml:space="preserve" x="40.4131" y="219.929" fill="black" font-size="18.7041" font-family="Helvetica">3000</text>
<text xml:space="preserve" x="40.4131" y="149.063" fill="black" font-size="18.7041" font-family="Helvetica">3500</text>
<text xml:space="preserve" x="40.4131" y="78.1971" fill="black" font-size="18.7041" font-family="Helvetica">4000</text>
<g transform="rotate(-90,30.6385,159.652)">
<text xml:space="preserve" x="30.6385" y="159.652" fill="black" font-size="18.7041" font-family="Helvetica">Events/Bin</text>
</g>
<text xml:space="preserve" x="283.965" y="35.5145" text-anchor="middle" fill="black" font-size="26.5059" font-family="Helvetica">jet1_pT WRWR</text>
<path d="M85.5394,639.261h 10.6299v -1.27852h 10.6299v -4.82998h 10.6299v -6.53467h 10.6299v -21.7349h 10.6299v -27.9854h 10.6299v -30.6845h 10.6299v -45.4586h 10.6299v -29.6901h 10.6299v -13.3535h 10.6299v 23.7237h 10.6299v 21.8769h 10.6299v
 24.0078h 10.6299v 16.4787h 10.6299v 28.4116h 10.6299v 23.8658h 10.6299v 14.3479h 10.6299v 7.95525h 10.6299v 7.38702h 10.6299v 6.81879h 10.6299v 0.568232h 10.6299v 0.568232h 10.6299v 3.26734h 10.6299v 0.284116h 10.6299v 1.13646h 21.2598v -0.142058h
 10.6299v 0.852349h 10.6299v -0.142058h 10.6299v 0.284116h 10.6299v -0.284116h 10.6299v 0.284116h 10.6299v -0.142058h 10.6299v 0.142058h 21.2598v -0.142058h 10.6299v 0.142058h 42.5197" fill="none" stroke="#ffcc00" stroke-width="2"/>
<path d="M85.5394,638.267h 10.6299v -16.3367h 10.6299v -42.1913h 10.6299v -68.7561h 10.6299v -43.3277h 10.6299v -27.5593h 10.6299v -4.68792h 10.6299v 23.5816h 10.6299v 37.3613h 10.6299v 37.6454h 10.6299v 30.4004h 10.6299v 28.8378h 10.6299v 16.1946h
 10.6299v 14.0638h 10.6299v 10.5123h 10.6299v 3.69351h 10.6299v 0.426174h 10.6299v 0.426174h 10.6299v 0.142058h 10.6299v 0.284116h 10.6299v -0.284116h 10.6299v 0.426174h 21.2598v -0.142058h 10.6299v 0.142058h 42.5197v 0.142058h 127.559" fill="none"
 stroke="#99cc00" stroke-width="2"/>
<path d="M85.5394,639.261h 10.6299v -2.27293h 10.6299v -4.54586h 10.6299v -13.4955h 10.6299v -8.23937h 10.6299v -22.8714h 10.6299v -20.3143h 10.6299v -25.5705h 10.6299v -16.0526h 10.6299v -19.8881h 10.6299v -16.7629h 10.6299v -6.67673h 10.6299v
 15.9105h 10.6299v 1.98881h 10.6299v 33.8098h 10.6299v 27.7013h 10.6299v 43.896h 10.6299v 11.7908h 10.6299v 6.53467h 10.6299v 9.80201h 10.6299v -0.142058h 10.6299v 1.7047h 10.6299v 1.42058h 10.6299v 1.7047h 10.6299v -0.426174h 10.6299v 0.426174h
 10.6299v 0.568232h 10.6299v -0.426174h 10.6299v 0.426174h 10.6299v -0.142058h 21.2598v 0.142058h 10.6299v -0.142058h 10.6299v 0.142058h 21.2598v -0.284116h 10.6299v 0.284116h 42.5197" fill="none" stroke="#999900" stroke-width="2"/>
<path d="M85.5394,639.119h 10.6299v 0.142058h 10.6299v -1.27852h 10.6299v -2.6991h 10.6299v -2.98322h 10.6299v -2.41499h 10.6299v -9.37583h 10.6299v -8.38143h 10.6299v -11.0805h 10.6299v -13.3535h 10.6299v -9.94407h 10.6299v -3.55145h 10.6299v
 -14.4899h 10.6299v -9.23378h 10.6299v -21.8769h 10.6299v -11.0805h 10.6299v -4.11968h 10.6299v 10.6544h 10.6299v 6.25056h 10.6299v 12.6432h 10.6299v 27.5593h 10.6299v 11.5067h 10.6299v 13.4955h 10.6299v 15.4843h 10.6299v 5.25615h 10.6299v 8.8076h
 10.6299v 3.55145h 10.6299v 2.84116h 10.6299v 2.55705h 10.6299v 2.13087h 10.6299v 0.568232h 10.6299v 0.852349h 10.6299v 0.852349h 10.6299v 0.426174h 10.6299v -0.142058h 10.6299v 0.426174h 21.2598v -0.284116h 10.6299v 0.426174h 21.2598" fill="none"
 stroke="#009900" stroke-width="2"/>
<path d="M85.5394,639.261h 10.6299v -1.42058h 10.6299v -4.54586h 10.6299v -11.9329h 10.6299v -12.7852h 10.6299v -21.0246h 10.6299v -25.5705h 10.6299v -31.9631h 10.6299v -18.1834h 10.6299v -8.66554h 10.6299v -10.6544h 10.6299v 1.56264h 10.6299v
 18.0414h 10.6299v 16.9049h 10.6299v 19.462h 10.6299v 18.6096h 10.6299v 22.7293h 10.6299v 11.9329h 10.6299v 12.5011h 10.6299v 6.53467h 10.6299v 8.66554h 10.6299v 4.68792h 10.6299v 2.98322h 10.6299v 1.13646h 10.6299v 0.994407h 10.6299v -0.284116h
 10.6299v 0.284116h 10.6299v -0.142058h 10.6299v 0.142058h 31.8898v -0.142058h 10.6299v 0.142058h 85.0394" fill="none" stroke="#00ffff" stroke-width="2"/>
<path d="M85.5394,639.261h 21.2598v -1.98881h 10.6299v -0.852349h 10.6299v -3.97763h 10.6299v -5.82438h 10.6299v -10.6544h 10.6299v -6.25056h 10.6299v -12.217h 10.6299v -8.66554h 10.6299v -5.11409h 10.6299v -15.7684h 10.6299v -4.82998h 10.6299v
 -5.39821h 10.6299v -4.26174h 10.6299v -14.774h 10.6299v -4.11968h 10.6299v 1.56264h 10.6299v 3.26734h 10.6299v -5.25615h 10.6299v 16.4787h 10.6299v 10.5123h 10.6299v 12.9273h 10.6299v 22.1611h 10.6299v 22.7293h 10.6299v 4.97203h 10.6299v 7.38702h
 10.6299v 3.69351h 10.6299v 1.13646h 10.6299v 1.42058h 10.6299v 1.42058h 10.6299v -1.27852h 10.6299v 0.71029h 10.6299v 0.71029h 21.2598v -0.568232h 10.6299v 0.71029h 10.6299v -0.142058h 21.2598v 0.142058h 10.6299" fill="none" stroke="#00ccff"
 stroke-width="2"/>
<rect x="227.272" y="71.0291" width="283.465" height="142.058" fill="white"/>
<path d="M227.272,213.087h 283.465" fill="none" stroke="black"/>
<path d="M510.736,213.087v -142.058" fill="none" stroke="black"/>
<path d="M510.736,71.0291h -283.465" fill="none" stroke="black"/>
<path d="M227.272,71.0291v 142.058" fill="none" stroke="black"/>
<text xml:space="preserve" x="457.464" y="85.5281" fill="black" font-size="13.8745" font-family="Helvetica"> = 1</text>
<text xml:space="preserve" x="449.319" y="92.0445" fill="black" font-size="6.44421" font-family="Helvetica">4,6</text>
<text xml:space="preserve" x="442.802" y="89.6009" fill="black" font-size="9.41632" font-family="Helvetica">N</text>
<text xml:space="preserve" x="389.042" y="85.5281" fill="black" font-size="13.8745" font-family="Helvetica"> = 1     M</text>
<text xml:space="preserve" x="385.784" y="92.0445" fill="black" font-size="6.44421" font-family="Helvetica">5</text>
<text xml:space="preserve" x="379.267" y="89.6009" fill="black" font-size="9.41632" font-family="Helvetica">N</text>
<text xml:space="preserve" x="321.434" y="85.5281" fill="black" font-size="13.8745" font-family="Helvetica"> = 1      M</text>
<text xml:space="preserve" x="317.361" y="92.8591" fill="black" font-size="6.44421" font-family="Helvetica">R</text>
<text xml:space="preserve" x="308.401" y="89.6009" fill="black" font-size="9.41632" font-family="Helvetica">W</text>
<text xml:space="preserve" x="297.812" y="85.5281" fill="black" font-size="13.8745" font-family="Helvetica">M</text>
<path d="M237.902,81.1761h 49.6063" fill="none" stroke="#ff0000" stroke-width="2"/>
<text xml:space="preserve" x="457.464" y="105.892" fill="black" font-size="13.8745" font-family="Helvetica"> = 2</text>
<text xml:space="preserve" x="449.319" y="112.408" fill="black" font-size="6.44421" font-family="Helvetica">4,6</text>
<text xml:space="preserve" x="442.802" y="109.965" fill="black" font-size="9.41632" font-family="Helvetica">N</text>
<text xml:space="preserve" x="389.042" y="105.892" fill="black" font-size="13.8745" font-family="Helvetica"> = 2     M</text>
<text xml:space="preserve" x="385.784" y="112.408" fill="black" font-size="6.44421" font-family="Helvetica">5</text>
<text xml:space="preserve" x="379.267" y="109.965" fill="black" font-size="9.41632" font-family="Helvetica">N</text>
<text xml:space="preserve" x="321.434" y="105.892" fill="black" font-size="13.8745" font-family="Helvetica"> = 1      M</text>
<text xml:space="preserve" x="317.361" y="113.223" fill="black" font-size="6.44421" font-family="Helvetica">R</text>
<text xml:space="preserve" x="308.401" y="109.965" fill="black" font-size="9.41632" font-family="Helvetica">W</text>
<text xml:space="preserve" x="297.812" y="105.892" fill="black" font-size="13.8745" font-family="Helvetica">M</text>
<path d="M237.902,101.47h 49.6063" fill="none" stroke="#ffcc00" stroke-width="2"/>
<text xml:space="preserve" x="457.464" y="126.256" fill="black" font-size="13.8745" font-family="Helvetica"> = 1</text>
<text xml:space="preserve" x="449.319" y="132.772" fill="black" font-size="6.44421" font-family="Helvetica">4,6</text>
<text xml:space="preserve" x="442.802" y="130.329" fill="black" font-size="9.41632" font-family="Helvetica">N</text>
<text xml:space="preserve" x="389.042" y="126.256" fill="black" font-size="13.8745" font-family="Helvetica"> = 1     M</text>
<text xml:space="preserve" x="385.784" y="132.772" fill="black" font-size="6.44421" font-family="Helvetica">5</text>
<text xml:space="preserve" x="379.267" y="130.329" fill="black" font-size="9.41632" font-family="Helvetica">N</text>
<text xml:space="preserve" x="321.434" y="126.256" fill="black" font-size="13.8745" font-family="Helvetica"> = 2      M</text>
<text xml:space="preserve" x="317.361" y="133.587" fill="black" font-size="6.44421" font-family="Helvetica">R</text>
<text xml:space="preserve" x="308.401" y="130.329" fill="black" font-size="9.41632" font-family="Helvetica">W</text>
<text xml:space="preserve" x="297.812" y="126.256" fill="black" font-size="13.8745" font-family="Helvetica">M</text>
<path d="M237.902,121.764h 49.6063" fill="none" stroke="#99cc00" stroke-width="2"/>
<text xml:space="preserve" x="457.464" y="146.62" fill="black" font-size="13.8745" font-family="Helvetica"> = 2</text>
<text xml:space="preserve" x="449.319" y="153.136" fill="black" font-size="6.44421" font-family="Helvetica">4,6</text>
<text xml:space="preserve" x="442.802" y="150.692" fill="black" font-size="9.41632" font-family="Helvetica">N</text>
<text xml:space="preserve" x="389.042" y="146.62" fill="black" font-size="13.8745" font-family="Helvetica"> = 2     M</text>
<text xml:space="preserve" x="385.784" y="153.136" fill="black" font-size="6.44421" font-family="Helvetica">5</text>
<text xml:space="preserve" x="379.267" y="150.692" fill="black" font-size="9.41632" font-family="Helvetica">N</text>
<text xml:space="preserve" x="321.434" y="146.62" fill="black" font-size="13.8745" font-family="Helvetica"> = 2      M</text>
<text xml:space="preserve" x="317.361" y="153.951" fill="black" font-size="6.44421" font-family="Helvetica">R</text>
<text xml:space="preserve" x="308.401" y="150.692" fill="black" font-size="9.41632" font-family="Helvetica">W</text>
<text xml:space="preserve" x="297.812" y="146.62" fill="black" font-size="13.8745" font-family="Helvetica">M</text>
<path d="M237.902,142.058h 49.6063" fill="none" stroke="#999900" stroke-width="2"/>
<text xml:space="preserve" x="457.464" y="166.169" fill="black" font-size="13.8745" font-family="Helvetica"> = 3</text>
<text xml:space="preserve" x="449.319" y="173.5" fill="black" font-size="6.44421" font-family="Helvetica">4,6</text>
<text xml:space="preserve" x="442.802" y="171.056" fill="black" font-size="9.41632" font-family="Helvetica">N</text>
<text xml:space="preserve" x="389.042" y="166.169" fill="black" font-size="13.8745" font-family="Helvetica"> = 3     M</text>
<text xml:space="preserve" x="385.784" y="172.685" fill="black" font-size="6.44421" font-family="Helvetica">5</text>
<text xml:space="preserve" x="379.267" y="170.242" fill="black" font-size="9.41632" font-family="Helvetica">N</text>
<text xml:space="preserve" x="321.434" y="166.169" fill="black" font-size="13.8745" font-family="Helvetica"> = 2      M</text>
<text xml:space="preserve" x="317.361" y="173.5" fill="black" font-size="6.44421" font-family="Helvetica">R</text>
<text xml:space="preserve" x="308.401" y="170.242" fill="black" font-size="9.41632" font-family="Helvetica">W</text>
<text xml:space="preserve" x="297.812" y="166.169" fill="black" font-size="13.8745" font-family="Helvetica">M</text>
<path d="M237.902,162.352h 49.6063" fill="none" stroke="#009900" stroke-width="2"/>
<text xml:space="preserve" x="457.464" y="186.533" fill="black" font-size="13.8745" font-family="Helvetica"> = 2</text>
<text xml:space="preserve" x="449.319" y="193.049" fill="black" font-size="6.44421" font-family="Helvetica">4,6</text>
<text xml:space="preserve" x="442.802" y="190.605" fill="black" font-size="9.41632" font-family="Helvetica">N</text>
<text xml:space="preserve" x="389.042" y="186.533" fill="black" font-size="13.8745" font-family="Helvetica"> = 2     M</text>
<text xml:space="preserve" x="385.784" y="193.864" fill="black" font-size="6.44421" font-family="Helvetica">5</text>
<text xml:space="preserve" x="379.267" y="191.42" fill="black" font-size="9.41632" font-family="Helvetica">N</text>
<text xml:space="preserve" x="321.434" y="186.533" fill="black" font-size="13.8745" font-family="Helvetica"> = 3      M</text>
<text xml:space="preserve" x="317.361" y="193.864" fill="black" font-size="6.44421" font-family="Helvetica">R</text>
<text xml:space="preserve" x="308.401" y="190.605" fill="black" font-size="9.41632" font-family="Helvetica">W</text>
<text xml:space="preserve" x="297.812" y="186.533" fill="black" font-size="13.8745" font-family="Helvetica">M</text>
<path d="M237.902,182.646h 49.6063" fill="none" stroke="#00ffff" stroke-width="2"/>
<text xml:space="preserve" x="457.464" y="206.897" fill="black" font-size="13.8745" font-family="Helvetica"> = 3</text>
<text xml:space="preserve" x="449.319" y="214.228" fill="black" font-size="6.44421" font-family="Helvetica">4,6</text>
<text xml:space="preserve" x="442.802" y="211.784" fill="black" font-size="9.41632" font-family="Helvetica">N</text>
<text xml:space="preserve" x="389.042" y="206.897" fill="black" font-size="13.8745" font-family="Helvetica"> = 3     M</text>
<text xml:space="preserve" x="385.784" y="214.228" fill="black" font-size="6.44421" font-family="Helvetica">5</text>
<text xml:space="preserve" x="379.267" y="211.784" fill="black" font-size="9.41632" font-family="Helvetica">N</text>
<text xml:space="preserve" x="321.434" y="206.897" fill="black" font-size="13.8745" font-family="Helvetica"> = 3      M</text>
<text xml:space="preserve" x="317.361" y="214.228" fill="black" font-size="6.44421" font-family="Helvetica">R</text>
<text xml:space="preserve" x="308.401" y="210.969" fill="black" font-size="9.41632" font-family="Helvetica">W</text>
<text xml:space="preserve" x="297.812" y="206.897" fill="black" font-size="13.8745" font-family="Helvetica">M</text>
<path d="M237.902,202.94h 49.6063" fill="none" stroke="#00ccff" stroke-width="2"/></svg>
