<?xml version="1.0" standalone="no"?>
<svg width="567.429" height="710.791" viewBox="0 0 567.429 710.791" xmlns="http://www.w3.org/2000/svg" shape-rendering="crispEdges">
<title>
../plots/unweighted/jet2_PT_WRWR_plot.svg
</title>
<desc>
Creator: ROOT Version 6.22/00
CreationDate: Sun Nov 15 16:01:24 2020</desc>
<defs>
</defs>
<rect x="0.5" y="0" width="566.929" height="710.291" fill="white"/>
<rect x="85.5394" y="71.0291" width="425.197" height="568.232" fill="white"/>
<rect x="85.5394" y="71.0291" width="425.197" height="568.232" fill="none" stroke="black"/>
<rect x="85.5394" y="71.0291" width="425.197" height="568.232" fill="white"/>
<rect x="85.5394" y="71.0291" width="425.197" height="568.232" fill="none" stroke="black"/>
<path d="M85.5394,626.571h 10.6299v -56.0656h 10.6299v -79.1737h 10.6299v -51.7091h 10.6299v -22.9187h 10.6299v -4.16704h 10.6299v 17.2364h 10.6299v 15.3423h 10.6299v 23.4869h 10.6299v 31.2528h 10.6299v 42.9963h 10.6299v 26.3281h 10.6299v 33.7151h
 10.6299v 24.0552h 10.6299v 5.68232h 10.6299v 3.97763h 21.2598v 1.7047h 10.6299v 0.378822h 31.8898v 0.568232h 10.6299v -0.378822h 10.6299v -0.189411h 10.6299v 0.568232h 10.6299v -0.189411h 10.6299v 0.189411h 10.6299v -0.378822h 10.6299v 0.378822h
 21.2598v -0.378822h 10.6299v 0.378822h 95.6693" fill="none" stroke="#ff0000" stroke-width="2"/>
<path d="M85.5394,639.261h 425.197" fill="none" stroke="black"/>
<path d="M85.5394,623.28v 15.9815" fill="none" stroke="black"/>
<path d="M100.725,631.271v 7.99077" fill="none" stroke="black"/>
<path d="M115.911,631.271v 7.99077" fill="none" stroke="black"/>
<path d="M131.096,631.271v 7.99077" fill="none" stroke="black"/>
<path d="M146.282,623.28v 15.9815" fill="none" stroke="black"/>
<path d="M161.467,631.271v 7.99077" fill="none" stroke="black"/>
<path d="M176.653,631.271v 7.99077" fill="none" stroke="black"/>
<path d="M191.839,631.271v 7.99077" fill="none" stroke="black"/>
<path d="M207.024,623.28v 15.9815" fill="none" stroke="black"/>
<path d="M222.21,631.271v 7.99077" fill="none" stroke="black"/>
<path d="M237.395,631.271v 7.99077" fill="none" stroke="black"/>
<path d="M252.581,631.271v 7.99077" fill="none" stroke="black"/>
<path d="M267.767,623.28v 15.9815" fill="none" stroke="black"/>
<path d="M282.952,631.271v 7.99077" fill="none" stroke="black"/>
<path d="M298.138,631.271v 7.99077" fill="none" stroke="black"/>
<path d="M313.323,631.271v 7.99077" fill="none" stroke="black"/>
<path d="M328.509,623.28v 15.9815" fill="none" stroke="black"/>
<path d="M343.695,631.271v 7.99077" fill="none" stroke="black"/>
<path d="M358.88,631.271v 7.99077" fill="none" stroke="black"/>
<path d="M374.066,631.271v 7.99077" fill="none" stroke="black"/>
<path d="M389.251,623.28v 15.9815" fill="none" stroke="black"/>
<path d="M404.437,631.271v 7.99077" fill="none" stroke="black"/>
<path d="M419.623,631.271v 7.99077" fill="none" stroke="black"/>
<path d="M434.808,631.271v 7.99077" fill="none" stroke="black"/>
<path d="M449.994,623.28v 15.9815" fill="none" stroke="black"/>
<path d="M465.179,631.271v 7.99077" fill="none" stroke="black"/>
<path d="M480.365,631.271v 7.99077" fill="none" stroke="black"/>
<path d="M495.551,631.271v 7.99077" fill="none" stroke="black"/>
<path d="M510.736,623.28v 15.9815" fill="none" stroke="black"/>
<path d="M510.736,623.28v 15.9815" fill="none" stroke="black"/>
<text xml:space="preserve" x="80.3262" y="662.232" fill="black" font-size="18.7041" font-family="Helvetica">0</text>
<text xml:space="preserve" x="132.458" y="662.232" fill="black" font-size="18.7041" font-family="Helvetica">0.2</text>
<text xml:space="preserve" x="193.549" y="662.232" fill="black" font-size="18.7041" font-family="Helvetica">0.4</text>
<text xml:space="preserve" x="254.641" y="662.232" fill="black" font-size="18.7041" font-family="Helvetica">0.6</text>
<text xml:space="preserve" x="314.918" y="662.232" fill="black" font-size="18.7041" font-family="Helvetica">0.8</text>
<text xml:space="preserve" x="385.784" y="662.232" fill="black" font-size="18.7041" font-family="Helvetica">1</text>
<text xml:space="preserve" x="436.286" y="662.232" fill="black" font-size="18.7041" font-family="Helvetica">1.2</text>
<text xml:space="preserve" x="497.378" y="662.232" fill="black" font-size="18.7041" font-family="Helvetica">1.4</text>
<text xml:space="preserve" x="459.094" y="685.039" fill="black" font-size="18.7041" font-family="Helvetica"> (TeV)</text>
<text xml:space="preserve" x="454.206" y="678.523" fill="black" font-size="8.59073" font-family="Helvetica">2</text>
<text xml:space="preserve" x="450.948" y="671.192" fill="black" font-size="12.6361" font-family="Helvetica">j</text>
<text xml:space="preserve" x="450.948" y="695.629" fill="black" font-size="12.6361" font-family="Helvetica">T</text>
<text xml:space="preserve" x="440.359" y="685.039" fill="black" font-size="18.7041" font-family="Helvetica">p</text>
<path d="M85.5394,639.261v -568.232" fill="none" stroke="black"/>
<path d="M99.1457,639.261h -13.6063" fill="none" stroke="black"/>
<path d="M92.3425,620.32h -6.80315" fill="none" stroke="black"/>
<path d="M92.3425,601.379h -6.80315" fill="none" stroke="black"/>
<path d="M92.3425,582.438h -6.80315" fill="none" stroke="black"/>
<path d="M92.3425,563.497h -6.80315" fill="none" stroke="black"/>
<path d="M99.1457,544.556h -13.6063" fill="none" stroke="black"/>
<path d="M92.3425,525.615h -6.80315" fill="none" stroke="black"/>
<path d="M92.3425,506.674h -6.80315" fill="none" stroke="black"/>
<path d="M92.3425,487.733h -6.80315" fill="none" stroke="black"/>
<path d="M92.3425,468.792h -6.80315" fill="none" stroke="black"/>
<path d="M99.1457,449.851h -13.6063" fill="none" stroke="black"/>
<path d="M92.3425,430.91h -6.80315" fill="none" stroke="black"/>
<path d="M92.3425,411.968h -6.80315" fill="none" stroke="black"/>
<path d="M92.3425,393.027h -6.80315" fill="none" stroke="black"/>
<path d="M92.3425,374.086h -6.80315" fill="none" stroke="black"/>
<path d="M99.1457,355.145h -13.6063" fill="none" stroke="black"/>
<path d="M92.3425,336.204h -6.80315" fill="none" stroke="black"/>
<path d="M92.3425,317.263h -6.80315" fill="none" stroke="black"/>
<path d="M92.3425,298.322h -6.80315" fill="none" stroke="black"/>
<path d="M92.3425,279.381h -6.80315" fill="none" stroke="black"/>
<path d="M99.1457,260.44h -13.6063" fill="none" stroke="black"/>
<path d="M92.3425,241.499h -6.80315" fill="none" stroke="black"/>
<path d="M92.3425,222.558h -6.80315" fill="none" stroke="black"/>
<path d="M92.3425,203.617h -6.80315" fill="none" stroke="black"/>
<path d="M92.3425,184.676h -6.80315" fill="none" stroke="black"/>
<path d="M99.1457,165.734h -13.6063" fill="none" stroke="black"/>
<path d="M92.3425,146.793h -6.80315" fill="none" stroke="black"/>
<path d="M92.3425,127.852h -6.80315" fill="none" stroke="black"/>
<path d="M92.3425,108.911h -6.80315" fill="none" stroke="black"/>
<path d="M92.3425,89.9701h -6.80315" fill="none" stroke="black"/>
<path d="M99.1457,71.0291h -13.6063" fill="none" stroke="black"/>
<text xml:space="preserve" x="72.1807" y="645.941" fill="black" font-size="18.7041" font-family="Helvetica">0</text>
<text xml:space="preserve" x="51.0023" y="551.453" fill="black" font-size="18.7041" font-family="Helvetica">500</text>
<text xml:space="preserve" x="40.4131" y="456.964" fill="black" font-size="18.7041" font-family="Helvetica">1000</text>
<text xml:space="preserve" x="40.4131" y="362.476" fill="black" font-size="18.7041" font-family="Helvetica">1500</text>
<text xml:space="preserve" x="40.4131" y="267.173" fill="black" font-size="18.7041" font-family="Helvetica">2000</text>
<text xml:space="preserve" x="40.4131" y="172.685" fill="black" font-size="18.7041" font-family="Helvetica">2500</text>
<text xml:space="preserve" x="40.4131" y="78.1971" fill="black" font-size="18.7041" font-family="Helvetica">3000</text>
<g transform="rotate(-90,30.6385,159.652)">
<text xml:space="preserve" x="30.6385" y="159.652" fill="black" font-size="18.7041" font-family="Helvetica">Events/Bin</text>
</g>
<text xml:space="preserve" x="283.965" y="35.5145" text-anchor="middle" fill="black" font-size="26.5059" font-family="Helvetica">jet2_pT WRWR</text>
<path d="M85.5394,634.337h 10.6299v -20.8352h 10.6299v -24.2446h 10.6299v -42.2386h 10.6299v -21.0246h 10.6299v -18.3728h 10.6299v -34.0939h 10.6299v -24.8128h 10.6299v 3.97763h 10.6299v 19.5093h 10.6299v 12.1223h 10.6299v 12.1223h 10.6299v 14.5846h
 10.6299v 22.9187h 10.6299v 39.0186h 10.6299v 17.6152h 10.6299v 20.8352h 10.6299v 2.27293h 10.6299v 14.0164h 10.6299v 3.78822h 10.6299v 1.89411h 10.6299v 1.89411h 10.6299v 1.7047h 10.6299v 0.947054h 10.6299v 0.189411h 21.2598v 0.568232h 10.6299v
 0.189411h 10.6299v -0.568232h 10.6299v 0.568232h 10.6299v 0.378822h 42.5197v -0.189411h 10.6299v 0.189411h 10.6299v -0.378822h 10.6299v 0.378822h 31.8898" fill="none" stroke="#ffcc00" stroke-width="2"/>
<path d="M85.5394,622.025h 10.6299v -85.0454h 10.6299v -85.9925h 10.6299v -49.4362h 10.6299v -7.0082h 10.6299v -14.5846h 10.6299v 47.7315h 10.6299v 27.8434h 10.6299v 44.5115h 10.6299v 45.2692h 10.6299v 26.8963h 10.6299v 20.4564h 10.6299v 22.5399h
 10.6299v 12.3117h 10.6299v 2.08352h 10.6299v 5.87173h 10.6299v 1.89411h 10.6299v 0.189411h 10.6299v 0.568232h 10.6299v 0.378822h 10.6299v 0.378822h 21.2598v -0.189411h 21.2598v 0.189411h 10.6299v 0.378822h 10.6299v -0.189411h 10.6299v 0.189411h
 53.1496v -0.189411h 10.6299v 0.189411h 74.4094" fill="none" stroke="#99cc00" stroke-width="2"/>
<path d="M85.5394,636.61h 10.6299v -14.9635h 10.6299v -14.2058h 10.6299v -19.8881h 10.6299v -16.0999h 10.6299v -11.9329h 10.6299v -17.4258h 10.6299v 2.08352h 10.6299v -9.28113h 10.6299v -3.03057h 10.6299v -14.2058h 10.6299v 10.4176h 10.6299v 5.3035h
 10.6299v -4.54586h 10.6299v 16.6681h 21.2598v 3.78822h 10.6299v 12.6905h 10.6299v 4.73527h 10.6299v 4.16704h 10.6299v 7.19761h 10.6299v 7.95525h 10.6299v 8.7129h 10.6299v 13.0693h 10.6299v 6.06115h 10.6299v 10.0388h 10.6299v 5.68232h 10.6299v
 7.76584h 10.6299v 1.51529h 10.6299v 0.189411h 21.2598v 0.189411h 10.6299v -0.568232h 10.6299v 0.378822h 10.6299v 0.189411h 21.2598v -0.189411h 10.6299v 0.189411h 10.6299v -0.189411h 10.6299v 0.189411h 10.6299" fill="none" stroke="#999900"
 stroke-width="2"/>
<path d="M85.5394,637.936h 10.6299v -5.49291h 10.6299v -5.3035h 10.6299v -8.14466h 10.6299v -8.14466h 10.6299v -11.3646h 10.6299v -2.84116h 10.6299v -8.90231h 10.6299v -7.95525h 10.6299v -4.92468h 10.6299v -2.84116h 10.6299v -15.5317h 10.6299v
 -5.49291h 10.6299v -2.46234h 10.6299v -10.4176h 10.6299v 7.0082h 10.6299v -5.49291h 10.6299v 0.568232h 10.6299v 1.7047h 10.6299v -0.189411h 10.6299v -3.21998h 10.6299v 11.1752h 10.6299v 5.3035h 10.6299v 9.09172h 10.6299v 6.62938h 10.6299v 12.8799h
 10.6299v 3.78822h 10.6299v 15.1529h 10.6299v 12.1223h 10.6299v 10.4176h 10.6299v 5.3035h 10.6299v 4.35645h 10.6299v 1.51529h 10.6299v 0.947054h 10.6299v 1.51529h 10.6299v 0.378822h 10.6299v -0.189411h 21.2598v 0.189411h 21.2598v 0.189411"
 fill="none" stroke="#009900" stroke-width="2"/>
<path d="M85.5394,634.905h 10.6299v -20.6458h 10.6299v -27.0857h 10.6299v -22.5399h 10.6299v -20.267h 10.6299v -25.1916h 10.6299v -12.5011h 10.6299v -13.2588h 10.6299v 7.0082h 10.6299v 6.25056h 10.6299v -8.52349h 10.6299v 8.90231h 10.6299v 18.9411h
 10.6299v 2.65175h 10.6299v 14.774h 10.6299v 16.0999h 10.6299v 12.5011h 10.6299v 11.7435h 10.6299v 8.33407h 10.6299v 14.3952h 10.6299v 9.84936h 10.6299v 6.06115h 10.6299v 5.49291h 10.6299v 2.65175h 10.6299v 5.11409h 10.6299v 1.13646h 10.6299v
 1.13646h 10.6299v 0.568232h 10.6299v 0.568232h 21.2598v 0.189411h 63.7795v -0.189411h 10.6299v 0.189411h 31.8898" fill="none" stroke="#00ffff" stroke-width="2"/>
<path d="M85.5394,638.883h 10.6299v -6.06115h 10.6299v -8.90231h 10.6299v -10.9858h 10.6299v -5.87173h 10.6299v -4.92468h 10.6299v -15.9105h 10.6299v 0.568232h 10.6299v -5.49291h 10.6299v -1.89411h 10.6299v -11.7435h 10.6299v 6.06115h 10.6299v
 -5.68232h 10.6299v -4.35645h 10.6299v 5.87173h 10.6299v -4.73527h 10.6299v 1.32588h 10.6299v 2.27293h 10.6299v -2.84116h 10.6299v 6.43997h 10.6299v -1.32588h 10.6299v 4.16704h 10.6299v 5.68232h 10.6299v 3.40939h 10.6299v -0.947054h 10.6299v 3.40939h
 10.6299v 9.09172h 10.6299v -6.43997h 10.6299v 3.21998h 21.2598v 6.43997h 10.6299v 4.73527h 10.6299v 3.97763h 10.6299v -0.757643h 10.6299v 5.3035h 10.6299v 5.11409h 10.6299v 2.84116h 10.6299v 3.21998h 10.6299v 6.25056h 10.6299v 2.08352h 10.6299v
 7.76584" fill="none" stroke="#00ccff" stroke-width="2"/>
<rect x="227.272" y="71.0291" width="283.465" height="142.058" fill="white"/>
<path d="M227.272,213.087h 283.465" fill="none" stroke="black"/>
<path d="M510.736,213.087v -142.058" fill="none" stroke="black"/>
<path d="M510.736,71.0291h -283.465" fill="none" stroke="black"/>
<path d="M227.272,71.0291v 142.058" fill="none" stroke="black"/>
<text xml:space="preserve" x="457.464" y="85.5281" fill="black" font-size="13.8745" font-family="Helvetica"> = 1</text>
<text xml:space="preserve" x="449.319" y="92.0445" fill="black" font-size="6.44421" font-family="Helvetica">4,6</text>
<text xml:space="preserve" x="442.802" y="89.6009" fill="black" font-size="9.41632" font-family="Helvetica">N</text>
<text xml:space="preserve" x="389.042" y="85.5281" fill="black" font-size="13.8745" font-family="Helvetica"> = 1     M</text>
<text xml:space="preserve" x="385.784" y="92.0445" fill="black" font-size="6.44421" font-family="Helvetica">5</text>
<text xml:space="preserve" x="379.267" y="89.6009" fill="black" font-size="9.41632" font-family="Helvetica">N</text>
<text xml:space="preserve" x="321.434" y="85.5281" fill="black" font-size="13.8745" font-family="Helvetica"> = 1      M</text>
<text xml:space="preserve" x="317.361" y="92.8591" fill="black" font-size="6.44421" font-family="Helvetica">R</text>
<text xml:space="preserve" x="308.401" y="89.6009" fill="black" font-size="9.41632" font-family="Helvetica">W</text>
<text xml:space="preserve" x="297.812" y="85.5281" fill="black" font-size="13.8745" font-family="Helvetica">M</text>
<path d="M237.902,81.1761h 49.6063" fill="none" stroke="#ff0000" stroke-width="2"/>
<text xml:space="preserve" x="457.464" y="105.892" fill="black" font-size="13.8745" font-family="Helvetica"> = 2</text>
<text xml:space="preserve" x="449.319" y="112.408" fill="black" font-size="6.44421" font-family="Helvetica">4,6</text>
<text xml:space="preserve" x="442.802" y="109.965" fill="black" font-size="9.41632" font-family="Helvetica">N</text>
<text xml:space="preserve" x="389.042" y="105.892" fill="black" font-size="13.8745" font-family="Helvetica"> = 2     M</text>
<text xml:space="preserve" x="385.784" y="112.408" fill="black" font-size="6.44421" font-family="Helvetica">5</text>
<text xml:space="preserve" x="379.267" y="109.965" fill="black" font-size="9.41632" font-family="Helvetica">N</text>
<text xml:space="preserve" x="321.434" y="105.892" fill="black" font-size="13.8745" font-family="Helvetica"> = 1      M</text>
<text xml:space="preserve" x="317.361" y="113.223" fill="black" font-size="6.44421" font-family="Helvetica">R</text>
<text xml:space="preserve" x="308.401" y="109.965" fill="black" font-size="9.41632" font-family="Helvetica">W</text>
<text xml:space="preserve" x="297.812" y="105.892" fill="black" font-size="13.8745" font-family="Helvetica">M</text>
<path d="M237.902,101.47h 49.6063" fill="none" stroke="#ffcc00" stroke-width="2"/>
<text xml:space="preserve" x="457.464" y="126.256" fill="black" font-size="13.8745" font-family="Helvetica"> = 1</text>
<text xml:space="preserve" x="449.319" y="132.772" fill="black" font-size="6.44421" font-family="Helvetica">4,6</text>
<text xml:space="preserve" x="442.802" y="130.329" fill="black" font-size="9.41632" font-family="Helvetica">N</text>
<text xml:space="preserve" x="389.042" y="126.256" fill="black" font-size="13.8745" font-family="Helvetica"> = 1     M</text>
<text xml:space="preserve" x="385.784" y="132.772" fill="black" font-size="6.44421" font-family="Helvetica">5</text>
<text xml:space="preserve" x="379.267" y="130.329" fill="black" font-size="9.41632" font-family="Helvetica">N</text>
<text xml:space="preserve" x="321.434" y="126.256" fill="black" font-size="13.8745" font-family="Helvetica"> = 2      M</text>
<text xml:space="preserve" x="317.361" y="133.587" fill="black" font-size="6.44421" font-family="Helvetica">R</text>
<text xml:space="preserve" x="308.401" y="130.329" fill="black" font-size="9.41632" font-family="Helvetica">W</text>
<text xml:space="preserve" x="297.812" y="126.256" fill="black" font-size="13.8745" font-family="Helvetica">M</text>
<path d="M237.902,121.764h 49.6063" fill="none" stroke="#99cc00" stroke-width="2"/>
<text xml:space="preserve" x="457.464" y="146.62" fill="black" font-size="13.8745" font-family="Helvetica"> = 2</text>
<text xml:space="preserve" x="449.319" y="153.136" fill="black" font-size="6.44421" font-family="Helvetica">4,6</text>
<text xml:space="preserve" x="442.802" y="150.692" fill="black" font-size="9.41632" font-family="Helvetica">N</text>
<text xml:space="preserve" x="389.042" y="146.62" fill="black" font-size="13.8745" font-family="Helvetica"> = 2     M</text>
<text xml:space="preserve" x="385.784" y="153.136" fill="black" font-size="6.44421" font-family="Helvetica">5</text>
<text xml:space="preserve" x="379.267" y="150.692" fill="black" font-size="9.41632" font-family="Helvetica">N</text>
<text xml:space="preserve" x="321.434" y="146.62" fill="black" font-size="13.8745" font-family="Helvetica"> = 2      M</text>
<text xml:space="preserve" x="317.361" y="153.951" fill="black" font-size="6.44421" font-family="Helvetica">R</text>
<text xml:space="preserve" x="308.401" y="150.692" fill="black" font-size="9.41632" font-family="Helvetica">W</text>
<text xml:space="preserve" x="297.812" y="146.62" fill="black" font-size="13.8745" font-family="Helvetica">M</text>
<path d="M237.902,142.058h 49.6063" fill="none" stroke="#999900" stroke-width="2"/>
<text xml:space="preserve" x="457.464" y="166.169" fill="black" font-size="13.8745" font-family="Helvetica"> = 3</text>
<text xml:space="preserve" x="449.319" y="173.5" fill="black" font-size="6.44421" font-family="Helvetica">4,6</text>
<text xml:space="preserve" x="442.802" y="171.056" fill="black" font-size="9.41632" font-family="Helvetica">N</text>
<text xml:space="preserve" x="389.042" y="166.169" fill="black" font-size="13.8745" font-family="Helvetica"> = 3     M</text>
<text xml:space="preserve" x="385.784" y="172.685" fill="black" font-size="6.44421" font-family="Helvetica">5</text>
<text xml:space="preserve" x="379.267" y="170.242" fill="black" font-size="9.41632" font-family="Helvetica">N</text>
<text xml:space="preserve" x="321.434" y="166.169" fill="black" font-size="13.8745" font-family="Helvetica"> = 2      M</text>
<text xml:space="preserve" x="317.361" y="173.5" fill="black" font-size="6.44421" font-family="Helvetica">R</text>
<text xml:space="preserve" x="308.401" y="170.242" fill="black" font-size="9.41632" font-family="Helvetica">W</text>
<text xml:space="preserve" x="297.812" y="166.169" fill="black" font-size="13.8745" font-family="Helvetica">M</text>
<path d="M237.902,162.352h 49.6063" fill="none" stroke="#009900" stroke-width="2"/>
<text xml:space="preserve" x="457.464" y="186.533" fill="black" font-size="13.8745" font-family="Helvetica"> = 2</text>
<text xml:space="preserve" x="449.319" y="193.049" fill="black" font-size="6.44421" font-family="Helvetica">4,6</text>
<text xml:space="preserve" x="442.802" y="190.605" fill="black" font-size="9.41632" font-family="Helvetica">N</text>
<text xml:space="preserve" x="389.042" y="186.533" fill="black" font-size="13.8745" font-family="Helvetica"> = 2     M</text>
<text xml:space="preserve" x="385.784" y="193.864" fill="black" font-size="6.44421" font-family="Helvetica">5</text>
<text xml:space="preserve" x="379.267" y="191.42" fill="black" font-size="9.41632" font-family="Helvetica">N</text>
<text xml:space="preserve" x="321.434" y="186.533" fill="black" font-size="13.8745" font-family="Helvetica"> = 3      M</text>
<text xml:space="preserve" x="317.361" y="193.864" fill="black" font-size="6.44421" font-family="Helvetica">R</text>
<text xml:space="preserve" x="308.401" y="190.605" fill="black" font-size="9.41632" font-family="Helvetica">W</text>
<text xml:space="preserve" x="297.812" y="186.533" fill="black" font-size="13.8745" font-family="Helvetica">M</text>
<path d="M237.902,182.646h 49.6063" fill="none" stroke="#00ffff" stroke-width="2"/>
<text xml:space="preserve" x="457.464" y="206.897" fill="black" font-size="13.8745" font-family="Helvetica"> = 3</text>
<text xml:space="preserve" x="449.319" y="214.228" fill="black" font-size="6.44421" font-family="Helvetica">4,6</text>
<text xml:space="preserve" x="442.802" y="211.784" fill="black" font-size="9.41632" font-family="Helvetica">N</text>
<text xml:space="preserve" x="389.042" y="206.897" fill="black" font-size="13.8745" font-family="Helvetica"> = 3     M</text>
<text xml:space="preserve" x="385.784" y="214.228" fill="black" font-size="6.44421" font-family="Helvetica">5</text>
<text xml:space="preserve" x="379.267" y="211.784" fill="black" font-size="9.41632" font-family="Helvetica">N</text>
<text xml:space="preserve" x="321.434" y="206.897" fill="black" font-size="13.8745" font-family="Helvetica"> = 3      M</text>
<text xml:space="preserve" x="317.361" y="214.228" fill="black" font-size="6.44421" font-family="Helvetica">R</text>
<text xml:space="preserve" x="308.401" y="210.969" fill="black" font-size="9.41632" font-family="Helvetica">W</text>
<text xml:space="preserve" x="297.812" y="206.897" fill="black" font-size="13.8745" font-family="Helvetica">M</text>
<path d="M237.902,202.94h 49.6063" fill="none" stroke="#00ccff" stroke-width="2"/></svg>
